<?xml version="1.0" encoding="utf-8"?>
<!-- Generator: Adobe Illustrator 27.9.0, SVG Export Plug-In . SVG Version: 6.00 Build 0)  -->
<svg version="1.1" id="Layer_1" xmlns="http://www.w3.org/2000/svg" xmlns:xlink="http://www.w3.org/1999/xlink" x="0px" y="0px"
	 viewBox="0 0 266.31 140.55" style="enable-background:new 0 0 266.31 140.55;" xml:space="preserve">
<style type="text/css">
	.st0{fill:#2A9D6F;}
	.st1{fill:#E30011;}
	.st2{fill:#000300;}
	.st3{fill:none;stroke:#2A9D6F;stroke-linecap:round;stroke-miterlimit:10;}
	.medical-bg{fill:#FFFFFF;rx:8px;ry:8px;filter:drop-shadow(0 2px 8px rgba(42,157,111,0.15));}
	@keyframes float-logo{0%,100%{transform:translateY(0px)}50%{transform:translateY(-8px)}}
	@keyframes pulse-glow{0%,100%{filter:drop-shadow(0 2px 8px rgba(42,157,111,0.15))}50%{filter:drop-shadow(0 4px 16px rgba(42,157,111,0.25))}}
	.logo-group{animation:float-logo 3s ease-in-out infinite;transform-origin:center;}
	.logo-group:hover{animation:none}
</style>
<!-- Medical White Background -->
<rect class="medical-bg" x="0" y="0" width="266.31" height="140.55"/>
<g>
	<g>
		<path class="st0" d="M65.27,99.9l-1.05-5.43h-5.67l-1.03,5.43h-4.11l5.51-24.43h5.21l5.43,24.43H65.27z M59.31,90.71h4.17
			l-2.03-10.58L59.31,90.71z"/>
		<path class="st0" d="M71.31,87.32v-0.33c0-3.01,1.9-4.52,5.69-4.52c3.56,0,5.33,1.65,5.33,4.95v8.48c0,1.5,0.09,2.84,0.28,4.01
			h-3.6l-0.31-1.94c-0.82,1.38-2.12,2.07-3.9,2.07c-1.27,0-2.25-0.52-2.94-1.57c-0.63-0.96-0.94-2.21-0.94-3.74
			c0-1.91,0.51-3.33,1.52-4.26c1.17-1.06,2.81-1.59,4.9-1.59h1.28v-0.78c0-0.97-0.08-1.68-0.23-2.12c-0.24-0.71-0.71-1.06-1.39-1.06
			c-1.29,0-1.93,0.8-1.93,2.4H71.31z M78.61,91.46c-1.27,0-2.16,0.15-2.69,0.46c-0.77,0.45-1.15,1.34-1.15,2.65
			c0,1.77,0.52,2.65,1.56,2.65c1.52,0,2.28-1.42,2.28-4.27V91.46z"/>
		<path class="st0" d="M86.48,94.25h3.72v0.35c0,1.82,0.46,2.73,1.38,2.73c1.13,0,1.7-0.58,1.7-1.75c0-0.92-0.86-1.93-2.58-3.04
			l-0.9-0.58c-1.17-0.78-1.93-1.39-2.29-1.82c-0.67-0.78-1.01-1.77-1.01-2.96c0-1.58,0.53-2.8,1.58-3.67
			c0.9-0.74,2.02-1.11,3.35-1.11c3.33,0,4.99,1.54,4.99,4.62c0,0.07,0,0.16-0.01,0.27s-0.01,0.21-0.01,0.27h-3.58
			c0.02-0.13,0.03-0.31,0.03-0.53c0-1.37-0.46-2.05-1.39-2.05c-0.92,0-1.38,0.5-1.38,1.49c0,0.73,0.78,1.61,2.35,2.65
			c0.68,0.45,1.23,0.83,1.64,1.14c0.94,0.71,1.62,1.35,2.01,1.92c0.56,0.8,0.83,1.77,0.83,2.9c0,3.36-1.94,5.04-5.83,5.04
			c-3.1,0-4.65-1.73-4.65-5.18C86.44,94.61,86.46,94.39,86.48,94.25z"/>
		<path class="st0" d="M104.43,99.9h-4.07V75.47h4.07v9.16c0.68-1.45,1.75-2.17,3.24-2.17c2.61,0,3.91,1.5,3.91,4.49V99.9h-4.07
			V88.28c0-0.89-0.06-1.53-0.17-1.9c-0.19-0.66-0.58-0.99-1.18-0.99c-1.15,0-1.73,0.81-1.73,2.42V99.9z"/>
		<path class="st0" d="M116.24,87.32v-0.33c0-3.01,1.9-4.52,5.69-4.52c3.56,0,5.33,1.65,5.33,4.95v8.48c0,1.5,0.09,2.84,0.28,4.01
			h-3.6l-0.31-1.94c-0.82,1.38-2.12,2.07-3.9,2.07c-1.27,0-2.25-0.52-2.94-1.57c-0.63-0.96-0.94-2.21-0.94-3.74
			c0-1.91,0.51-3.33,1.52-4.26c1.17-1.06,2.81-1.59,4.9-1.59h1.28v-0.78c0-0.97-0.08-1.68-0.23-2.12c-0.24-0.71-0.71-1.06-1.39-1.06
			c-1.29,0-1.93,0.8-1.93,2.4H116.24z M123.54,91.46c-1.27,0-2.16,0.15-2.69,0.46c-0.77,0.45-1.15,1.34-1.15,2.65
			c0,1.77,0.52,2.65,1.56,2.65c1.52,0,2.28-1.42,2.28-4.27V91.46z"/>
		<path class="st1" d="M134.43,99.9V75.47h5.91l2.59,14.97c0.2,1.18,0.39,2.87,0.55,5.07c0.09-1.77,0.26-3.47,0.5-5.1l2.32-14.93
			h6.14V99.9h-3.56l0.16-16.69c0.03-2.59,0.08-4.64,0.17-6.13L145.4,99.9h-3.66l-4.03-22.85c0.12,1.49,0.19,3.5,0.22,6.03
			c0.01,0.06,0.01,0.1,0.01,0.13l0.22,16.69H134.43z"/>
		<path class="st1" d="M163.66,93.59h4.1c0,4.46-1.99,6.69-5.97,6.69c-2.51,0-4.2-0.86-5.09-2.57c-0.67-1.29-1-3.53-1-6.71
			c0-2.84,0.4-4.91,1.19-6.21c0.95-1.56,2.59-2.33,4.9-2.33c3.98,0,5.97,2.29,5.97,6.86v2.58h-7.85v1.76c0,2.44,0.62,3.66,1.84,3.66
			c1.27,0,1.9-1.14,1.9-3.41V93.59z M159.91,89.22h3.69V87.8c0-1.7-0.6-2.55-1.81-2.55c-1.25,0-1.87,1.13-1.87,3.4V89.22z"/>
		<path class="st1" d="M178.07,84.27v-8.79h4.02v20.63c0,1.16,0.04,2.41,0.11,3.76h-4.02l-0.14-1.62c-0.63,1.36-1.71,2.04-3.24,2.04
			c-1.2,0-2.17-0.44-2.9-1.33c-0.65-0.78-1.06-2.04-1.24-3.76c-0.09-0.78-0.13-2.15-0.13-4.11c0-2.53,0.18-4.4,0.54-5.61
			c0.61-2.03,1.79-3.05,3.53-3.05C176.07,82.43,177.23,83.04,178.07,84.27z M178.07,89.39c0-2.59-0.58-3.89-1.75-3.89
			c-0.87,0-1.41,0.77-1.63,2.32c-0.07,0.49-0.1,1.61-0.1,3.38v0.4c0,2.06,0.01,3.22,0.04,3.48c0.19,1.57,0.74,2.35,1.64,2.35
			c0.84,0,1.38-0.54,1.63-1.61c0.12-0.5,0.17-1.42,0.17-2.77V89.39z"/>
	</g>
	<g>
		<path class="st0" d="M57.41,115.52v-6.48h2.06c1.14,0,1.71,0.53,1.71,1.58c0,0.39-0.07,0.72-0.22,1c-0.17,0.32-0.42,0.5-0.75,0.53
			c0.35,0.07,0.62,0.25,0.8,0.53c0.17,0.27,0.26,0.61,0.26,1.02c0,0.65-0.15,1.12-0.45,1.42c-0.28,0.28-0.72,0.41-1.32,0.41H57.41z
			 M58.58,111.67h0.69c0.49,0,0.73-0.29,0.73-0.86c0-0.51-0.24-0.77-0.73-0.77h-0.69V111.67z M58.58,114.5h0.58
			c0.6,0,0.9-0.31,0.9-0.92s-0.29-0.92-0.87-0.92h-0.62V114.5z"/>
		<path class="st0" d="M62.09,115.52v-4.53h1l0.08,0.59c0.15-0.46,0.48-0.69,1-0.69h0.07v1.1h-0.1c-0.33,0-0.57,0.09-0.7,0.28
			c-0.13,0.17-0.19,0.44-0.19,0.82v2.43H62.09z"/>
		<path class="st0" d="M65.9,109.04v1.07h-1.14v-1.07H65.9z M65.9,111v4.52h-1.14V111H65.9z"/>
		<path class="st0" d="M68.69,111.37v-2.33h1.11v5.48c0,0.31,0.01,0.64,0.03,1h-1.11l-0.04-0.43c-0.17,0.36-0.47,0.54-0.9,0.54
			c-0.33,0-0.6-0.12-0.8-0.35c-0.18-0.21-0.29-0.54-0.34-1c-0.02-0.21-0.04-0.57-0.04-1.09c0-0.67,0.05-1.17,0.15-1.49
			c0.17-0.54,0.49-0.81,0.98-0.81C68.14,110.88,68.46,111.05,68.69,111.37z M68.69,112.73c0-0.69-0.16-1.03-0.48-1.03
			c-0.24,0-0.39,0.21-0.45,0.62c-0.02,0.13-0.03,0.43-0.03,0.9v0.11c0,0.55,0,0.86,0.01,0.92c0.05,0.42,0.2,0.62,0.45,0.62
			c0.23,0,0.38-0.14,0.45-0.43c0.03-0.13,0.05-0.38,0.05-0.73V112.73z"/>
		<path class="st0" d="M73.74,115.43c0,0.68-0.11,1.16-0.34,1.43c-0.24,0.29-0.66,0.43-1.26,0.43c-0.43,0-0.77-0.09-1.04-0.26
			c-0.32-0.21-0.48-0.54-0.48-0.99v-0.06h1.09c0.01,0.2,0.04,0.34,0.1,0.42c0.07,0.1,0.19,0.14,0.36,0.14
			c0.16,0,0.27-0.05,0.34-0.14c0.07-0.11,0.11-0.37,0.11-0.77v-0.51c-0.28,0.33-0.6,0.5-0.94,0.5c-0.48,0-0.81-0.27-0.98-0.81
			c-0.1-0.32-0.15-0.82-0.15-1.49c0-0.95,0.08-1.58,0.23-1.88c0.19-0.37,0.51-0.56,0.95-0.56c0.43,0,0.73,0.18,0.9,0.54l0.04-0.43
			h1.11c-0.02,0.36-0.03,0.7-0.03,1V115.43z M72.61,112.8c0-0.35-0.02-0.6-0.05-0.73c-0.07-0.28-0.22-0.42-0.45-0.42
			c-0.25,0-0.39,0.21-0.45,0.63c-0.01,0.07-0.01,0.38-0.01,0.92v0.11c0,0.47,0.01,0.77,0.03,0.9c0.06,0.41,0.21,0.62,0.45,0.62
			c0.32,0,0.48-0.34,0.48-1.03V112.8z"/>
		<path class="st0" d="M75.68,109.04v1.07h-1.14v-1.07H75.68z M75.68,111v4.52h-1.14V111H75.68z"/>
		<path class="st0" d="M77.63,115.52h-1.14v-3.71c0-0.35-0.01-0.62-0.04-0.81h1.15l0.03,0.47c0.19-0.38,0.49-0.58,0.91-0.58
			c0.73,0,1.1,0.4,1.1,1.19v3.44H78.5v-3.08c0-0.24-0.02-0.41-0.05-0.5c-0.05-0.18-0.16-0.26-0.33-0.26c-0.32,0-0.49,0.21-0.49,0.64
			V115.52z"/>
		<path class="st0" d="M83.58,115.43c0,0.68-0.11,1.16-0.34,1.43c-0.24,0.29-0.66,0.43-1.26,0.43c-0.43,0-0.77-0.09-1.04-0.26
			c-0.32-0.21-0.48-0.54-0.48-0.99v-0.06h1.09c0.01,0.2,0.04,0.34,0.1,0.42c0.07,0.1,0.19,0.14,0.36,0.14
			c0.16,0,0.27-0.05,0.34-0.14c0.07-0.11,0.11-0.37,0.11-0.77v-0.51c-0.28,0.33-0.6,0.5-0.94,0.5c-0.48,0-0.81-0.27-0.98-0.81
			c-0.1-0.32-0.15-0.82-0.15-1.49c0-0.95,0.08-1.58,0.23-1.88c0.19-0.37,0.51-0.56,0.95-0.56c0.43,0,0.73,0.18,0.9,0.54L82.5,111
			h1.11c-0.02,0.36-0.03,0.7-0.03,1V115.43z M82.46,112.8c0-0.35-0.02-0.6-0.05-0.73c-0.07-0.28-0.22-0.42-0.45-0.42
			c-0.25,0-0.39,0.21-0.45,0.63c-0.01,0.07-0.01,0.38-0.01,0.92v0.11c0,0.47,0.01,0.77,0.03,0.9c0.06,0.41,0.21,0.62,0.45,0.62
			c0.32,0,0.48-0.34,0.48-1.03V112.8z"/>
		<path class="st0" d="M90.33,112.11v3.29c-0.73,0.15-1.31,0.22-1.74,0.22c-0.7,0-1.2-0.15-1.5-0.44c-0.3-0.29-0.5-0.77-0.59-1.43
			c-0.05-0.34-0.07-0.88-0.07-1.62c0-1.17,0.13-1.98,0.4-2.42c0.3-0.5,0.85-0.75,1.64-0.75c1.24,0,1.86,0.66,1.86,1.98v0.1h-1.2
			v-0.08c0-0.72-0.23-1.08-0.7-1.08c-0.4,0-0.64,0.32-0.74,0.95c-0.03,0.18-0.04,0.66-0.04,1.44c0,0.82,0.02,1.33,0.06,1.53
			c0.12,0.58,0.42,0.88,0.91,0.88c0.17,0,0.37-0.03,0.61-0.1v-1.45h-0.67v-1.02H90.33z"/>
		<path class="st0" d="M91.18,112.18v-0.09c0-0.8,0.53-1.2,1.6-1.2c1,0,1.5,0.44,1.5,1.31v2.25c0,0.4,0.03,0.75,0.08,1.06h-1.01
			l-0.09-0.51c-0.23,0.37-0.59,0.55-1.1,0.55c-0.36,0-0.63-0.14-0.83-0.42c-0.18-0.25-0.27-0.58-0.27-0.99
			c0-0.51,0.14-0.88,0.43-1.13c0.33-0.28,0.79-0.42,1.38-0.42h0.36v-0.21c0-0.26-0.02-0.45-0.06-0.56c-0.07-0.19-0.2-0.28-0.39-0.28
			c-0.36,0-0.54,0.21-0.54,0.64H91.18z M93.23,113.28c-0.36,0-0.61,0.04-0.76,0.12c-0.22,0.12-0.32,0.35-0.32,0.7
			c0,0.47,0.15,0.7,0.44,0.7c0.43,0,0.64-0.38,0.64-1.13V113.28z"/>
		<path class="st0" d="M95.12,117.23V112c0-0.27-0.01-0.6-0.04-1h1.12l0.04,0.43c0.17-0.36,0.47-0.54,0.9-0.54
			c0.33,0,0.6,0.12,0.8,0.35c0.18,0.21,0.29,0.54,0.34,1c0.02,0.21,0.04,0.57,0.04,1.09c0,0.68-0.05,1.18-0.15,1.5
			c-0.17,0.53-0.51,0.79-1,0.79c-0.38,0-0.69-0.16-0.92-0.49v2.09H95.12z M96.25,112.8v0.98c0,0.69,0.16,1.03,0.48,1.03
			c0.24,0,0.38-0.2,0.44-0.61c0.02-0.12,0.03-0.42,0.03-0.9v-0.11c0-0.54-0.01-0.85-0.02-0.92c-0.05-0.42-0.2-0.63-0.45-0.63
			c-0.23,0-0.37,0.14-0.44,0.42C96.26,112.2,96.25,112.45,96.25,112.8z"/>
		<path class="st0" d="M98.91,114.02h1.11v0.09c0,0.48,0.14,0.72,0.41,0.72c0.34,0,0.51-0.15,0.51-0.46c0-0.24-0.26-0.51-0.77-0.81
			l-0.27-0.15c-0.35-0.21-0.58-0.37-0.68-0.48c-0.2-0.21-0.3-0.47-0.3-0.79c0-0.42,0.16-0.74,0.47-0.97c0.27-0.2,0.6-0.29,1-0.29
			c0.99,0,1.49,0.41,1.49,1.23c0,0.02,0,0.04,0,0.07c0,0.03,0,0.06,0,0.07h-1.07c0-0.04,0.01-0.08,0.01-0.14
			c0-0.36-0.14-0.54-0.42-0.54c-0.27,0-0.41,0.13-0.41,0.39c0,0.19,0.23,0.43,0.7,0.7c0.2,0.12,0.37,0.22,0.49,0.3
			c0.28,0.19,0.48,0.36,0.6,0.51c0.17,0.21,0.25,0.47,0.25,0.77c0,0.89-0.58,1.34-1.74,1.34c-0.93,0-1.39-0.46-1.39-1.38
			C98.9,114.12,98.9,114.06,98.91,114.02z"/>
		<path class="st0" d="M102.55,116.39l0.36-2.07h0.98l-0.63,2.07H102.55z"/>
		<path class="st0" d="M106.8,115.52v-6.48h2.06c1.14,0,1.71,0.53,1.71,1.58c0,0.39-0.07,0.72-0.22,1c-0.17,0.32-0.42,0.5-0.75,0.53
			c0.35,0.07,0.62,0.25,0.8,0.53c0.17,0.27,0.26,0.61,0.26,1.02c0,0.65-0.15,1.12-0.45,1.42c-0.28,0.28-0.72,0.41-1.32,0.41H106.8z
			 M107.98,111.67h0.69c0.49,0,0.73-0.29,0.73-0.86c0-0.51-0.24-0.77-0.73-0.77h-0.69V111.67z M107.98,114.5h0.58
			c0.6,0,0.9-0.31,0.9-0.92s-0.29-0.92-0.87-0.92h-0.62V114.5z"/>
		<path class="st0" d="M113.47,111h1.15v3.92c0,0.24,0.01,0.44,0.03,0.59h-1.14l-0.04-0.48c-0.19,0.39-0.49,0.59-0.9,0.59
			c-0.74,0-1.1-0.4-1.1-1.2V111h1.14v3.08c0,0.24,0.01,0.41,0.04,0.5c0.05,0.18,0.16,0.26,0.33,0.26c0.32,0,0.49-0.21,0.49-0.64V111
			z"/>
		<path class="st0" d="M116.58,109.04v1.07h-1.14v-1.07H116.58z M116.58,111v4.52h-1.14V111H116.58z"/>
		<path class="st0" d="M117.36,115.52v-6.48h1.12v6.48H117.36z"/>
		<path class="st0" d="M121.29,111.37v-2.33h1.11v5.48c0,0.31,0.01,0.64,0.03,1h-1.11l-0.04-0.43c-0.17,0.36-0.47,0.54-0.9,0.54
			c-0.33,0-0.6-0.12-0.8-0.35c-0.18-0.21-0.29-0.54-0.34-1c-0.02-0.21-0.04-0.57-0.04-1.09c0-0.67,0.05-1.17,0.15-1.49
			c0.17-0.54,0.49-0.81,0.98-0.81C120.74,110.88,121.06,111.05,121.29,111.37z M121.29,112.73c0-0.69-0.16-1.03-0.48-1.03
			c-0.24,0-0.39,0.21-0.45,0.62c-0.02,0.13-0.03,0.43-0.03,0.9v0.11c0,0.55,0,0.86,0.01,0.92c0.05,0.42,0.2,0.62,0.45,0.62
			c0.23,0,0.38-0.14,0.45-0.43c0.03-0.13,0.05-0.38,0.05-0.73V112.73z"/>
		<path class="st0" d="M124.35,109.04v1.07h-1.14v-1.07H124.35z M124.35,111v4.52h-1.14V111H124.35z"/>
		<path class="st0" d="M126.3,115.52h-1.14v-3.71c0-0.35-0.01-0.62-0.04-0.81h1.15l0.03,0.47c0.19-0.38,0.49-0.58,0.91-0.58
			c0.73,0,1.1,0.4,1.1,1.19v3.44h-1.14v-3.08c0-0.24-0.02-0.41-0.05-0.5c-0.05-0.18-0.16-0.26-0.33-0.26
			c-0.32,0-0.49,0.21-0.49,0.64V115.52z"/>
		<path class="st0" d="M132.24,115.43c0,0.68-0.11,1.16-0.34,1.43c-0.24,0.29-0.66,0.43-1.26,0.43c-0.43,0-0.78-0.09-1.04-0.26
			c-0.32-0.21-0.48-0.54-0.48-0.99v-0.06h1.09c0.01,0.2,0.04,0.34,0.1,0.42c0.07,0.1,0.19,0.14,0.35,0.14
			c0.16,0,0.27-0.05,0.34-0.14c0.07-0.11,0.11-0.37,0.11-0.77v-0.51c-0.28,0.33-0.6,0.5-0.94,0.5c-0.48,0-0.81-0.27-0.98-0.81
			c-0.1-0.32-0.15-0.82-0.15-1.49c0-0.95,0.08-1.58,0.23-1.88c0.19-0.37,0.51-0.56,0.95-0.56c0.43,0,0.73,0.18,0.9,0.54l0.04-0.43
			h1.11c-0.02,0.36-0.03,0.7-0.03,1V115.43z M131.12,112.8c0-0.35-0.02-0.6-0.05-0.73c-0.07-0.28-0.22-0.42-0.45-0.42
			c-0.25,0-0.39,0.21-0.45,0.63c-0.01,0.07-0.01,0.38-0.01,0.92v0.11c0,0.47,0.01,0.77,0.03,0.9c0.06,0.41,0.21,0.62,0.45,0.62
			c0.32,0,0.48-0.34,0.48-1.03V112.8z"/>
		<path class="st0" d="M136.4,115.52h-1.22v-6.48h1.22v2.52h1.33v-2.52h1.22v6.48h-1.22v-2.87h-1.33V115.52z"/>
		<path class="st0" d="M141.98,113.85h1.13c0,1.18-0.55,1.78-1.65,1.78c-0.69,0-1.16-0.23-1.41-0.68c-0.18-0.34-0.28-0.94-0.28-1.78
			c0-0.75,0.11-1.3,0.33-1.65c0.26-0.41,0.72-0.62,1.36-0.62c1.1,0,1.65,0.61,1.65,1.82v0.69h-2.17v0.47c0,0.65,0.17,0.97,0.51,0.97
			c0.35,0,0.53-0.3,0.53-0.91V113.85z M140.95,112.69h1.02v-0.38c0-0.45-0.17-0.68-0.5-0.68c-0.34,0-0.52,0.3-0.52,0.9V112.69z"/>
		<path class="st0" d="M143.81,112.18v-0.09c0-0.8,0.53-1.2,1.6-1.2c1,0,1.5,0.44,1.5,1.31v2.25c0,0.4,0.03,0.75,0.08,1.06h-1.01
			l-0.09-0.51c-0.23,0.37-0.59,0.55-1.09,0.55c-0.36,0-0.63-0.14-0.83-0.42c-0.18-0.25-0.26-0.58-0.26-0.99
			c0-0.51,0.14-0.88,0.43-1.13c0.33-0.28,0.79-0.42,1.38-0.42h0.36v-0.21c0-0.26-0.02-0.45-0.06-0.56c-0.07-0.19-0.2-0.28-0.39-0.28
			c-0.36,0-0.54,0.21-0.54,0.64H143.81z M145.86,113.28c-0.36,0-0.61,0.04-0.75,0.12c-0.22,0.12-0.33,0.35-0.33,0.7
			c0,0.47,0.15,0.7,0.44,0.7c0.43,0,0.64-0.38,0.64-1.13V113.28z"/>
		<path class="st0" d="M147.73,115.52v-6.48h1.12v6.48H147.73z"/>
		<path class="st0" d="M151.64,115.49c-0.34,0.05-0.62,0.07-0.82,0.07c-0.69,0-1.03-0.4-1.03-1.19v-2.61h-0.53V111h0.53v-0.76
			l1.12-0.55V111h0.72v0.76h-0.72v2.45c0,0.21,0.02,0.35,0.07,0.42c0.06,0.08,0.17,0.13,0.35,0.13c0.05,0,0.14,0,0.25-0.01
			c0.02,0,0.03,0,0.05,0V115.49z"/>
		<path class="st0" d="M153.27,115.52h-1.14v-6.48h1.14v2.43c0.19-0.38,0.49-0.58,0.91-0.58c0.73,0,1.1,0.4,1.1,1.19v3.44h-1.14
			v-3.08c0-0.24-0.02-0.41-0.05-0.5c-0.05-0.18-0.16-0.26-0.33-0.26c-0.32,0-0.49,0.21-0.49,0.64V115.52z"/>
		<path class="st0" d="M157.23,109.04v1.07h-1.14v-1.07H157.23z M157.23,111v4.52h-1.14V111H157.23z"/>
		<path class="st0" d="M160.13,113.85h1.13c0,1.18-0.55,1.78-1.65,1.78c-0.69,0-1.16-0.23-1.41-0.68c-0.18-0.34-0.28-0.94-0.28-1.78
			c0-0.75,0.11-1.3,0.33-1.65c0.26-0.41,0.72-0.62,1.36-0.62c1.1,0,1.65,0.61,1.65,1.82v0.69h-2.17v0.47c0,0.65,0.17,0.97,0.51,0.97
			c0.35,0,0.53-0.3,0.53-0.91V113.85z M159.1,112.69h1.02v-0.38c0-0.45-0.17-0.68-0.5-0.68c-0.34,0-0.52,0.3-0.52,0.9V112.69z"/>
		<path class="st0" d="M161.97,115.52v-4.53h1l0.08,0.59c0.15-0.46,0.49-0.69,1-0.69h0.07v1.1H164c-0.33,0-0.57,0.09-0.7,0.28
			c-0.13,0.17-0.19,0.44-0.19,0.82v2.43H161.97z"/>
		<path class="st0" d="M166.77,115.52v-6.48h1.23v5.34h1.78v1.14H166.77z"/>
		<path class="st0" d="M171.42,109.04v1.07h-1.14v-1.07H171.42z M171.42,111v4.52h-1.14V111H171.42z"/>
		<path class="st0" d="M172.96,115.52l-1.04-4.52h1.17l0.29,1.82c0.08,0.52,0.16,1.18,0.21,1.98c0.06-0.49,0.17-1.11,0.35-1.85
			l0.02-0.1l0.44-1.84h1.1l-1.31,4.52H172.96z"/>
		<path class="st0" d="M178,113.85h1.13c0,1.18-0.55,1.78-1.65,1.78c-0.69,0-1.16-0.23-1.41-0.68c-0.18-0.34-0.28-0.94-0.28-1.78
			c0-0.75,0.11-1.3,0.33-1.65c0.26-0.41,0.72-0.62,1.36-0.62c1.1,0,1.65,0.61,1.65,1.82v0.69h-2.17v0.47c0,0.65,0.17,0.97,0.51,0.97
			c0.35,0,0.53-0.3,0.53-0.91V113.85z M176.97,112.69h1.02v-0.38c0-0.45-0.17-0.68-0.5-0.68c-0.34,0-0.52,0.3-0.52,0.9V112.69z"/>
		<path class="st0" d="M179.68,114.02h1.11v0.09c0,0.48,0.14,0.72,0.41,0.72c0.34,0,0.51-0.15,0.51-0.46c0-0.24-0.26-0.51-0.77-0.81
			l-0.27-0.15c-0.35-0.21-0.58-0.37-0.68-0.48c-0.2-0.21-0.3-0.47-0.3-0.79c0-0.42,0.16-0.74,0.47-0.97c0.27-0.2,0.6-0.29,1-0.29
			c0.99,0,1.49,0.41,1.49,1.23c0,0.02,0,0.04,0,0.07c0,0.03,0,0.06,0,0.07h-1.07c0.01-0.04,0.01-0.08,0.01-0.14
			c0-0.36-0.14-0.54-0.42-0.54c-0.27,0-0.41,0.13-0.41,0.39c0,0.19,0.23,0.43,0.7,0.7c0.2,0.12,0.37,0.22,0.49,0.3
			c0.28,0.19,0.48,0.36,0.6,0.51c0.17,0.21,0.25,0.47,0.25,0.77c0,0.89-0.58,1.34-1.74,1.34c-0.93,0-1.39-0.46-1.39-1.38
			C179.67,114.12,179.67,114.06,179.68,114.02z"/>
		<path class="st0" d="M183.57,115.52v-1.2h0.97v1.2H183.57z"/>
	</g>
	<path class="st1" d="M189.53,89.44c-2.94,0-5.34-2.39-5.34-5.34s2.39-5.34,5.34-5.34s5.34,2.39,5.34,5.34
		S192.47,89.44,189.53,89.44z M189.53,79.86c-2.34,0-4.25,1.9-4.25,4.25s1.9,4.25,4.25,4.25s4.24-1.9,4.24-4.25
		S191.87,79.86,189.53,79.86z"/>
	<g>
		<path class="st1" d="M189.53,79.32c-2.65,0-4.79,2.14-4.79,4.79h9.58C194.32,81.46,192.17,79.32,189.53,79.32z"/>
	</g>
	<g>
		<polygon class="st1" points="203.69,84.06 199.69,78.4 194.65,78.4 201.08,87.5 194.09,97.37 199.14,97.37 203.69,90.93 
			206.12,87.5 		"/>
		<path class="st1" d="M206.07,87.5l6.43-9.09h-5.04l-4,5.66l-2.43,3.43l2.43,3.43l4.56,6.44h5.04L206.07,87.5z M202.26,87.5
			l5.72-8.09h2.59l-5.72,8.09l6.28,8.88h-2.59L202.26,87.5z"/>
	</g>
	<path class="st1" d="M32.47,79.81c-2.88,5.58-5.46,13.6-0.89,18.9c2.79,3,7,4.01,11.04,4.44c0.52,0.05,0.89,0.51,0.84,1.02
		c-0.05,0.51-0.5,0.89-1.01,0.85C26,103.93,23.65,91.61,30.29,78.58C31.11,77.1,33.32,78.33,32.47,79.81L32.47,79.81z"/>
	<path class="st0" d="M65.61,69.63c-0.41,0-0.79-0.25-0.94-0.66c-0.19-0.52,0.08-1.09,0.6-1.28c0.21-0.07,20.59-7.65,18.41-23.55
		c-0.67-4.92-4.64-9.31-11.8-13.06c-0.49-0.26-0.68-0.86-0.42-1.35c0.26-0.49,0.86-0.68,1.35-0.42c7.76,4.07,12.08,8.97,12.85,14.56
		c2.4,17.51-19.49,25.62-19.71,25.7C65.84,69.61,65.72,69.63,65.61,69.63z"/>
	<path class="st0" d="M27.32,46.9c-0.42,0-0.81-0.27-0.95-0.69c-0.05-0.15-4.89-15.41,6.26-27.33c3.71-3.96,8.1-5.82,13.04-5.53
		c7.76,0.46,14.18,6.05,15.63,8.03c0.33,0.44,0.23,1.07-0.21,1.4c-0.44,0.33-1.07,0.23-1.4-0.21c-1.26-1.71-7.18-6.81-14.14-7.22
		c-4.32-0.26-8.18,1.39-11.46,4.9c-10.35,11.06-5.87,25.19-5.82,25.33c0.17,0.52-0.11,1.09-0.64,1.26
		C27.53,46.88,27.42,46.9,27.32,46.9z"/>
	<path class="st2" d="M65.9,70.36c0,0-30.72,5.42-30.73,5.42c-1.02,0.18-2-0.47-2.26-1.45l-7.6-29.42c-0.51-2.1,2.6-2.96,3.23-0.87
		c0,0,8.23,29.25,8.23,29.25l-2.26-1.45l30.8-4.93C67.58,66.59,68.16,69.9,65.9,70.36L65.9,70.36z"/>
	<path class="st2" d="M31.47,81.24c-0.36,0-0.73-0.1-1.05-0.3c-0.94-0.58-1.23-1.82-0.64-2.75l3.38-5.44
		c0.58-0.94,1.82-1.23,2.75-0.64c0.94,0.58,1.23,1.82,0.64,2.75l-3.38,5.44C32.79,80.91,32.14,81.24,31.47,81.24z"/>
	<path class="st0" d="M41.3,53.12c-0.11,0-0.22-0.01-0.32-0.03c-0.54-0.11-0.99-0.47-1.19-0.98c-0.5-1.23-1.07-2.47-1.7-3.69
		c-0.34-0.69-0.69-1.34-1.04-1.95C33.42,40,28.88,34.84,26.5,32.34c-0.19-0.2-0.18-0.52,0.02-0.71c0.2-0.19,0.52-0.18,0.71,0.02
		c2.42,2.53,7.02,7.77,10.69,14.33c0.36,0.62,0.72,1.29,1.06,1.99c0.64,1.24,1.22,2.5,1.73,3.76c0.08,0.19,0.25,0.33,0.46,0.37
		c0.21,0.04,0.41-0.02,0.55-0.16c0.57-0.57,1.02-1.17,1.35-1.79l0.04-0.08c1.1-2.21,0.68-4.6-1.25-7.12
		c-0.62-0.81-1.16-1.68-1.59-2.59c-0.92-1.9-1.48-4.06-1.65-6.42c-0.02-0.28,0.19-0.52,0.46-0.53c0.27-0.02,0.52,0.19,0.53,0.46
		c0.16,2.23,0.68,4.27,1.55,6.06c0.41,0.85,0.91,1.66,1.49,2.41c2.66,3.48,2.25,6.29,1.4,8.07v0L44,50.53
		c-0.38,0.75-0.91,1.46-1.57,2.13C42.13,52.96,41.72,53.12,41.3,53.12z M43.56,50.3L43.56,50.3L43.56,50.3z"/>
	<path class="st0" d="M43.56,50.8c-0.24,0-0.44-0.16-0.49-0.39c-0.85-2.38-2.85-2.26-4.38-1.75c-0.26,0.09-0.55-0.05-0.63-0.31
		c-0.09-0.26,0.05-0.55,0.31-0.63c2.75-0.93,4.81-0.05,5.66,2.41l0.03,0.16C44.06,50.57,43.84,50.8,43.56,50.8z"/>
	<path class="st0" d="M37.48,46.72c-0.15,0-0.29-0.06-0.39-0.18c-0.17-0.21-0.14-0.53,0.07-0.7c0.71-0.58,1.9-1.26,3.51-1.26
		c0.28,0,0.5,0.23,0.5,0.5c0,0.27-0.23,0.5-0.5,0.5c-0.02,0-0.02,0-0.04,0c-1.3,0-2.26,0.56-2.84,1.04
		C37.7,46.68,37.59,46.72,37.48,46.72z"/>
	<path class="st0" d="M49.64,44.35c-0.16,0-0.31-0.07-0.41-0.21c-2.85-4.03-4.82-4.9-5.96-4.91c-1.02,0.03-1.73,0.65-2.15,1.21
		c-0.16,0.22-0.48,0.27-0.7,0.1c-0.22-0.16-0.27-0.48-0.1-0.7c0.55-0.75,1.52-1.64,2.96-1.61c2.01,0.02,4.29,1.82,6.77,5.33
		c0.16,0.23,0.11,0.54-0.12,0.7C49.84,44.32,49.74,44.35,49.64,44.35z"/>
	<path class="st0" d="M54.26,39.13c-0.01,0-0.02,0-0.03,0c-0.28-0.01-0.49-0.25-0.47-0.53c0.43-7.79-4.73-10.64-4.95-10.76
		l-14.03-9.47c-0.23-0.15-0.29-0.47-0.13-0.69c0.15-0.23,0.46-0.29,0.69-0.13l13.99,9.44c0.2,0.1,5.89,3.22,5.43,11.67
		C54.74,38.93,54.52,39.13,54.26,39.13z"/>
	<path class="st0" d="M71.94,53.12c-0.06,0-0.12-0.01-0.18-0.03c-0.24-0.09-5.86-2.33-7.31-4.98c-1.35-2.46-2.22-3.55-6.08-5.2
		c-4.08-1.75-9.03-10.62-9.24-11c-0.13-0.24-0.05-0.55,0.2-0.68c0.24-0.13,0.55-0.05,0.68,0.2c0.05,0.09,4.99,8.95,8.76,10.57
		c4.12,1.76,5.16,3.07,6.57,5.64c1.28,2.33,6.74,4.51,6.8,4.53c0.26,0.1,0.38,0.39,0.28,0.65C72.33,53,72.14,53.12,71.94,53.12z"/>
	<path class="st0" d="M69.55,67.7c-0.08,0.03-0.17,0.03-0.26,0.03c-0.16,0-0.32,0-0.46-0.07c-0.18-0.09-0.28-0.29-0.41-0.44
		c-0.24-0.27-0.49-0.54-0.74-0.81c-1.17-1.3-2.35-2.6-3.52-3.89C63.08,61.34,62,60.16,60.9,59l-0.4-0.42
		c-0.05-0.01-0.11-0.01-0.17-0.02c-0.85-0.08-3.9-0.49-6.75-2.41c-0.56,0.29-2.07,1.23-3.72,3.5c-0.2,0.27-0.52,0.4-0.85,0.36
		c-0.32-0.04-0.58-0.24-0.69-0.54c-0.29-0.73-0.56-1.89-0.17-3.21c0.41-1.45,1.51-2.73,3.27-3.82c0.23-0.15,0.54-0.07,0.69,0.16
		c0.14,0.24,0.07,0.54-0.16,0.69c-1.54,0.95-2.49,2.04-2.83,3.24c-0.27,0.94-0.13,1.77,0.07,2.36c2.21-2.98,4.19-3.75,4.27-3.79
		l0.23-0.09l0.61,0.4c2.6,1.7,5.36,2.07,6.15,2.14c0.18,0.03,0.27,0.03,0.29,0.03l0.21,0l0.69,0.71c0.61,0.65,1.22,1.3,1.82,1.96
		c1.17,1.27,2.32,2.54,3.48,3.82c0.52,0.58,1.04,1.15,1.56,1.73c0.43,0.47,0.94,0.93,1.22,1.5c0.02,0.05,0.04,0.09,0.04,0.15
		c0,0.1-0.08,0.19-0.17,0.22C69.57,67.69,69.56,67.7,69.55,67.7z"/>
	<path class="st0" d="M64.53,51.82c-1.25,1.35-2.17,3.01-2.57,4.79c-0.14,0.58-0.15,1.17-0.16,1.75c0,0.38-0.36,0.68-0.73,0.6
		c-0.35-0.1-0.5-0.27-0.65-0.43c-0.72-0.84-0.65-2.45-0.22-3.3c0.21,0.83,0.18,1.95,0.98,2.46c0.05,0.03,0.19,0.06,0.11,0.01
		l-0.77,0.59c0.36-2.61,1.83-5.01,3.88-6.62C64.5,51.6,64.62,51.74,64.53,51.82L64.53,51.82z"/>
	<path class="st0" d="M54.98,46.41c-0.17,0-0.27-0.01-0.29-0.01c-0.27-0.04-0.47-0.29-0.43-0.56c0.04-0.27,0.28-0.47,0.56-0.43l0,0
		c0.06,0.01,1.54,0.16,2.77-1.27c0.64-0.76,1.62-1.19,2.91-1.27c0.29-0.01,0.51,0.19,0.53,0.46c0.02,0.28-0.19,0.51-0.46,0.53
		c-1.01,0.07-1.75,0.38-2.21,0.92C57.09,46.24,55.6,46.41,54.98,46.41z"/>
	<path class="st3" d="M56.53,42.92"/>
	<path class="st1" d="M241.02,103.73c-0.19-0.75-1.15-0.94-1.92-0.99c-1.83-0.11-3.68-0.23-5.5,0.02s-3.64,0.87-5.02,2.08
		c-1.81,1.58-2.43,3.92-2.35,6.25c0.02,0.54,0.1,3.83-1.12,3.18c-0.59-0.31-0.58-1.87-0.6-2.44c-0.03-0.88-0.06-1.76-0.09-2.64
		c-0.06-1.72-0.12-3.44-0.18-5.15c-0.12-3.48-0.24-6.96-0.36-10.44c-0.05-1.59-0.11-3.18-0.17-4.77c0-1.05-0.11-2.09-0.12-3.14
		c-0.02-1.8,0.17-3.6,0.17-5.4c-0.04-0.86-0.21-2.03-1.17-2.33c-1.49-0.47-2.57,2-2.91,3.07c-0.5,1.58-0.52,3.26-0.71,4.89
		c-0.3,2.72-0.43,5.45-0.42,8.18c0.01,2.06,0.64,4.79-0.7,6.55c-0.72,0.94-1.79,1.57-2.93,1.93c-1.9,0.6-4.11,0.72-6.05,0.24
		c-1.32-0.32-2.22-0.8-3.22-1.72c-0.63-0.59-1.39-1.18-2.26-1.14c-1.36,0.06-2.16,1.46-3.36,1.91c-1.4,0.52-3.01,0.14-4.34,0.96
		c-1.87,1.16-2.27,3.93-2.66,5.89c-0.15,0.74-0.17,2.43-0.68,3.02c-1.12,1.28-0.94-2-0.93-2.55c0.02-1.43,0.03-2.86,0.05-4.29
		c0.03-2.93,0.03-5.86-0.11-8.79c-0.04-0.83-0.18-1.8-0.91-2.21c-0.36-0.2-0.82-0.21-1.19-0.01c-1.52,0.79-1.68,3.71-2.43,5.09
		c-0.62,1.14-1.64,1.96-2.8,2.52c-1.28,0.61-2.64,1.11-4.08,1.1c-0.18,0-0.37,0-0.55,0c-0.51,0-1.03,0-1.54,0c-0.7,0-1.4,0-2.1,0
		c-0.87,0-1.75,0-2.62,0c-1.03,0-2.07,0-3.1,0c-1.18,0-2.36,0-3.54,0c-1.32,0-2.63,0-3.95,0c-1.44,0-2.88,0-4.31,0
		c-1.55,0-3.1,0-4.64,0c-1.64,0-3.29,0-4.93,0c-1.73,0-3.46,0-5.19,0c-1.8,0-3.6,0-5.4,0c-1.86,0-3.72,0-5.58,0
		c-1.9,0-3.81,0-5.71,0c-1.94,0-3.88,0-5.81,0c-1.96,0-3.92,0-5.87,0c-1.97,0-3.93,0-5.9,0c-1.96,0-3.92,0-5.88,0
		c-1.94,0-3.89,0-5.83,0c-1.91,0-3.83,0-5.74,0c-1.87,0-3.74,0-5.61,0c-1.82,0-3.63,0-5.45,0c-1.75,0-3.49,0-5.24,0
		c-1.67,0-3.33,0-5,0c-1.57,0-3.14,0-4.72,0c-1.47,0-2.93,0-4.4,0c-1.35,0-2.69,0-4.04,0c-1.21,0-2.43,0-3.64,0
		c-1.07,0-2.14,0-3.21,0c-0.91,0-1.83,0-2.74,0c-0.74,0-1.49,0-2.23,0c-0.56,0-1.12,0-1.68,0c-0.37,0-0.73,0-1.1,0
		c-0.16,0-0.31,0-0.49,0c-0.83,0-1.5,0.67-1.5,1.5s0.67,1.5,1.5,1.5c0.11,0,0.22,0,0.33,0c0.32,0,0.64,0,0.96,0
		c0.52,0,1.03,0,1.55,0c0.7,0,1.4,0,2.11,0c0.87,0,1.75,0,2.62,0c1.03,0,2.07,0,3.1,0c1.18,0,2.36,0,3.54,0c1.31,0,2.63,0,3.94,0
		c1.44,0,2.87,0,4.31,0c1.55,0,3.09,0,4.64,0c1.64,0,3.28,0,4.92,0c1.73,0,3.45,0,5.18,0c1.8,0,3.59,0,5.39,0c1.85,0,3.71,0,5.56,0
		c1.9,0,3.8,0,5.7,0c1.93,0,3.87,0,5.8,0c1.95,0,3.91,0,5.86,0c1.96,0,3.92,0,5.88,0c1.96,0,3.91,0,5.87,0c1.94,0,3.88,0,5.81,0
		c1.91,0,3.81,0,5.72,0c1.86,0,3.73,0,5.59,0c1.81,0,3.62,0,5.43,0c1.74,0,3.48,0,5.22,0c1.66,0,3.32,0,4.98,0c1.57,0,3.13,0,4.7,0
		c1.46,0,2.92,0,4.38,0c1.34,0,2.68,0,4.02,0c1.21,0,2.42,0,3.63,0c1.06,0,2.13,0,3.19,0c0.91,0,1.81,0,2.72,0c0.74,0,1.48,0,2.21,0
		c0.56,0,1.11,0,1.67,0c0.73,0,1.45,0.01,2.17,0c1.32,0,2.6-0.13,3.85-0.57c1.04-0.37,2.2-0.7,3.23-0.29
		c1.97,0.77,1.63,3.39,1.74,5.08c0.13,2,0.05,4.01,0.28,6c0.41,3.62,0.79,7.77,2.91,10.86c1.35,1.97,1.77-1.76,1.84-2.69
		c0.13-2-0.04-4.02,0.2-6.02c0.4-3.32,1.14-6.58,1.98-9.81c0.2-0.78,0.44-1.57,0.92-2.23c0.7-0.97,2.13-1.42,3.27-1.22
		c2.35,0.42,2.68,2.61,2.63,4.64c-0.04,1.65-0.33,3.47,0.16,5.08c0.42,1.37,1.87,1.84,2.58,0.4c0.42-0.85,0.15-2.21,0.29-3.17
		c0.17-1.1,0.46-2.2,1.14-3.1c0.91-1.21,2.26-1.73,3.56-2.38c1.4-0.69,3.08-0.55,4.61-0.78c1.1-0.17,2.12-0.62,2.96-1.35
		c0.54-0.47,1.36-2.32,1.93-2.47c1.14-0.25,0.94,2.78,0.94,3.34c-0.02,1.93-0.2,3.83-0.07,5.76c0.34,4.92,1.53,9.82,3.43,14.37
		c0.26,0.61,0.72,1.33,1.37,1.22c0.64-0.11,0.85-0.92,0.91-1.57c0.39-3.86,0.79-7.72,1.18-11.57c0.24-2.34,0.65-4.99,2.61-6.29
		c2.45-1.63,5.93-0.21,8.59-1.47C240.56,105.04,241.19,104.41,241.02,103.73z"/>
	<path class="st0" d="M53.85,56.23c-0.21,0-0.39-0.13-0.47-0.31c-0.64-1.14-1.32-2.04-2.04-2.68c-0.13-0.12-0.26-0.23-0.4-0.32
		c-0.23-0.16-0.28-0.47-0.13-0.7c0.16-0.23,0.47-0.28,0.7-0.13c0.18,0.12,0.35,0.26,0.51,0.41c0.81,0.71,1.58,1.72,2.28,2.98
		l0.06,0.11v0.13C54.35,56,54.13,56.23,53.85,56.23z"/>
	<path class="st0" d="M51.22,53.03c-0.25,0-0.46-0.19-0.5-0.44c0-0.04-0.44-3.64-0.25-4.81c0.28-1.8,1.18-2.23,1.88-2.28
		c0.29-0.01,0.51,0.19,0.53,0.46c0.02,0.28-0.19,0.51-0.46,0.53c-0.19,0.01-0.75,0.05-0.96,1.44c-0.12,0.8,0.12,3.45,0.26,4.54
		c0.03,0.27-0.16,0.52-0.44,0.56C51.26,53.03,51.24,53.03,51.22,53.03z"/>
	<path class="st0" d="M48.62,56.89c-0.18,0-0.35-0.09-0.44-0.26c-0.37-0.67-0.8-1.7-0.72-2.74c0.09-1.21,1.36-2.47,3.1-3.06
		c0.26-0.09,0.55,0.05,0.63,0.31c0.09,0.26-0.05,0.55-0.31,0.63c-1.45,0.5-2.37,1.5-2.42,2.19c-0.06,0.84,0.35,1.73,0.6,2.18
		c0.13,0.24,0.05,0.55-0.2,0.68C48.78,56.87,48.7,56.89,48.62,56.89z"/>
	<path class="st0" d="M47.96,54.43c-0.18,0-0.35-0.09-0.44-0.26C46.87,52.97,46,50.7,47.46,49c0.69-0.82,1.81-1.35,3.42-1.64
		c0.27-0.05,0.53,0.13,0.58,0.41s-0.13,0.53-0.41,0.58c-1.35,0.24-2.3,0.67-2.83,1.3c-1.07,1.24-0.35,3.06,0.18,4.04
		c0.13,0.24,0.04,0.55-0.2,0.68C48.12,54.41,48.04,54.43,47.96,54.43z"/>
	<path class="st0" d="M47.84,49.83c-0.25,0-0.46-0.18-0.5-0.43c-0.36-2.63,0.22-4.38,1.6-4.81c0.93-0.29,2.14,0.03,3.71,0.98
		l0.09,0.07c0.23,0.15,0.29,0.46,0.14,0.69c-0.15,0.23-0.46,0.28-0.68,0.14c-0.02-0.01-0.04-0.03-0.07-0.04l0,0
		c-1.61-0.97-2.46-1.02-2.89-0.88c-1.26,0.39-1.01,2.94-0.9,3.71c0.04,0.27-0.15,0.53-0.43,0.56
		C47.88,49.83,47.86,49.83,47.84,49.83z"/>
	<path class="st0" d="M49.09,45.57c-0.03,0-0.05,0-0.08-0.01c-0.27-0.04-0.46-0.3-0.41-0.57c0.09-0.55,0.32-1.06,0.66-1.46
		c0.84-1.02,2.33-1.39,4.41-1.1c1.21,0.17,2.28-0.2,3.28-1.11c0.2-0.19,0.52-0.17,0.71,0.03c0.19,0.2,0.17,0.52-0.03,0.71
		c-1.22,1.12-2.6,1.58-4.1,1.37c-1.69-0.23-2.9,0.03-3.51,0.75c-0.23,0.27-0.38,0.6-0.44,0.98C49.54,45.4,49.33,45.57,49.09,45.57z"
		/>
	<circle cx="70.87" cy="30.38" r="2.98"/>
	<circle cx="60.72" cy="23.38" r="2.76"/>
</g>
</svg>
