<svg width="64" height="64" viewBox="0 0 64 64" fill="none" xmlns="http://www.w3.org/2000/svg">
<path d="M32 56C45.2548 56 56 45.2548 56 32C56 18.7452 45.2548 8 32 8C18.7452 8 8 18.7452 8 32C8 45.2548 18.7452 56 32 56Z" fill="url(#paint0_linear_1_2)"/>
<path d="M42.8199 25.4C42.0599 24.11 40.8599 23.14 39.4199 22.67C37.9799 22.2 36.4199 22.26 35.0199 22.84L31.9999 24.21L28.9799 22.84C26.8399 21.9 24.3599 22.21 22.6799 23.68C20.9999 25.15 20.1599 27.38 20.5199 29.58L22.5599 41.83C22.8699 43.72 24.3199 45.2 26.2199 45.55C26.5499 45.61 26.8799 45.64 27.2199 45.64C28.7599 45.64 30.2099 44.85 30.9799 43.53L31.9999 41.72L33.0199 43.53C33.7899 44.85 35.2399 45.64 36.7799 45.64C37.1199 45.64 37.4499 45.61 37.7799 45.55C39.6799 45.2 41.1299 43.72 41.4399 41.83L43.4799 29.58C43.8499 27.38 43.0199 25.15 41.3399 23.68C41.3399 23.68 41.3399 23.68 41.3299 23.69C42.0599 24.11 42.5599 24.71 42.8199 25.4Z" fill="white"/>
<defs>
<linearGradient id="paint0_linear_1_2" x1="8" y1="8" x2="56" y2="56" gradientUnits="userSpaceOnUse">
<stop stop-color="#10B981"/>
<stop offset="1" stop-color="#EF4444"/>
</linearGradient>
</defs>
</svg>