<?xml version="1.0" encoding="utf-8"?>
<!-- Generator: Adobe Illustrator 27.9.0, SVG Export Plug-In . SVG Version: 6.00 Build 0)  -->
<svg version="1.1" id="Layer_1" xmlns="http://www.w3.org/2000/svg" xmlns:xlink="http://www.w3.org/1999/xlink" x="0px" y="0px"
	 viewBox="0 0 922.1 540.22" style="enable-background:new 0 0 922.1 540.22;" xml:space="preserve">
<g>
	<circle style="fill:none;stroke:#E30011;stroke-width:8;stroke-miterlimit:10" cx="250.57" cy="266.58" r="180.21"/>
	<path style="fill:#000300" d="M226.46,225.92c-0.15-0.72-0.3-1.44-0.47-2.19c-0.08-0.36-0.17-0.72-0.27-1.1l-3.64-2.12
		c-0.37,0.1-0.74,0.21-1.1,0.31c-0.74,0.22-1.44,0.44-2.13,0.67c-0.19,0.06-0.4,0.12-0.59,0.19l8.33,4.85
		C226.55,226.33,226.5,226.12,226.46,225.92z"/>
	<path style="fill:#000300" d="M214.36,223.15c-0.96,0.4-1.86,0.83-2.72,1.27c-0.04,0.02-0.08,0.04-0.12,0.06c-0.13,0.06-0.25,0.13-0.38,0.2
		l16.34,9.51c0-0.13,0-0.28-0.01-0.43c0-0.04-0.01-0.08-0.01-0.12c-0.05-0.97-0.13-1.96-0.24-2.99l-0.74-0.43l-11.33-6.6
		L214.36,223.15z"/>
	<path style="fill:#000300" d="M207.91,226.52c-0.8,0.5-1.53,1.02-2.24,1.56c-0.13,0.1-0.29,0.19-0.41,0.29l21.91,12.76
		c0.02-0.16,0.03-0.34,0.05-0.5c0.11-0.88,0.21-1.77,0.25-2.71l-0.08-0.05l-19.4-11.3L207.91,226.52z"/>
	<path style="fill:#000300" d="M202.49,230.78c-0.56,0.54-1.07,1.09-1.57,1.66c-0.1,0.12-0.23,0.23-0.33,0.35l25.03,14.58
		c0.05-0.15,0.09-0.31,0.14-0.46c0.25-0.71,0.47-1.43,0.67-2.18c0.02-0.08,0.05-0.16,0.07-0.24l-23.84-13.88
		C202.6,230.66,202.55,230.72,202.49,230.78z"/>
	<path style="fill:#000300" d="M223.07,252.52c0.18-0.29,0.37-0.58,0.54-0.87l0.02-0.04c0.18-0.29,0.33-0.6,0.49-0.9
		c0.06-0.12,0.14-0.24,0.2-0.36l-25.68-14.95c-0.08,0.12-0.15,0.24-0.22,0.36c-0.18,0.29-0.37,0.58-0.54,0.87l-0.02,0.04
		c-0.17,0.29-0.33,0.6-0.49,0.9c-0.06,0.12-0.13,0.23-0.2,0.36l25.68,14.95C222.93,252.75,222.99,252.63,223.07,252.52z"/>
	<path style="fill:#000300" d="M195.04,262.35c0.15,0.72,0.29,1.43,0.47,2.18c0.08,0.36,0.17,0.72,0.27,1.1l3.64,2.12
		c0.37-0.1,0.74-0.21,1.1-0.31c0.73-0.22,1.43-0.44,2.12-0.67c0.2-0.06,0.41-0.12,0.6-0.19l-8.33-4.85
		C194.94,261.94,194.99,262.15,195.04,262.35z"/>
	<path style="fill:#000300" d="M207.12,265.11c0.97-0.4,1.87-0.83,2.74-1.27c0.04-0.02,0.08-0.04,0.12-0.05c0.12-0.06,0.25-0.13,0.37-0.19
		L194,254.09c0,0.14,0.01,0.28,0.02,0.42c0,0.04,0.01,0.08,0.01,0.12c0.05,0.97,0.12,1.97,0.25,3l0.72,0.42l11.36,6.61
		L207.12,265.11z"/>
	<path style="fill:#000300" d="M213.58,261.74c0.06-0.04,0.11-0.08,0.17-0.11c0.06-0.69,0.26-1.34,0.59-1.94c-0.09-0.06-0.17-0.14-0.25-0.2
		c-1.38-0.96-2.92-1.65-4.57-2.05c-1.08-0.26-1.88-1.13-2.12-2.17c-0.04-0.18-0.04-0.37-0.05-0.56l-13.01-7.58
		c-0.02,0.16-0.03,0.34-0.05,0.5c-0.11,0.88-0.21,1.77-0.25,2.71l0.1,0.06l19.38,11.28L213.58,261.74z"/>
	<path style="fill:#000300" d="M214.08,252.04c0.53,0.1,1.06,0.23,1.58,0.39l-19.79-11.52c-0.05,0.14-0.09,0.3-0.14,0.45
		c-0.25,0.71-0.48,1.43-0.67,2.18c-0.02,0.08-0.05,0.16-0.07,0.24l14.07,8.19c0.2-0.09,0.43-0.12,0.65-0.15
		c0.11-0.02,0.21-0.07,0.33-0.08c0.28-0.01,0.55-0.02,0.82-0.02C211.93,251.72,213.01,251.83,214.08,252.04z"/>
	<path style="fill:#000300" d="M196.28,304.87l-0.56-0.32l-30.04-17.49l-1.56-0.91c-1.15,0.32-2.25,0.69-3.29,1.1l-0.16,0.28l36.41,21.2
		l0.85,0.5c-0.16-1.24-0.4-2.5-0.72-3.81L196.28,304.87z"/>
	<path style="fill:#000300" d="M173.5,284.47c-1.35,0.14-2.68,0.32-4,0.53c-0.14,0.02-0.29,0.03-0.43,0.06c-0.1,0.02-0.2,0.03-0.29,0.05
		l26,15.14l1.05,0.61c-0.04-0.1-0.07-0.19-0.1-0.29c-0.05-0.13-0.11-0.26-0.16-0.39c-0.47-1.26-0.97-2.5-1.52-3.75l-1.15-0.67
		l-1.35-0.78l-15.47-9.01L173.5,284.47z"/>
	<path style="fill:#000300" d="M189.2,286.48l-1.22-0.71l-3.41-1.99c-1.54,0.06-3.04,0.13-4.53,0.21c-0.28,0.01-0.58,0.02-0.86,0.04
		l11.26,6.55l1.22,0.71c-0.12-0.25-0.26-0.51-0.39-0.77C190.59,289.19,189.9,287.85,189.2,286.48z"/>
	<path style="fill:#000300" d="M184.92,270.44c2.72-0.43,6.33-0.93,8.77-1.39c-0.05-0.18-0.1-0.37-0.15-0.55c-0.76-2.57-1.4-5.41-1.84-8.22
		c-0.01-0.08-0.03-0.16-0.04-0.25c-0.22-1.44-0.41-2.86-0.5-4.21c-0.07-1.1-0.09-2.2-0.09-3.29c0-0.22,0.01-0.44,0.01-0.66
		c0.03-2.2,0.21-4.38,0.58-6.51c0.06-0.32,0.13-0.64,0.19-0.97c0.4-1.94,0.97-3.84,1.72-5.66c0.14-0.33,0.26-0.67,0.42-1
		c0.4-0.87,0.84-1.73,1.34-2.56c0.47-0.81,1.04-1.54,1.58-2.29c0.24-0.34,0.46-0.7,0.71-1.03c1.21-1.55,2.56-2.95,4.02-4.24
		c0.26-0.23,0.54-0.44,0.81-0.67c1.67-1.39,3.43-2.66,5.32-3.75c0.13-0.08,0.26-0.17,0.39-0.25c0.04-0.02,0.08-0.04,0.12-0.06
		c2.16-1.23,4.49-2.28,6.87-3.19c0.07-0.03,0.13-0.06,0.2-0.08c2.67-1.01,5.42-1.83,8.14-2.47c0.17-0.04,0.33-0.09,0.5-0.13
		c-0.66-1.93-2.28-6.1-3.12-8.33c-5.27,0.87-10.14,2.3-14.86,4.39c-8.04,3.59-15.03,9.21-19.55,16.93
		c-4.45,7.7-5.94,16.56-5.07,25.35C181.91,260.27,182.99,265.11,184.92,270.44z"/>
	<path style="fill:#000300" d="M198.7,282.83c-1.67,0.27-4.91,0.52-7.15,0.64c-0.08,0.01-0.16,0.01-0.25,0.01c-0.11,0.01-0.23,0.01-0.34,0.02
		c1.46,2.85,2.92,5.67,4.29,8.54c0.18,0.37,0.34,0.74,0.51,1.11c0.98,2.1,1.91,4.21,2.72,6.4c0.3,0.81,0.57,1.63,0.83,2.46
		c0.05,0.16,0.1,0.32,0.14,0.48c0.77,2.56,1.33,5.17,1.55,7.85c0.02,0.28,0.01,0.56,0.03,0.83c0.18,3.44-0.2,6.97-1.25,10.46
		c2.14-3.28,3.56-7.16,4.06-11.2c0.54-4.05,0.22-8.19-0.53-12.18C202.31,292.98,200.58,287.84,198.7,282.83z"/>
	<path style="fill:#000300" d="M259.22,203.09c-0.04,0.02-0.08,0.03-0.12,0.04l0.08,0.04L259.22,203.09z"/>
	<path style="fill:#000300" d="M166.01,282.7c3.07-0.67,6.26-1.09,9.47-1.36c0.43-0.03,0.85-0.06,1.28-0.09c3.21-0.23,6.43-0.35,9.53-0.47
		c0.14-0.01,0.3-0.01,0.44-0.02c0.61-0.03,1.24-0.05,1.89-0.08c3.46-0.15,7.43-0.38,11.79-1.09c4.1-0.66,8.54-1.79,13.27-3.7v-10.48
		v-0.29v-0.06c-0.17,0.1-0.35,0.21-0.52,0.31c-0.95,0.54-1.92,1.06-2.92,1.55c-1.33,0.64-2.64,1.18-3.95,1.69
		c-0.05,0.02-0.1,0.04-0.15,0.06c-2.74,1.04-5.45,1.82-8.16,2.45c-4.85,1.12-9.73,1.77-14.93,2.58c-9.13,1.45-19.17,3.56-26.55,9.15
		c-3.28,2.44-5.95,5.59-7.74,9.06c2.61-2.73,5.62-4.87,8.84-6.42c0.13-0.06,0.25-0.14,0.38-0.2c2.39-1.11,4.96-1.9,7.62-2.51
		C165.73,282.76,165.87,282.73,166.01,282.7z"/>
	<path style="fill:#000300" d="M225.5,212.55c0.9,2.33,1.68,4.71,2.39,7.11c0.8,2.74,1.47,5.52,1.91,8.34c0.01,0.08,0.02,0.16,0.03,0.23
		c0.21,1.4,0.41,2.8,0.51,4.22c0.1,1.11,0.13,2.23,0.13,3.35c0,0.17-0.01,0.35-0.01,0.52c-0.02,2.21-0.21,4.43-0.62,6.6
		c-0.06,0.31-0.13,0.62-0.2,0.93c-0.41,1.93-0.99,3.8-1.73,5.61c-0.15,0.36-0.29,0.73-0.45,1.08c-0.4,0.87-0.83,1.72-1.31,2.55
		c-0.49,0.84-1.02,1.64-1.57,2.41c-0.22,0.31-0.46,0.59-0.69,0.89c-0.12,0.15-0.23,0.31-0.35,0.45c0.18,0.15,0.37,0.31,0.55,0.47
		c2.19,1.93,4.16,4.17,6.01,6.43c0.16,0.2,0.31,0.39,0.47,0.58c1.67-1.87,3.17-3.88,4.45-6.07c4.47-7.73,5.95-16.54,5.07-25.36
		c-0.85-8.61-3.41-15.93-7.21-23.58c-3.62-7.28-7.31-13.72-9.84-20.62c-2.73-7.45-3.59-14.48-1.31-22.07
		c-4.57,7.03-5.07,15.1-3.53,23.37C219.66,197.81,222.7,205.12,225.5,212.55z"/>
	<path style="fill:#000300" d="M281.98,220.15c-0.19-0.07-0.4-0.13-0.59-0.2c-0.69-0.24-1.38-0.47-2.12-0.71c-0.36-0.11-0.72-0.23-1.09-0.33
		l-0.99,0.56l-2.69,1.51c-0.1,0.37-0.2,0.73-0.29,1.09c-0.19,0.75-0.35,1.47-0.51,2.18c-0.04,0.2-0.1,0.41-0.14,0.6l7.48-4.19
		L281.98,220.15z"/>
	<path style="fill:#000300" d="M272.58,231.95c0,0.04-0.01,0.08-0.01,0.12c-0.01,0.15-0.02,0.3-0.02,0.43l15.66-8.77l0.83-0.47
		c-0.12-0.07-0.25-0.14-0.37-0.2c-0.04-0.02-0.08-0.04-0.12-0.06c-0.85-0.45-1.75-0.9-2.7-1.31l-0.8,0.45l-0.09,0.05l-11.36,6.36
		l-0.73,0.41C272.74,229.99,272.64,230.98,272.58,231.95z"/>
	<path style="fill:#000300" d="M272.7,238.95c0.02,0.16,0.02,0.34,0.04,0.5l21.37-11.97l0.75-0.42c-0.13-0.1-0.28-0.19-0.41-0.3
		c-0.7-0.54-1.42-1.08-2.21-1.59l-0.08,0.04l-0.73,0.41l-18.88,10.57l-0.07,0.04C272.52,237.18,272.6,238.07,272.7,238.95z"/>
	<path style="fill:#000300" d="M274.04,245.25c0.05,0.15,0.08,0.31,0.13,0.46l24.54-13.74l0.73-0.41c-0.1-0.12-0.22-0.23-0.32-0.35
		c-0.49-0.57-0.99-1.14-1.54-1.68c-0.06-0.06-0.11-0.12-0.17-0.18l-0.7,0.39l-23.38,13.09c0.02,0.08,0.05,0.16,0.07,0.24
		C273.6,243.81,273.81,244.54,274.04,245.25z"/>
	<path style="fill:#000300" d="M276.1,249.99l0.02,0.04c0.17,0.3,0.35,0.59,0.52,0.88c0.07,0.12,0.14,0.24,0.21,0.36l25.25-14.14l0.68-0.38
		c-0.06-0.12-0.13-0.24-0.19-0.36c-0.16-0.31-0.31-0.61-0.48-0.91l-0.02-0.04c-0.17-0.3-0.35-0.59-0.52-0.88
		c-0.07-0.12-0.14-0.25-0.22-0.36l-0.73,0.41l-25.2,14.11c0.06,0.13,0.13,0.24,0.19,0.37C275.78,249.38,275.93,249.69,276.1,249.99z
		"/>
	<path style="fill:#000300" d="M296.24,265.31c0.19,0.07,0.4,0.13,0.6,0.2c0.69,0.24,1.38,0.47,2.11,0.7c0.36,0.11,0.72,0.23,1.09,0.33
		l2.7-1.51l0.97-0.55c0.11-0.38,0.2-0.73,0.29-1.1c0.19-0.74,0.35-1.46,0.5-2.17c0.04-0.2,0.1-0.41,0.14-0.61l-0.91,0.51
		L296.24,265.31z"/>
	<path style="fill:#000300" d="M305.65,253.51c0-0.04,0.01-0.08,0.01-0.12c0.01-0.15,0.02-0.29,0.02-0.42l-0.82,0.46l-15.68,8.78
		c0.11,0.07,0.24,0.13,0.36,0.2c0.04,0.02,0.08,0.04,0.12,0.06c0.86,0.45,1.75,0.89,2.71,1.31l0.77-0.43l11.35-6.35l0.14-0.08
		l0.71-0.4C305.49,255.48,305.58,254.49,305.65,253.51z"/>
	<path style="fill:#000300" d="M305.52,246.52c-0.02-0.16-0.02-0.34-0.04-0.5l-0.76,0.42l-14.07,7.88c0,0.02,0.01,0.03,0.01,0.04
		c0.02,0.17-0.03,0.33-0.04,0.5c-0.1,1.22-0.94,2.29-2.16,2.58c-1.46,0.35-2.78,0.93-4.04,1.73c0.51,0.38,1,0.76,1.55,1.12
		l0.09-0.05l18.86-10.56l0.72-0.4l0.08-0.05C305.7,248.29,305.62,247.39,305.52,246.52z"/>
	<path style="fill:#000300" d="M287.1,251.72c0.2,0,0.4,0.01,0.6,0.01c0.07,0,0.15,0,0.22,0.01c0.18,0.01,0.33,0.08,0.5,0.12l15.73-8.81
		l0.72-0.4c-0.02-0.08-0.05-0.16-0.07-0.24c-0.18-0.76-0.4-1.48-0.64-2.2c-0.05-0.15-0.08-0.31-0.13-0.45l-0.68,0.38l-24.38,13.65
		c1.11-0.57,2.23-1.02,3.36-1.36C283.92,251.96,285.51,251.72,287.1,251.72z"/>
	<path style="fill:#000300" d="M335.01,285.53l-1.57,0.88l-30.35,16.99l-0.54,0.3l-0.96,0.54c-0.34,1.3-0.6,2.56-0.78,3.79l0.86-0.48
		l36.76-20.58l-0.16-0.28C337.25,286.26,336.16,285.87,335.01,285.53z"/>
	<path style="fill:#000300" d="M306.08,294.66l-1.16,0.65c-0.57,1.23-1.09,2.47-1.58,3.72c-0.05,0.13-0.12,0.26-0.17,0.39
		c-0.04,0.1-0.07,0.19-0.11,0.29l1.06-0.6l26.25-14.7c-0.1-0.02-0.2-0.03-0.29-0.06c-0.14-0.03-0.29-0.04-0.43-0.06
		c-1.32-0.23-2.64-0.44-3.99-0.6l-2.6,1.46l-15.64,8.76L306.08,294.66z"/>
	<path style="fill:#000300" d="M314.62,282.82l-3.44,1.93l-1.23,0.69c-0.73,1.35-1.44,2.68-2.13,4.01c-0.13,0.25-0.27,0.51-0.4,0.76
		l1.23-0.69l11.37-6.36c-0.28-0.02-0.57-0.04-0.86-0.05C317.65,283.01,316.16,282.91,314.62,282.82z"/>
	<path style="fill:#000300" d="M276.3,215.39c0.16,0.04,0.33,0.1,0.49,0.14c2.7,0.68,5.44,1.55,8.09,2.6c0.07,0.03,0.13,0.06,0.2,0.09
		c2.37,0.95,4.67,2.04,6.81,3.3c0.04,0.02,0.09,0.04,0.13,0.07c0.13,0.08,0.25,0.16,0.38,0.24c1.91,1.15,3.73,2.45,5.4,3.9
		c0.22,0.19,0.44,0.39,0.65,0.59c1.46,1.33,2.81,2.79,4,4.38c0.23,0.3,0.45,0.61,0.67,0.92c0.54,0.78,1.06,1.58,1.53,2.41
		c0.49,0.84,0.91,1.7,1.3,2.58c0.15,0.33,0.27,0.67,0.4,1.01c0.72,1.83,1.26,3.74,1.63,5.69c0.06,0.32,0.13,0.64,0.18,0.97
		c0.34,2.14,0.47,4.33,0.47,6.52c0,0.22,0,0.44,0,0.66c-0.02,1.1-0.06,2.2-0.14,3.29c-0.12,1.35-0.33,2.77-0.57,4.2
		c-0.01,0.08-0.03,0.16-0.04,0.24c-0.49,2.79-1.17,5.62-1.98,8.18c-0.06,0.18-0.1,0.37-0.16,0.55c2.44,0.5,6.03,1.06,8.75,1.54
		c2.02-5.29,3.19-10.11,3.76-15.02c1.02-8.78-0.32-17.66-4.64-25.43c-4.39-7.8-11.28-13.54-19.26-17.26
		c-4.69-2.17-9.53-3.68-14.79-4.65C278.68,209.34,277,213.47,276.3,215.39z"/>
	<path style="fill:#000300" d="M235.51,203.1c4.24,3.32,9.56,5.56,14.73,7.02c3.87,1.12,7.79,1.9,11.66,2.58c0.13-0.3,0.25-0.59,0.38-0.87
		c0.9-2.06,1.96-4.19,3-6.17c-3.42-0.19-8.05-0.44-11.6-0.82c-5.77-0.61-11.47-1.65-16.64-4.16c-3.34-1.62-6.44-3.89-9.1-6.77
		C229.66,197.41,232.28,200.61,235.51,203.1z"/>
	<path style="fill:#000300" d="M303.79,290.9c1.42-2.84,2.92-5.64,4.43-8.47c-0.11-0.01-0.23-0.02-0.34-0.02c-0.08-0.01-0.16-0.01-0.25-0.02
		c-2.24-0.16-5.48-0.47-7.14-0.76c-1.96,4.98-3.78,10.08-4.88,15.34c-0.81,3.97-1.2,8.11-0.73,12.17c0.43,4.05,1.78,7.95,3.87,11.27
		c-0.99-3.5-1.3-7.04-1.07-10.48c0.02-0.28,0.02-0.56,0.04-0.83c0.27-2.67,0.87-5.28,1.68-7.82c0.05-0.16,0.1-0.32,0.15-0.48
		c0.27-0.82,0.56-1.64,0.87-2.44c0.85-2.17,1.82-4.28,2.83-6.35C303.44,291.64,303.61,291.27,303.79,290.9z"/>
	<path style="fill:#000300" d="M241.46,200.91c-0.04-0.01-0.08-0.02-0.12-0.04l0.05,0.08L241.46,200.91z"/>
	<path style="fill:#000300" d="M244.63,198.9l3.07-1.79l-3.09-1.76l-3.38-1.93l-0.29-0.16l-15.45-8.82c0.29,0.98,0.61,1.98,0.99,3
		c0.17,0.48,0.36,0.95,0.55,1.42l14.52,8.28L244.63,198.9z"/>
	<path style="fill:#000300" d="M274.34,185.77c0.05-0.14,0.1-0.27,0.15-0.4l-17.14,10.01l-3.07,1.79l-3.19,1.87l-2.39,1.39
		c1.73,0.31,3.4,0.52,4.93,0.69l0.55-0.32l18.31-10.7C273.15,188.67,273.78,187.23,274.34,185.77z"/>
	<path style="fill:#000300" d="M241.34,189.79l3.09,1.76l3.07-1.79l-3.09-1.76l-20.3-11.58c0.05,1.23,0.18,2.49,0.39,3.77L241.34,189.79z"/>
	<path style="fill:#000300" d="M276.75,176.58l-19.6,11.45l-3.07,1.79l-3.19,1.87l-3.07,1.79l3.09,1.76l3.07-1.79L276,180.57
		C276.34,179.21,276.59,177.88,276.75,176.58z"/>
	<path style="fill:#000300" d="M250.69,187.89l3.07-1.79l23.17-13.53c-0.03-1.13-0.14-2.26-0.32-3.38l-25.93,15.15l-25.92-14.79
		c-0.25,1.08-0.42,2.15-0.53,3.24l23.38,13.34L250.69,187.89z"/>
	<path style="fill:#000300" d="M265,201.95l2.01-1.17c0.09-0.17,0.18-0.34,0.27-0.51c0.85-1.58,1.68-3.13,2.48-4.67l-10.29,6.01
		c1.82,0.12,3.66,0.23,5.29,0.32L265,201.95z"/>
	<path style="fill:#000300" d="M267.59,207.56c-3.94,7.58-6.61,14.86-7.61,23.45c-1.02,8.8,0.31,17.64,4.64,25.44
		c1.23,2.19,2.68,4.21,4.3,6.09c1.59-1.89,3.28-3.75,5.21-5.43c0.51-0.44,1.02-0.85,1.54-1.24c0.2-0.15,0.4-0.28,0.6-0.42
		c-0.18-0.22-0.34-0.45-0.51-0.68c-0.22-0.3-0.46-0.58-0.67-0.89c-0.54-0.78-1.05-1.59-1.53-2.44c-0.47-0.83-0.88-1.69-1.26-2.57
		c-0.16-0.36-0.29-0.73-0.43-1.09c-0.71-1.82-1.26-3.71-1.64-5.64c-0.06-0.31-0.13-0.62-0.18-0.93c-0.37-2.18-0.52-4.4-0.51-6.61
		c0-0.17,0-0.35,0-0.52c0.02-1.12,0.08-2.24,0.19-3.35c0.12-1.41,0.34-2.81,0.58-4.21c0.01-0.08,0.02-0.16,0.03-0.23
		c0.49-2.81,1.2-5.58,2.05-8.31c0.14-0.46,0.28-0.93,0.43-1.39c0.64-1.92,1.32-3.82,2.08-5.68c0.92-2.31,1.85-4.62,2.76-6.93
		c1.99-5.06,3.83-10.15,4.94-15.49c1.68-8.25,1.31-16.33-3.13-23.43c2.15,7.63,1.17,14.65-1.69,22.05
		C275.13,193.96,271.34,200.34,267.59,207.56z"/>
	<path style="fill:#000300" d="M342.71,282.36c-7.28-5.72-17.28-7.99-26.39-9.6c-0.06-0.01-0.12-0.02-0.18-0.03
		c-4.59-0.79-8.94-1.45-13.23-2.43c-0.49-0.11-0.99-0.24-1.48-0.37c-2.7-0.67-5.39-1.5-8.12-2.59c-0.05-0.02-0.11-0.04-0.16-0.06
		c-1.3-0.52-2.6-1.09-3.92-1.75c-0.99-0.51-1.95-1.04-2.89-1.6c-0.19-0.11-0.37-0.23-0.55-0.34c-0.51-0.31-1.01-0.61-1.5-0.94v0.87
		v10.35c5.2,2.35,10.08,3.68,14.55,4.48c4.35,0.78,8.31,1.08,11.77,1.29c0.65,0.04,1.28,0.08,1.89,0.11
		c0.14,0.01,0.3,0.02,0.44,0.03c3.1,0.18,6.31,0.35,9.52,0.63c0.43,0.04,0.85,0.07,1.27,0.11c3.21,0.32,6.39,0.79,9.45,1.52
		c0.14,0.03,0.27,0.06,0.41,0.09c2.65,0.65,5.21,1.48,7.58,2.64c0.13,0.06,0.25,0.14,0.38,0.21c3.19,1.61,6.17,3.79,8.73,6.57
		C348.56,288.05,345.94,284.86,342.71,282.36z"/>
	<path style="fill:#000300" d="M280.98,281.81h0.05c-0.02-0.02-0.04-0.03-0.05-0.05V281.81z"/>
	<polygon style="fill:#000300" points="250.69,179.95 253.76,178.15 269.17,169.15 269.17,165.59 250.67,176.39 232.21,165.86 232.21,169.4 
		247.6,178.18 	"/>
	<polygon style="fill:#000300" points="250.69,172.24 253.76,170.44 260.29,166.63 254.18,166.63 247.08,166.63 240.86,166.63 247.6,170.47 	
		"/>
	<polygon style="fill:#FFFFFF" points="275.63,375.12 275.63,279.57 299.28,288.68 299.28,375.12 	"/>
	<polygon style="fill:#FFFFFF" points="245.44,305.7 277.63,278.59 277.63,309.51 263.8,321.15 	"/>
	<polygon style="fill:#FFFFFF" points="231.35,322.14 197.53,293.68 218.27,280.21 248.92,306.01 265.35,319.85 246.99,335.3 	"/>
	<g>
		<g>
			<path style="fill:#00942A" d="M261.4,267.86v3.36v1.8c0.01-0.01,0.01-0.01,0.02-0.02c0.37-0.32,0.74-0.66,1.11-1.01
				c0.15-0.13,0.29-0.27,0.44-0.42v-1.94v-0.32c-0.15-0.14-0.29-0.29-0.44-0.42c-0.38-0.35-0.75-0.69-1.11-1.01
				C261.41,267.88,261.4,267.87,261.4,267.86z"/>
			<path style="fill:#00942A" d="M258.12,265.39c-0.01,0-0.01-0.01-0.02-0.01v8.53v1.59c0.01,0,0.01-0.01,0.02-0.01
				c0.06-0.03,0.12-0.07,0.18-0.11c0.45-0.29,0.91-0.61,1.37-0.96v-1.68v-6.28c-0.46-0.35-0.92-0.67-1.38-0.96
				C258.23,265.46,258.17,265.43,258.12,265.39z"/>
			<path style="fill:#00942A" d="M216.99,275.35v-0.9v-0.02v-7.96v-2.61v-0.91v-0.84v-1.25v-0.68c-0.46-0.45-0.93-0.85-1.4-1.22h-0.17v0.46
				v0.53v0.5v0.1v3.45v0.92v10.28v2.06v4.78c0.53-0.41,1.05-0.86,1.57-1.36V275.35z"/>
			<path style="fill:#00942A" d="M220.29,276.81v-4.13v-2.11v-4.18v-2.31c-0.4-0.54-0.81-1.06-1.22-1.58c-0.04-0.05-0.07-0.1-0.11-0.15
				c-0.04-0.05-0.08-0.11-0.13-0.17c-0.04-0.04-0.07-0.08-0.1-0.12v0.52v0.25v1.35v8.78v0.61v4.48v0.77
				c0.04-0.04,0.07-0.08,0.11-0.13c0.08-0.1,0.16-0.21,0.24-0.31C219.48,277.88,219.9,277.35,220.29,276.81z"/>
			<path style="fill:#00942A" d="M223.59,270.55v-1.54c-0.29-0.45-0.58-0.89-0.86-1.33c-0.23-0.36-0.47-0.74-0.71-1.09v1.6v0.83v2.6v2.7
				c0.53-0.79,1.04-1.6,1.57-2.43v-0.41V270.55z"/>
			<path style="fill:#00942A" d="M282.55,281.81v-4.53v-0.3v-3.95v-10.67v-0.92v-0.86v-1.22v-0.54c-0.35,0.27-0.7,0.59-1.05,0.9
				c-0.17,0.16-0.35,0.28-0.52,0.45v0.02v1.01v0.93v4.3v5.79v2.17v0.99v1.31v3.97c0.42,0.41,0.84,0.78,1.27,1.12H282.55z"/>
			<path style="fill:#00942A" d="M277.68,264.07v2.3v3.87v0.32v6.24c0.19,0.26,0.4,0.51,0.59,0.77c0.21,0.27,0.42,0.55,0.63,0.82
				c0.08,0.1,0.16,0.21,0.24,0.32c0.04,0.04,0.07,0.08,0.1,0.12v-0.77v-1.01v-4.07v-1.76v-6.95v-1.44v-0.77
				c-0.04,0.04-0.07,0.08-0.11,0.13c-0.08,0.1-0.16,0.21-0.24,0.31C278.49,263,278.08,263.53,277.68,264.07z"/>
			<path style="fill:#00942A" d="M274.38,269v2.46v0.41c0.53,0.83,1.05,1.64,1.57,2.43v-5.27v0v-0.85v-1.6c-0.24,0.36-0.47,0.73-0.7,1.09
				c-0.12,0.19-0.24,0.38-0.37,0.57C274.72,268.48,274.55,268.73,274.38,269z"/>
			<path style="fill:#00942A" d="M254.8,275.75v1.48c0.01,0,0.01-0.01,0.02-0.01c0.51-0.21,1.02-0.45,1.55-0.72v-1.52v-1.82v-5.42v-3.35
				c-0.52-0.27-1.04-0.51-1.55-0.72c-0.01,0-0.01-0.01-0.02-0.01V275.75z"/>
			<path style="fill:#00942A" d="M264.71,268.88c0.13,0.13,0.27,0.26,0.39,0.4c0.5-0.58,1.38-1.66,2.14-2.61c0.32-0.4,0.63-0.78,0.87-1.08
				c-0.29-0.35-0.61-0.64-0.91-0.98c-1.58-1.76-3.24-3.35-5.12-4.71c-3.83-2.75-8.31-4.47-13.1-4.48
				c-4.76,0.02-9.26,1.71-13.09,4.48c-1.82,1.31-3.49,2.83-5.14,4.68c-0.3,0.33-0.59,0.65-0.89,1c0.27,0.33,0.57,0.7,0.87,1.07
				c0.74,0.92,1.52,1.9,2.14,2.61c0.12-0.13,0.26-0.26,0.39-0.4c0.18-0.19,0.37-0.38,0.56-0.57c0.85-0.85,1.79-1.69,2.74-2.45
				c0.58-0.47,1.17-0.92,1.75-1.31c0.39-0.26,0.78-0.51,1.18-0.75c0.12-0.07,0.25-0.14,0.37-0.21c1.08-0.62,2.2-1.17,3.35-1.6
				c0.09-0.03,0.17-0.07,0.26-0.1c1.07-0.38,2.17-0.65,3.29-0.81c0.22-0.03,0.44-0.07,0.66-0.09c0.52-0.05,1.04-0.08,1.57-0.07
				c0.52,0,1.03,0.07,1.55,0.12c0.23,0.02,0.46,0.02,0.69,0.05c1.11,0.16,2.19,0.45,3.25,0.82c0.1,0.04,0.2,0.08,0.3,0.11
				c1.14,0.42,2.26,0.92,3.32,1.54c0.01,0,0.01,0.01,0.02,0.01c0.13,0.07,0.25,0.16,0.37,0.24c1.01,0.61,1.99,1.3,2.93,2.06
				c0.96,0.77,1.87,1.6,2.74,2.46C264.34,268.5,264.53,268.69,264.71,268.88z"/>
			<path style="fill:#00942A" d="M248.2,262.49v1.04v13.5v0.32v1.05c0.26,0.02,0.52,0.02,0.77,0.02H249c0.25,0,0.51,0,0.77-0.02v-1.01v-0.37
				V263.5v-1.01c-0.26-0.02-0.52-0.02-0.78-0.02h-0.02C248.72,262.47,248.46,262.47,248.2,262.49z"/>
			<path style="fill:#00942A" d="M235.44,268.88c-0.15,0.14-0.29,0.27-0.44,0.42v0.34v1.92c0.14,0.14,0.29,0.29,0.44,0.42
				c0.38,0.35,0.75,0.69,1.11,1.01c0.01,0.01,0.01,0.01,0.02,0.02v-1.82v-3.34c-0.01,0.01-0.01,0.01-0.02,0.02
				C236.19,268.19,235.82,268.53,235.44,268.88z"/>
			<path style="fill:#00942A" d="M239.68,265.5c-0.45,0.29-0.91,0.61-1.38,0.96v6.24v1.72c0.47,0.35,0.93,0.67,1.38,0.96
				c0.06,0.04,0.12,0.07,0.17,0.11c0.01,0,0.01,0.01,0.02,0.01v-1.59v-8.53c-0.01,0-0.01,0.01-0.02,0.01
				C239.8,265.42,239.74,265.46,239.68,265.5z"/>
			<path style="fill:#00942A" d="M241.6,267.72v5.43v1.8v1.55c0.52,0.28,1.04,0.52,1.55,0.72c0,0,0.01,0.01,0.02,0.01v-1.49v-12.09
				c0,0-0.01,0.01-0.02,0.01c-0.51,0.21-1.02,0.45-1.55,0.72V267.72z"/>
			<path style="fill:#00942A" d="M244.9,265.26v10.35v0.81v1.4c0.51,0.15,1.03,0.27,1.55,0.36c0.01,0,0.01,0,0.02,0v-1.36v-14.14
				c-0.01,0-0.01,0-0.02,0c-0.51,0.09-1.03,0.21-1.55,0.36V265.26z"/>
			<path style="fill:#00942A" d="M251.5,276.82v1.37c0.01,0,0.01,0,0.02,0c0.51-0.09,1.03-0.21,1.55-0.36v-1.41v-0.76v-10.41v-2.18
				c-0.52-0.15-1.03-0.27-1.55-0.36c-0.01,0-0.01,0-0.02,0V276.82z"/>
			<path style="fill:#00942A" d="M272.63,268.83c0.35-0.54,0.69-1.07,1.03-1.6c0.05-0.08,0.1-0.15,0.15-0.23c1.18-1.83,2.37-3.58,3.67-5.23
				c0.15-0.19,0.29-0.4,0.45-0.59c0.49-0.59,1-1.1,1.51-1.62c0.11-0.12,0.22-0.25,0.33-0.36c0.01-0.01,0.01-0.01,0.02-0.02
				c0.57-0.56,1.18-1.06,1.8-1.53c1.8-1.39,3.8-2.45,6.2-3.02c-2.47-0.12-4.75,0.43-6.87,1.43c-0.04,0.02-0.09,0.04-0.13,0.06
				c-0.17,0.08-0.34,0.16-0.5,0.24c-0.39,0.2-0.77,0.42-1.14,0.65c-0.32,0.2-0.64,0.4-0.96,0.62c-0.2,0.14-0.41,0.28-0.61,0.43
				c-0.52,0.39-1.04,0.79-1.55,1.23c-1.08,0.94-2.08,1.97-3.04,3.01c-0.72,0.78-1.41,1.57-2.09,2.38c-1,1.2-1.99,2.42-2.97,3.64
				c-0.12,0.14-0.23,0.28-0.34,0.43c-0.9,1.12-1.86,2.2-2.86,3.24c-1.04,1.08-2.13,2.1-3.3,3.03c-0.57,0.46-1.15,0.91-1.75,1.32
				c-0.38,0.27-0.8,0.48-1.2,0.73c-0.12,0.07-0.23,0.15-0.35,0.22c-1.07,0.63-2.18,1.19-3.35,1.61c-0.1,0.04-0.19,0.08-0.29,0.11
				c-1.06,0.36-2.15,0.6-3.25,0.76c-0.24,0.03-0.48,0.04-0.72,0.07c-0.51,0.05-1.02,0.14-1.53,0.14c-0.53,0-1.02-0.09-1.53-0.14
				c-0.24-0.02-0.48-0.03-0.72-0.06c-1.11-0.16-2.2-0.4-3.25-0.77c-0.1-0.03-0.19-0.07-0.28-0.11c-1.15-0.43-2.26-1-3.35-1.63
				c-0.12-0.07-0.23-0.14-0.35-0.21c-0.4-0.24-0.81-0.46-1.21-0.72c-0.62-0.42-1.19-0.85-1.75-1.29c-1.21-0.97-2.29-1.99-3.3-3.05
				c-1.12-1.18-2.16-2.4-3.2-3.68c-0.5-0.62-1.01-1.24-1.52-1.88c-0.23-0.29-0.46-0.57-0.69-0.86c-0.91-1.12-1.88-2.25-2.9-3.35
				c-0.88-0.95-1.81-1.87-2.78-2.73c-0.19-0.16-0.37-0.33-0.56-0.49c-0.77-0.64-1.56-1.23-2.39-1.76c-0.12-0.08-0.24-0.15-0.36-0.22
				c-0.72-0.44-1.46-0.85-2.23-1.18c-0.06-0.02-0.11-0.06-0.17-0.08c-0.67-0.28-1.35-0.5-2.05-0.68c-1.4-0.36-2.83-0.53-4.23-0.46
				c2.05,0.49,3.92,1.35,5.55,2.49c0.23,0.16,0.45,0.35,0.68,0.53c1.19,0.92,2.28,1.99,3.3,3.17c0.02,0.02,0.04,0.04,0.06,0.07
				c0.08,0.09,0.15,0.18,0.22,0.26c0.17,0.21,0.34,0.43,0.51,0.64c1.32,1.66,2.53,3.45,3.67,5.23c0.4,0.62,0.79,1.23,1.17,1.83
				c0.03,0.05,0.07,0.1,0.1,0.15c0.02,0.03,0.04,0.07,0.06,0.1c0.82,1.28,1.75,2.75,2.88,4.3c1.05,1.44,2.28,2.95,3.8,4.45
				c1.08,1.07,2.3,2.12,3.71,3.14c3.92,2.81,8.41,4.48,13.1,4.48c4.78-0.02,9.25-1.7,13.1-4.48c1.38-1,2.59-2.08,3.73-3.21
				c1.37-1.36,2.62-2.81,3.77-4.39c0.5-0.68,0.99-1.36,1.47-2.08C271.59,270.46,272.12,269.64,272.63,268.83z"/>
			<path style="fill:#00942A" d="M225.61,272.16c-0.06-0.09-0.12-0.18-0.17-0.26c-0.03,0.05-0.07,0.1-0.1,0.16c-0.23,0.35-0.46,0.7-0.68,1.05
				c-1.32,2.06-2.66,4.08-4.18,6c-0.15,0.19-0.28,0.4-0.44,0.6c-1.09,1.31-2.31,2.49-3.66,3.53c-0.22,0.17-0.42,0.38-0.66,0.54
				c-1.63,1.13-3.5,1.99-5.55,2.48c2.09,0.11,4.27-0.28,6.28-1.14c0.83-0.35,1.62-0.78,2.39-1.25c1.1-0.67,2.14-1.44,3.11-2.28
				c1.06-0.92,2.06-1.92,3.01-2.96c0.69-0.75,1.35-1.54,2-2.32c0.29-0.34,0.59-0.67,0.87-1.02c-0.07-0.09-0.16-0.21-0.24-0.31
				C227.01,274.22,226.19,273.04,225.61,272.16z"/>
			<path style="fill:#00942A" d="M282.25,283.77c-0.24-0.16-0.44-0.36-0.67-0.53c-1.54-1.19-2.89-2.6-4.11-4.13
				c-0.13-0.16-0.25-0.32-0.37-0.48c-0.39-0.5-0.77-1.01-1.14-1.54c-0.84-1.18-1.8-2.66-2.64-3.99c-0.24-0.37-0.46-0.73-0.68-1.06
				c-0.03-0.05-0.07-0.11-0.1-0.15c-0.65,1-1.37,2.05-2.1,3.01c-0.02,0.03-0.04,0.05-0.06,0.08c-0.08,0.11-0.16,0.22-0.25,0.33
				c0.28,0.34,0.58,0.68,0.86,1.02c0.65,0.77,1.32,1.53,2.01,2.28c0.46,0.49,0.9,0.99,1.38,1.47c0.5,0.5,1.03,1,1.58,1.47
				c0.98,0.85,2.05,1.63,3.16,2.31c0.78,0.48,1.57,0.91,2.39,1.26c0.8,0.34,1.64,0.59,2.48,0.78c1.26,0.29,2.55,0.42,3.8,0.36
				c-1.07-0.26-2.09-0.63-3.06-1.08C283.86,284.77,283.02,284.31,282.25,283.77z"/>
		</g>
	</g>
	<g>
		<polygon style="fill:#FFFFFF" points="199.35,292.58 196.57,294.43 196.57,375.12 220.22,375.12 220.22,310.15 		"/>
	</g>
	<g>
		<polygon style="fill:#E30011" points="278.63,283.94 296.28,290.74 296.28,372.12 278.63,372.12 		"/>
		<polygon style="fill:#E30011" points="274.63,285.04 274.63,308.12 263.8,317.23 250.1,305.7 		"/>
		<polygon style="fill:#E30011" points="260.69,319.85 246.99,331.38 233.28,319.85 202.56,293.99 218.04,283.94 246.99,308.31 		"/>
		<polygon style="fill:#E30011" points="217.22,311.55 217.22,372.12 199.57,372.12 199.57,296.69 		"/>
	</g>
	<g>
		<path style="fill:#00942A" d="M103.71,304.51l13.86-3.91l1.38,4.91c0.76,2.71,0.02,4.38-2.23,5.01c-0.84,0.24-1.6,0.27-2.28,0.09
			c-0.8-0.21-1.35-0.7-1.64-1.46c0.09,0.87-0.11,1.62-0.6,2.23c-0.46,0.57-1.13,0.98-2,1.22c-1.39,0.39-2.5,0.32-3.33-0.21
			c-0.78-0.5-1.37-1.46-1.77-2.88L103.71,304.51z M106.67,306.69l0.39,1.38c0.4,1.43,1.26,1.96,2.57,1.59
			c1.31-0.37,1.77-1.24,1.38-2.61l-0.42-1.47L106.67,306.69z M112.74,304.97l0.46,1.64c0.33,1.15,1.1,1.56,2.33,1.21
			c1.09-0.31,1.47-1.04,1.15-2.19l-0.46-1.63L112.74,304.97z"/>
		<path style="fill:#00942A" d="M122.34,315.77c0.56,1.51,0.76,2.63,0.58,3.38c-0.23,0.92-1.04,1.64-2.45,2.17c-0.92,0.34-1.66,0.5-2.23,0.45
			c-0.75-0.07-1.38-0.45-1.86-1.16c0.15,0.96,0.02,1.69-0.41,2.17c-0.32,0.36-0.99,0.74-2.01,1.12c-0.07,0.03-0.19,0.07-0.34,0.11
			c-0.16,0.05-0.27,0.09-0.34,0.12c-1.16,0.43-2.04,0.9-2.66,1.4l-1.1-2.94c0.38-0.29,1.25-0.69,2.59-1.21
			c0.4-0.16,0.75-0.3,1.05-0.42c0.61-0.25,1.02-0.52,1.22-0.81c0.24-0.36,0.25-0.83,0.03-1.41l-0.44-1.18l-5.56,2.08l-1.05-2.82
			l13.49-5.05L122.34,315.77z M116.07,316.76l0.26,0.7c0.28,0.74,0.61,1.21,1.01,1.41c0.39,0.2,0.96,0.17,1.68-0.11
			c0.71-0.27,1.14-0.6,1.28-1c0.12-0.35,0.05-0.9-0.23-1.64l-0.28-0.75L116.07,316.76z"/>
		<path style="fill:#00942A" d="M111.77,328.08l13.15-5.88l1.2,2.68l-13.15,5.88L111.77,328.08z"/>
		<path style="fill:#00942A" d="M127.23,327.39l2.22,4.21c0.97,1.84,1,3.43,0.08,4.76c-0.66,0.95-2.02,1.96-4.09,3.06
			c-2.07,1.09-3.68,1.64-4.83,1.65c-1.62,0.01-2.92-0.91-3.89-2.75l-2.22-4.21L127.23,327.39z M126.72,331.12l-8.81,4.65l0.61,1.15
			c0.56,1.05,1.42,1.46,2.6,1.21c0.54-0.11,1.54-0.55,2.98-1.31c1.44-0.76,2.36-1.33,2.76-1.72c0.87-0.83,1.03-1.78,0.47-2.83
			L126.72,331.12z"/>
		<path style="fill:#00942A" d="M132.29,349.53l-6.14,3.97c-1.25-1.33-2.16-2.44-2.74-3.33c-0.94-1.45-1.33-2.67-1.19-3.65
			c0.14-0.98,0.77-1.97,1.88-2.96c0.57-0.5,1.54-1.2,2.92-2.1c2.18-1.41,3.87-2.1,5.06-2.08c1.33,0.02,2.53,0.85,3.59,2.5
			c1.66,2.58,1.26,4.66-1.2,6.25l-0.18,0.12l-1.61-2.49l0.15-0.09c1.35-0.87,1.71-1.79,1.08-2.76c-0.53-0.82-1.45-0.95-2.77-0.39
			c-0.38,0.16-1.3,0.71-2.74,1.64c-1.54,0.99-2.46,1.65-2.78,1.97c-0.93,0.96-1.06,1.94-0.42,2.94c0.22,0.34,0.56,0.73,0.99,1.14
			l2.71-1.75l-0.9-1.4l1.89-1.22L132.29,349.53z"/>
		<path style="fill:#00942A" d="M127.88,356.27l11.58-8.57l1.75,2.36l-11.58,8.57L127.88,356.27z"/>
		<path style="fill:#00942A" d="M131.68,361.43l10.97-9.34l2.62,3.08l-3.91,6.95c-0.95,1.69-1.9,3.15-2.83,4.39c0.42-0.46,0.89-0.92,1.39-1.4
			c0.15-0.15,0.71-0.64,1.65-1.48l6.21-5.51l1.8,2.12l-10.97,9.34l-2.56-3l4.11-7.33c0.58-1.04,1.5-2.46,2.76-4.26
			c-1.23,1.23-2.23,2.19-3.02,2.88l-6.42,5.7L131.68,361.43z"/>
		<path style="fill:#00942A" d="M153.17,373.41l-5.12,5.22c-1.51-1.03-2.64-1.91-3.4-2.65c-1.23-1.21-1.89-2.31-1.96-3.3
			c-0.08-0.99,0.32-2.09,1.18-3.3c0.44-0.62,1.24-1.51,2.39-2.69c1.82-1.85,3.31-2.9,4.48-3.14c1.3-0.27,2.65,0.28,4.05,1.64
			c2.19,2.15,2.26,4.27,0.2,6.37l-0.15,0.15l-2.11-2.07l0.12-0.12c1.12-1.14,1.27-2.12,0.44-2.93c-0.7-0.69-1.63-0.61-2.78,0.22
			c-0.34,0.24-1.11,0.98-2.31,2.21c-1.28,1.31-2.04,2.15-2.28,2.54c-0.69,1.14-0.61,2.12,0.24,2.96c0.29,0.29,0.7,0.59,1.22,0.9
			l2.26-2.3l-1.19-1.16l1.58-1.61L153.17,373.41z"/>
		<path style="fill:#00942A" d="M166.76,384.43l-4.45,5.81c-1.62-0.83-2.86-1.58-3.7-2.22c-1.37-1.05-2.15-2.06-2.35-3.04
			c-0.2-0.98,0.06-2.12,0.78-3.42c0.36-0.67,1.04-1.65,2.05-2.96c1.58-2.06,2.93-3.28,4.06-3.67c1.26-0.43,2.67-0.05,4.22,1.14
			c2.43,1.87,2.76,3.96,0.97,6.29l-0.13,0.17l-2.35-1.8l0.11-0.14c0.97-1.27,1-2.26,0.09-2.96c-0.78-0.6-1.69-0.41-2.74,0.56
			c-0.31,0.28-0.98,1.11-2.03,2.47c-1.11,1.45-1.76,2.38-1.96,2.8c-0.55,1.21-0.35,2.18,0.6,2.91c0.33,0.25,0.77,0.5,1.32,0.74
			l1.96-2.56l-1.32-1.01l1.37-1.79L166.76,384.43z"/>
		<path style="fill:#00942A" d="M171.43,396.53l1.07-3.12l-3.52-2.25l-2.36,2.29l-2.55-1.63l11.17-9.96l3.24,2.06l-4.36,14.3L171.43,396.53z
			 M170.63,389.6l2.59,1.65l2.09-6.07L170.63,389.6z"/>
		<path style="fill:#00942A" d="M187.34,388.96c1.46,0.77,2.35,1.57,2.64,2.42c0.31,0.88,0.08,2.05-0.67,3.5c-0.72,1.37-1.54,2.2-2.46,2.5
			c-0.55,0.18-1.13,0.19-1.73,0.02c-0.37-0.1-0.9-0.34-1.61-0.71l-1.68-0.88l-2.69,5.12l-2.78-1.46l6.69-12.76L187.34,388.96z
			 M184.74,390.16l-1.87,3.57l0.88,0.46c0.74,0.39,1.31,0.53,1.71,0.42c0.4-0.1,0.79-0.52,1.17-1.23c0.34-0.66,0.46-1.17,0.36-1.56
			c-0.1-0.38-0.48-0.74-1.13-1.08L184.74,390.16z"/>
		<path style="fill:#00942A" d="M188.55,400.72l2.82,1.2l-0.15,0.35c-0.27,0.62-0.37,1.12-0.3,1.48c0.08,0.45,0.41,0.8,1,1.05
			c0.92,0.39,1.59,0.11,2-0.87c0.27-0.63-0.02-1.58-0.87-2.84c-0.03-0.05-0.07-0.11-0.13-0.18c-0.41-0.58-0.94-1.45-1.61-2.61
			c-0.28-0.62-0.43-1.16-0.46-1.61c-0.02-0.49,0.09-1.04,0.35-1.64c0.5-1.17,1.3-1.91,2.41-2.21c1.01-0.27,2.13-0.15,3.34,0.36
			c2.66,1.13,3.47,2.91,2.44,5.34l-0.15,0.35l-2.74-1.17l0.03-0.07c0.53-1.25,0.35-2.07-0.54-2.45c-0.41-0.17-0.79-0.19-1.13-0.04
			s-0.61,0.43-0.78,0.84c-0.3,0.71,0.12,1.84,1.25,3.41c0.2,0.28,0.43,0.6,0.67,0.96c0.56,0.82,0.92,1.52,1.07,2.09
			c0.19,0.76,0.13,1.52-0.2,2.29c-1.11,2.59-3.15,3.25-6.14,1.98c-1.36-0.58-2.24-1.31-2.64-2.19c-0.41-0.91-0.33-2.03,0.24-3.38
			c0.02-0.05,0.06-0.13,0.11-0.23S188.52,400.78,188.55,400.72z"/>
		<path style="fill:#00942A" d="M203.56,411.39l4.03-13.83l4.89,1.43c2.7,0.79,3.72,2.3,3.07,4.55c-0.24,0.84-0.62,1.5-1.13,1.98
			c-0.61,0.56-1.31,0.77-2.11,0.62c0.79,0.39,1.31,0.95,1.57,1.69c0.24,0.69,0.23,1.47-0.02,2.34c-0.41,1.39-1.05,2.29-1.94,2.71
			c-0.84,0.39-1.97,0.38-3.38-0.03L203.56,411.39z M206.98,410.04l1.38,0.4c1.43,0.42,2.33-0.03,2.71-1.34
			c0.38-1.31-0.12-2.16-1.48-2.56l-1.46-0.43L206.98,410.04z M208.75,403.98l1.63,0.47c1.15,0.33,1.9-0.11,2.26-1.33
			c0.32-1.09-0.1-1.8-1.25-2.13l-1.63-0.47L208.75,403.98z"/>
		<path style="fill:#00942A" d="M228.39,402.63l-1.76,8.85c-0.37,1.87-0.97,3.16-1.79,3.88c-0.94,0.82-2.31,1.05-4.11,0.69
			c-1.68-0.33-2.83-1.01-3.44-2.04c-0.58-0.98-0.69-2.32-0.36-4.02l1.84-9.26l2.95,0.59l-1.68,8.5c-0.25,1.26-0.36,2.09-0.32,2.48
			c0.07,0.9,0.57,1.44,1.49,1.62c0.87,0.17,1.51-0.16,1.94-0.99c0.2-0.39,0.41-1.17,0.65-2.37l1.68-8.5L228.39,402.63z"/>
		<path style="fill:#00942A" d="M229.03,417.21l1.87-14.28l2.92,0.38l-1.87,14.28L229.03,417.21z"/>
		<path style="fill:#00942A" d="M235.29,417.98l1.1-14.36l3.03,0.23l-0.9,11.83l4.39,0.34l-0.19,2.53L235.29,417.98z"/>
		<path style="fill:#00942A" d="M245.43,404.26l4.76-0.01c2.08,0,3.5,0.71,4.25,2.15c0.53,1.02,0.79,2.7,0.8,5.05c0,2.34-0.26,4.02-0.78,5.04
			c-0.75,1.44-2.16,2.16-4.24,2.16l-4.76,0.01L245.43,404.26z M248.49,406.45l0.01,9.96l1.3,0c1.19,0,1.95-0.58,2.28-1.74
			c0.15-0.53,0.23-1.62,0.23-3.24c0-1.63-0.08-2.71-0.24-3.24c-0.33-1.16-1.1-1.74-2.29-1.73L248.49,406.45z"/>
		<path style="fill:#00942A" d="M258.48,418.43l-0.96-14.37l2.93-0.2l0.96,14.37L258.48,418.43z"/>
		<path style="fill:#00942A" d="M264.89,418.01l-1.92-14.28l4.01-0.54l3.73,7.05c0.91,1.72,1.63,3.3,2.16,4.75c-0.16-0.6-0.3-1.24-0.43-1.92
			c-0.04-0.21-0.16-0.94-0.35-2.19l-1.28-8.2l2.76-0.37l1.92,14.28l-3.91,0.53l-3.95-7.42c-0.56-1.05-1.26-2.6-2.09-4.62
			c0.37,1.7,0.63,3.06,0.79,4.09l1.32,8.48L264.89,418.01z"/>
		<path style="fill:#00942A" d="M286.59,406.44l1.62,7.13c-1.68,0.71-3.04,1.19-4.07,1.42c-1.68,0.38-2.96,0.34-3.84-0.14
			c-0.87-0.47-1.58-1.4-2.13-2.79c-0.28-0.7-0.6-1.86-0.96-3.47c-0.57-2.53-0.65-4.36-0.22-5.47c0.48-1.24,1.67-2.08,3.58-2.51
			c2.99-0.68,4.81,0.42,5.46,3.28l0.05,0.21l-2.89,0.65l-0.04-0.17c-0.35-1.56-1.09-2.22-2.22-1.96c-0.95,0.22-1.4,1.04-1.32,2.46
			c0.02,0.42,0.22,1.46,0.6,3.14c0.4,1.78,0.7,2.88,0.9,3.29c0.58,1.2,1.45,1.66,2.62,1.4c0.4-0.09,0.87-0.27,1.41-0.54l-0.71-3.14
			l-1.62,0.37l-0.5-2.2L286.59,406.44z"/>
		<path style="fill:#00942A" d="M299.73,410.28l-2.83,1.02l-4.87-13.56l2.83-1.02l1.9,5.28l3.09-1.11l-1.89-5.28l2.83-1.02l4.87,13.56
			l-2.83,1.02l-2.15-6l-3.09,1.11L299.73,410.28z"/>
		<path style="fill:#00942A" d="M308.95,406.78l-5.93-13.13l7.09-3.21l0.92,2.03l-4.32,1.95l1.42,3.13l3.98-1.8l0.91,2.02l-3.98,1.8
			l1.73,3.83l4.48-2.03l0.96,2.12L308.95,406.78z"/>
		<path style="fill:#00942A" d="M325.63,398.45l-2.23-2.43l-3.66,2.02l0.89,3.17l-2.65,1.47l-3.42-14.57l3.36-1.86l10.48,10.66L325.63,398.45
			z M319.16,395.84l2.69-1.49l-4.33-4.74L319.16,395.84z"/>
		<path style="fill:#00942A" d="M330.46,395.55l-7.93-12.02l2.54-1.67l6.54,9.9l3.68-2.43l1.4,2.12L330.46,395.55z"/>
		<path style="fill:#00942A" d="M339.57,389.3l-7.24-9.62l-2.62,1.97l-1.42-1.89l7.73-5.82l1.42,1.89l-2.64,1.99l7.24,9.62L339.57,389.3z"/>
		<path style="fill:#00942A" d="M348.8,381.92l-2.25,1.99L337,373.13l2.25-1.99l3.72,4.2l2.46-2.18l-3.72-4.2l2.25-1.99l9.55,10.78
			l-2.25,1.99l-4.23-4.77l-2.46,2.18L348.8,381.92z"/>
		<path style="fill:#00942A" d="M355.94,375.31l-10.21-10.16l2.07-2.08l10.21,10.16L355.94,375.31z"/>
		<path style="fill:#00942A" d="M360.39,370.8l-10.77-9.57l5.17-5.82l1.67,1.48l-3.15,3.55l2.57,2.28l2.9-3.26l1.66,1.47l-2.9,3.26l3.14,2.79
			l3.27-3.68l1.74,1.54L360.39,370.8z"/>
		<path style="fill:#00942A" d="M358.71,350.4c0.97-1.28,1.82-2.04,2.55-2.29c0.9-0.3,1.95,0.01,3.14,0.92c0.78,0.6,1.31,1.15,1.57,1.65
			c0.35,0.67,0.35,1.4,0.01,2.19c0.73-0.64,1.42-0.91,2.05-0.81c0.47,0.08,1.15,0.44,2.02,1.11c0.06,0.05,0.16,0.12,0.28,0.23
			s0.22,0.18,0.28,0.23c0.99,0.75,1.85,1.25,2.6,1.5l-1.9,2.5c-0.45-0.17-1.25-0.69-2.41-1.55c-0.35-0.26-0.65-0.48-0.91-0.67
			c-0.54-0.38-0.98-0.58-1.34-0.6c-0.43-0.01-0.84,0.23-1.21,0.73l-0.76,1.01l4.73,3.59l-1.82,2.39l-11.47-8.71L358.71,350.4z
			 M362.89,355.17l0.45-0.59c0.48-0.63,0.7-1.17,0.66-1.61c-0.04-0.44-0.37-0.9-0.99-1.36c-0.61-0.46-1.12-0.64-1.53-0.55
			c-0.37,0.08-0.79,0.44-1.27,1.07l-0.49,0.64L362.89,355.17z"/>
		<path style="fill:#00942A" d="M377.88,348.05l-12.35-7.41l1.56-2.61l10.18,6.1l2.27-3.78l2.18,1.31L377.88,348.05z"/>
		<path style="fill:#00942A" d="M382.79,339.59l-12.73-6.74l1.38-2.6l12.73,6.74L382.79,339.59z"/>
		<path style="fill:#00942A" d="M386.75,331.82l-14.63-2.67l1.3-2.86l7.46,1.77c1.04,0.24,2.59,0.65,4.63,1.23c-1.54-0.92-2.87-1.8-3.99-2.65
			l-6.13-4.68l1.26-2.76l11.57,9.39L386.75,331.82z"/>
		<path style="fill:#00942A" d="M390.58,322.98l-13.53-4.95l2.67-7.31l2.09,0.77l-1.63,4.46l3.23,1.18l1.5-4.1l2.08,0.76l-1.5,4.1l3.94,1.44
			l1.69-4.62l2.18,0.8L390.58,322.98z"/>
		<path style="fill:#00942A" d="M389.86,311.8l0.83-2.95l0.37,0.1c0.65,0.18,1.16,0.22,1.51,0.11c0.44-0.14,0.74-0.51,0.91-1.12
			c0.27-0.96-0.1-1.59-1.11-1.88c-0.66-0.19-1.56,0.22-2.71,1.23c-0.04,0.04-0.1,0.08-0.16,0.15c-0.53,0.48-1.32,1.12-2.38,1.93
			c-0.58,0.36-1.09,0.58-1.54,0.66c-0.48,0.09-1.04,0.04-1.67-0.13c-1.23-0.34-2.06-1.05-2.5-2.1c-0.4-0.97-0.43-2.09-0.07-3.36
			c0.78-2.78,2.44-3.82,4.98-3.1l0.37,0.1l-0.81,2.87l-0.08-0.02c-1.31-0.37-2.1-0.08-2.36,0.85c-0.12,0.43-0.09,0.81,0.1,1.13
			c0.19,0.32,0.5,0.55,0.93,0.67c0.74,0.21,1.81-0.35,3.22-1.68c0.26-0.24,0.54-0.5,0.86-0.79c0.74-0.66,1.39-1.11,1.94-1.33
			c0.72-0.29,1.49-0.32,2.3-0.09c2.71,0.76,3.63,2.71,2.75,5.83c-0.4,1.42-1.01,2.39-1.83,2.9c-0.84,0.53-1.97,0.59-3.38,0.19
			c-0.06-0.02-0.14-0.04-0.24-0.08C390,311.85,389.91,311.82,389.86,311.8z"/>
	</g>
	<g>
		<path style="fill:#00942A" d="M101.16,214.15l3.75-9.67l30.8,4.27c0.55,0.06,1.04,0.09,1.49,0.08c0.36-0.03,0.73-0.25,1.12-0.67
			c0.34-0.35,0.62-0.57,0.86-0.66c0.24-0.09,0.51-0.08,0.81,0.04c0.83,0.32,1.01,1.11,0.52,2.36l-4.65,11.98
			c-0.19,0.48-0.45,0.82-0.79,1.02c-0.34,0.2-0.71,0.22-1.09,0.07c-0.32-0.12-0.54-0.28-0.65-0.47c-0.11-0.19-0.2-0.56-0.27-1.1
			c-0.04-0.38-0.12-0.67-0.27-0.88c-0.14-0.2-0.36-0.36-0.65-0.47c-0.27-0.11-0.52-0.17-0.75-0.21l-3.78-0.58l-2.6,6.7l-2.61-1.76
			l2.09-5.38l-21.23-3.16L101.16,214.15z M106.62,218.17l5.44,0.7l13.86,10.27c0.4,0.3,0.79,0.53,1.17,0.68
			c1.01,0.39,1.91,0.2,2.71-0.58l0.71-0.69c0.45-0.44,0.95-0.54,1.51-0.33c0.8,0.31,0.97,1.05,0.52,2.22l-2.37,6.1
			c-0.23,0.59-0.53,1.01-0.92,1.26c-0.38,0.25-0.79,0.29-1.22,0.12c-0.46-0.18-0.71-0.68-0.74-1.5c-0.03-0.77-0.11-1.35-0.22-1.75
			c-0.11-0.4-0.31-0.83-0.6-1.27c-0.48-0.7-1.21-1.41-2.19-2.12L106.62,218.17z"/>
		<path style="fill:#00942A" d="M122.35,173.22l2.37,1.78c-0.41,1.03-0.53,1.95-0.38,2.76c0.15,0.81,0.59,1.49,1.3,2.02
			c0.69,0.52,1.43,0.78,2.22,0.79c0.79,0.02,1.74-0.22,2.83-0.71c0.75-0.34,2.33-1.19,4.75-2.56c1.46-0.84,2.66-1.43,3.61-1.79
			c0.94-0.36,1.96-0.59,3.06-0.71c2.92-0.34,5.55,0.36,7.9,2.12c1.77,1.33,3.06,2.98,3.88,4.96c0.81,1.98,1.06,4.06,0.74,6.22
			c-0.18,1.15-0.51,2.32-0.99,3.49c-0.48,1.17-1.04,2.18-1.68,3.04l-2.35-1.76c0.61-1.41,0.85-2.57,0.73-3.49
			c-0.12-0.91-0.62-1.7-1.5-2.36c-0.92-0.69-2.04-0.89-3.36-0.59c-0.87,0.21-2.21,0.83-4.04,1.87c-2.01,1.13-3.4,1.9-4.19,2.28
			c-0.78,0.39-1.61,0.71-2.46,0.97c-3.78,1.2-7.2,0.66-10.26-1.64c-1.57-1.17-2.77-2.58-3.61-4.22c-0.84-1.64-1.24-3.34-1.18-5.1
			C119.83,178.15,120.69,175.69,122.35,173.22z M125.94,173.37l-2.27-1.7c0.67-0.78,1.31-1.42,1.93-1.9
			c0.61-0.49,1.57-1.11,2.87-1.87c0.32-0.19,0.54-0.38,0.67-0.55c0.2-0.26,0.25-0.52,0.17-0.78l-0.26-0.9
			c-0.14-0.45-0.09-0.83,0.15-1.14c0.28-0.37,0.61-0.54,1.01-0.51c0.4,0.03,0.88,0.26,1.46,0.69l6.8,5.1
			c0.4,0.3,0.64,0.66,0.72,1.07c0.08,0.42-0.01,0.8-0.28,1.16c-0.21,0.27-0.49,0.46-0.84,0.56c-0.2,0.04-0.41,0.04-0.63,0
			s-0.53-0.17-0.96-0.38c-0.79-0.35-1.67-0.61-2.67-0.78c-0.99-0.16-1.96-0.21-2.89-0.14C129.08,171.45,127.42,172.14,125.94,173.37
			z M148.44,194.44l2.35,1.76c-0.84,1.13-2.1,2.13-3.76,3c-0.61,0.33-1.03,0.57-1.24,0.71c-0.21,0.14-0.39,0.3-0.52,0.48
			c-0.21,0.27-0.31,0.51-0.33,0.72s0.04,0.59,0.17,1.16c0.12,0.47,0.07,0.86-0.15,1.14c-0.58,0.77-1.46,0.71-2.64-0.17l-7.5-5.62
			c-0.38-0.29-0.63-0.64-0.73-1.06c-0.1-0.42-0.04-0.8,0.2-1.14c0.21-0.31,0.48-0.48,0.79-0.52c0.31-0.03,0.75,0.06,1.31,0.29
			c1.42,0.57,2.87,0.94,4.34,1.12c1.48,0.17,2.87,0.13,4.18-0.13C146.26,195.93,147.44,195.35,148.44,194.44z"/>
		<path style="fill:#00942A" d="M175.04,170.24l-9.29,6.75l-0.54,0.39c-0.5,0.36-0.95,0.55-1.36,0.56c-0.41,0.01-0.74-0.16-0.99-0.51
			c-0.41-0.57-0.41-1.15,0.02-1.73c0.35-0.49,0.55-0.77,0.6-0.86c0.05-0.09,0.07-0.23,0.06-0.41c0.01-0.34-0.17-0.76-0.52-1.24
			l-15.16-20.85c-0.35-0.49-0.69-0.78-1.02-0.88c-0.17-0.07-0.31-0.09-0.41-0.07c-0.1,0.02-0.44,0.12-1.01,0.3
			c-0.69,0.22-1.24,0.05-1.65-0.52c-0.25-0.35-0.31-0.71-0.18-1.1c0.13-0.38,0.45-0.76,0.95-1.12l0.54-0.39l9.29-6.75l0.54-0.39
			c0.99-0.72,1.74-0.71,2.27,0.01c0.42,0.58,0.43,1.15,0.03,1.7l-0.49,0.68c-0.3,0.43-0.17,1.04,0.4,1.81l15.16,20.85
			c0.57,0.78,1.1,1.09,1.6,0.93l0.8-0.26c0.65-0.22,1.18-0.03,1.61,0.55c0.52,0.72,0.29,1.44-0.69,2.16L175.04,170.24z
			 M165.48,153.41l3.39-2.47l-6.6-9.08c-0.57-0.78-1.1-1.09-1.6-0.94l-0.82,0.28c-0.65,0.22-1.19,0.03-1.61-0.55
			c-0.52-0.72-0.29-1.45,0.71-2.17l0.54-0.39l9.27-6.74l0.56-0.41c1.04-0.76,1.82-0.77,2.35-0.05c0.41,0.57,0.41,1.15-0.02,1.73
			c-0.35,0.49-0.55,0.78-0.6,0.87c-0.05,0.09-0.07,0.23-0.07,0.41c-0.01,0.34,0.17,0.76,0.52,1.24l15.1,20.76
			c0.55,0.76,1.1,1.08,1.64,0.94l0.83-0.25c0.69-0.22,1.24-0.04,1.67,0.54c0.54,0.74,0.28,1.48-0.76,2.24l-0.56,0.41l-9.27,6.74
			l-0.58,0.42c-0.97,0.71-1.72,0.69-2.26-0.04c-0.42-0.58-0.44-1.16-0.04-1.72l0.5-0.71c0.31-0.42,0.17-1.03-0.41-1.83l-7-9.62
			l-3.39,2.47L165.48,153.41z"/>
		<path style="fill:#00942A" d="M197.13,125.6l2.92,4.65l0.9,17.22c0.02,0.5,0.1,0.95,0.23,1.34c0.34,1.03,1.06,1.6,2.17,1.72l0.98,0.11
			c0.62,0.07,1.02,0.38,1.21,0.96c0.27,0.81-0.19,1.42-1.38,1.81l-6.21,2.06c-0.6,0.2-1.12,0.23-1.56,0.09s-0.72-0.43-0.87-0.87
			c-0.16-0.47,0.07-0.98,0.69-1.53c0.57-0.52,0.98-0.94,1.22-1.28c0.24-0.34,0.44-0.76,0.6-1.27c0.24-0.82,0.32-1.83,0.24-3.04
			L197.13,125.6z M196.77,118.83l9.85-3.26l16.3,26.47c0.3,0.46,0.59,0.86,0.88,1.2c0.25,0.26,0.66,0.41,1.23,0.43
			c0.48,0.04,0.84,0.12,1.06,0.25c0.22,0.13,0.38,0.34,0.49,0.65c0.28,0.85-0.21,1.48-1.49,1.9l-12.2,4.04
			c-0.49,0.16-0.92,0.17-1.29,0.04c-0.37-0.14-0.62-0.41-0.75-0.8c-0.11-0.33-0.12-0.59-0.05-0.8c0.08-0.21,0.3-0.51,0.68-0.9
			c0.27-0.27,0.44-0.53,0.5-0.76c0.07-0.24,0.05-0.5-0.05-0.8c-0.09-0.28-0.2-0.51-0.32-0.71l-1.96-3.29l-6.82,2.26l-0.3-3.13
			l5.48-1.81l-11.08-18.39L196.77,118.83z"/>
		<path style="fill:#00942A" d="M254.71,120.76l1.66,8.07l-1.04,7.68c-0.11,0.78-0.15,1.35-0.14,1.7c0.01,0.35,0.09,0.74,0.24,1.18
			c0.26,0.8,0.67,1.42,1.25,1.88l0.86,0.74c0.59,0.48,0.86,0.96,0.79,1.43c-0.12,0.87-0.81,1.21-2.09,1.04l-6.4-0.87
			c-1.28-0.17-1.86-0.68-1.74-1.54c0.04-0.27,0.12-0.47,0.25-0.6c0.13-0.13,0.37-0.27,0.72-0.41c2.03-0.77,3.21-2.41,3.55-4.92
			L254.71,120.76z M266.2,110.36l3.09,15l3.26-7.43l-1.14,8.47l-8.57,18.98l-1.35-0.18l-5.93-30.71c-0.21-1.03-0.47-1.74-0.8-2.13
			c-0.19-0.25-0.55-0.46-1.08-0.64c-1.07-0.39-1.56-0.99-1.44-1.81c0.06-0.44,0.26-0.77,0.61-0.97c0.35-0.2,0.82-0.27,1.42-0.18
			L266.2,110.36z M275.59,111.63l11.33,1.53l0.69,0.09c1.28,0.17,1.85,0.7,1.73,1.59c-0.09,0.7-0.5,1.11-1.21,1.24
			c-0.59,0.11-0.93,0.18-1.03,0.21c-0.1,0.03-0.21,0.12-0.33,0.25c-0.24,0.24-0.4,0.67-0.48,1.26l-3.45,25.54
			c-0.08,0.6-0.04,1.04,0.13,1.34c0.08,0.17,0.17,0.28,0.25,0.33c0.09,0.05,0.4,0.21,0.94,0.48c0.65,0.31,0.93,0.82,0.83,1.52
			c-0.12,0.88-0.82,1.24-2.09,1.07l-0.69-0.09l-11.36-1.54l-0.84-0.11c-0.75-0.1-1.3-0.29-1.65-0.57c-0.35-0.28-0.5-0.65-0.43-1.11
			c0.1-0.75,0.57-1.16,1.41-1.24c0.69-0.08,1.09-0.13,1.22-0.16c0.12-0.03,0.26-0.11,0.4-0.25c0.3-0.27,0.49-0.74,0.58-1.4
			L275.59,111.63z"/>
		<path style="fill:#00942A" d="M318.56,125.19l-15.03,31.77l-10.36-4.9l-0.61-0.29c-0.56-0.26-0.94-0.57-1.14-0.93s-0.21-0.72-0.03-1.11
			c0.3-0.64,0.81-0.91,1.53-0.82c0.59,0.07,0.94,0.11,1.04,0.11c0.1,0,0.24-0.05,0.39-0.14c0.3-0.16,0.58-0.51,0.84-1.05l11.02-23.3
			c0.26-0.54,0.35-0.98,0.28-1.32c-0.03-0.18-0.07-0.32-0.14-0.39c-0.07-0.08-0.32-0.33-0.75-0.74c-0.53-0.5-0.64-1.06-0.34-1.7
			c0.18-0.39,0.48-0.62,0.88-0.68c0.4-0.07,0.88,0.03,1.44,0.3l0.61,0.29L318.56,125.19z M305.62,157.95l1.19-2.51
			c1.08,0.32,2.02,0.5,2.81,0.53c0.79,0.03,1.66-0.08,2.6-0.34c0.94-0.26,1.75-0.6,2.44-1.03c0.69-0.43,1.45-1.06,2.28-1.9
			c0.4-0.42,0.74-0.67,1.01-0.76c0.27-0.09,0.57-0.06,0.9,0.1c0.43,0.21,0.67,0.48,0.73,0.81c0.05,0.34-0.08,0.82-0.38,1.46
			l-3.89,8.22L305.62,157.95z M312.49,143.06l1.28-2.7c1.11-0.01,2-0.17,2.67-0.47s1.32-0.84,1.92-1.6c0.4-0.53,0.76-0.86,1.07-0.99
			c0.31-0.13,0.65-0.11,1.02,0.07c0.5,0.23,0.75,0.59,0.75,1.07c0.01,0.25-0.15,0.74-0.49,1.45l-4.2,8.87
			c-0.34,0.73-0.67,1.2-0.96,1.4c-0.3,0.2-0.66,0.2-1.09,0c-0.36-0.17-0.58-0.41-0.68-0.72c-0.1-0.31-0.09-0.75,0.03-1.33
			c0.24-1.2,0.25-2.2,0.04-3C313.63,144.29,313.18,143.61,312.49,143.06z M320.63,126.17l9.38,4.44l-3.9,8.24
			c-0.23,0.48-0.49,0.79-0.77,0.92c-0.29,0.13-0.64,0.1-1.04-0.09c-0.34-0.16-0.56-0.35-0.65-0.56c-0.09-0.21-0.1-0.57-0.03-1.07
			c0.26-2.08,0.05-3.86-0.65-5.35c-0.69-1.49-1.9-2.75-3.63-3.8L320.63,126.17z"/>
		<path style="fill:#00942A" d="M354.5,148.92l-23.35,26.27l-8.57-7.61l-0.5-0.44c-0.46-0.41-0.74-0.81-0.84-1.21c-0.1-0.4,0-0.75,0.28-1.07
			c0.47-0.53,1.03-0.64,1.69-0.35c0.55,0.23,0.87,0.37,0.97,0.4c0.1,0.03,0.24,0.02,0.42-0.03c0.33-0.07,0.7-0.33,1.1-0.78
			l17.12-19.27c0.4-0.45,0.61-0.84,0.64-1.19c0.03-0.18,0.02-0.32-0.03-0.42c-0.04-0.09-0.21-0.4-0.51-0.92
			c-0.37-0.62-0.31-1.2,0.15-1.72c0.29-0.32,0.63-0.46,1.03-0.41c0.4,0.05,0.84,0.28,1.3,0.69l0.5,0.45L354.5,148.92z
			 M339.93,173.14l13.5-15.18c0.83-0.94,1.36-1.8,1.58-2.59c0.15-0.51,0.18-0.95,0.09-1.34c-0.1-0.38-0.35-0.87-0.78-1.45l1.9-2.14
			c0.68,0.6,1.23,1.14,1.66,1.62c1.47,1.63,2.43,3.72,2.89,6.29c0.48,2.51,0.25,5.03-0.69,7.56c-0.93,2.57-2.42,5.01-4.48,7.32
			c-2.33,2.62-4.88,4.52-7.65,5.69c-2.77,1.18-5.57,1.55-8.4,1.12c-1.38-0.21-2.53-0.55-3.46-1.01c-0.93-0.46-2.01-1.23-3.23-2.32
			l1.85-2.08c0.66,0.34,1.15,0.54,1.47,0.62c0.31,0.07,0.66,0.05,1.03-0.05c0.44-0.11,0.86-0.31,1.24-0.6
			C338.83,174.31,339.33,173.82,339.93,173.14z"/>
		<path style="fill:#00942A" d="M354.95,203.12l-6.48-9.48l-0.38-0.55c-0.35-0.51-0.52-0.97-0.52-1.38c0-0.41,0.18-0.73,0.54-0.97
			c0.58-0.4,1.16-0.38,1.73,0.07c0.47,0.36,0.76,0.57,0.85,0.62c0.09,0.05,0.23,0.08,0.41,0.08c0.34,0.02,0.76-0.15,1.26-0.49
			l21.28-14.54c0.5-0.34,0.8-0.67,0.91-1c0.07-0.17,0.09-0.31,0.08-0.41c-0.02-0.1-0.11-0.44-0.27-1.01
			c-0.2-0.69-0.01-1.24,0.57-1.64c0.35-0.24,0.72-0.29,1.1-0.14c0.38,0.15,0.74,0.47,1.09,0.98l0.38,0.55l6.48,9.48l0.38,0.55
			c0.35,0.51,0.52,0.97,0.52,1.38s-0.18,0.73-0.54,0.97c-0.58,0.4-1.16,0.38-1.73-0.07c-0.48-0.36-0.76-0.57-0.85-0.62
			c-0.09-0.05-0.23-0.08-0.41-0.08c-0.34-0.01-0.76,0.15-1.26,0.49l-21.28,14.54c-0.5,0.34-0.8,0.67-0.91,1
			c-0.07,0.17-0.1,0.31-0.08,0.41c0.02,0.1,0.11,0.44,0.27,1.01c0.2,0.69,0.01,1.24-0.57,1.63c-0.35,0.24-0.72,0.29-1.1,0.15
			c-0.38-0.15-0.75-0.47-1.09-0.98L354.95,203.12z"/>
		<path style="fill:#00942A" d="M374.71,213.84l-2.24,2.37l-3-0.57c-1.11-0.2-1.92-0.2-2.45,0c-0.77,0.29-1.17,0.94-1.19,1.94
			c-0.01,0.55-0.08,0.96-0.2,1.21c-0.13,0.25-0.36,0.44-0.69,0.57c-0.45,0.17-0.89,0.12-1.33-0.16c-0.17-0.1-0.3-0.23-0.4-0.4
			c-0.1-0.17-0.24-0.5-0.43-0.99l-2.37-6.21c-0.2-0.51-0.24-0.96-0.14-1.34c0.1-0.38,0.35-0.64,0.73-0.79
			c0.3-0.12,0.59-0.12,0.86-0.01c0.27,0.11,0.58,0.36,0.94,0.76c0.92,1.03,2.04,1.67,3.35,1.92L374.71,213.84z M393.87,213.35
			l-20,21.48c-0.45,0.5-0.71,1.05-0.78,1.65c-0.06,0.52-0.16,0.89-0.29,1.12s-0.37,0.4-0.71,0.53c-0.43,0.17-0.84,0.14-1.22-0.09
			c-0.33-0.19-0.66-0.72-1-1.6l-4.3-11.29c-0.33-0.87-0.49-1.45-0.47-1.75c0.03-0.65,0.33-1.09,0.91-1.31
			c0.21-0.08,0.41-0.09,0.61-0.04c0.19,0.05,0.46,0.19,0.8,0.41c0.61,0.39,1.08,0.52,1.41,0.37c0.27-0.12,0.62-0.42,1.06-0.9
			l19.3-20.88c0.33-0.34,0.57-0.67,0.71-0.99c0.15-0.31,0.25-0.69,0.3-1.13c0.04-0.38,0.13-0.67,0.28-0.86
			c0.15-0.19,0.39-0.35,0.72-0.48c0.48-0.18,0.88-0.14,1.21,0.13c0.32,0.27,0.65,0.85,0.99,1.73l4.27,11.21
			c0.31,0.82,0.43,1.45,0.36,1.89c-0.07,0.44-0.34,0.75-0.8,0.93c-0.47,0.18-0.98,0.07-1.53-0.33c-0.27-0.17-0.48-0.28-0.63-0.32
			c-0.15-0.04-0.33-0.02-0.54,0.06C394.29,212.97,394.07,213.12,393.87,213.35z M389.26,221.3l2.16-2.37l2.8,0.48
			c0.64,0.1,1.16,0.08,1.54-0.06c0.35-0.13,0.66-0.38,0.91-0.72c0.25-0.34,0.39-0.72,0.42-1.14l0.06-0.99
			c0.02-0.19,0.12-0.39,0.3-0.59s0.38-0.35,0.61-0.44c0.38-0.15,0.74-0.13,1.07,0.06c0.33,0.19,0.58,0.5,0.75,0.95l2.65,6.95
			c0.17,0.45,0.21,0.86,0.12,1.23c-0.09,0.37-0.29,0.62-0.61,0.74c-0.39,0.15-0.78,0.13-1.18-0.05c-0.14-0.08-0.47-0.34-0.99-0.78
			c-1.06-0.9-2.33-1.5-3.8-1.8L389.26,221.3z"/>
	</g>
	<g>
		<path style="fill:#E30011" d="M396.96,252.99h-5.24h-5.24c0,0,0.29,5.99-7.27,5.99v13.82c0,0,0.58,7.41,12.51,12.26
			c11.93-4.85,12.51-12.26,12.51-12.26v-13.82C396.67,258.98,396.96,252.99,396.96,252.99z"/>
		<polygon style="fill:#FFFFFF" points="394.17,266.57 394.17,261.67 389.27,261.67 389.27,266.57 384.37,266.57 384.37,271.47 
			389.27,271.47 389.27,276.38 394.17,276.38 394.17,271.47 399.08,271.47 399.08,266.57 		"/>
	</g>
	<g>
		<path style="fill:#E30011" d="M115.57,252.99h-5.24h-5.24c0,0,0.29,5.99-7.27,5.99v13.82c0,0,0.58,7.41,12.51,12.26
			c11.93-4.85,12.51-12.26,12.51-12.26v-13.82C115.28,258.98,115.57,252.99,115.57,252.99z"/>
		<polygon style="fill:#FFFFFF" points="112.79,266.57 112.79,261.67 107.88,261.67 107.88,266.57 102.98,266.57 102.98,271.47 
			107.88,271.47 107.88,276.38 112.79,276.38 112.79,271.47 117.69,271.47 117.69,266.57 		"/>
	</g>
</g>
<g>
	<circle style="fill:#FFFFFF" cx="663.45" cy="266.58" r="180.21"/>
	<path style="fill:#000300" d="M639.33,225.92c-0.15-0.72-0.3-1.44-0.47-2.19c-0.08-0.36-0.17-0.72-0.27-1.1l-3.64-2.12
		c-0.37,0.1-0.74,0.21-1.1,0.31c-0.74,0.22-1.44,0.44-2.13,0.67c-0.19,0.06-0.4,0.12-0.59,0.19l8.33,4.85
		C639.42,226.33,639.37,226.12,639.33,225.92z"/>
	<path style="fill:#000300" d="M627.23,223.15c-0.96,0.4-1.86,0.83-2.72,1.27c-0.04,0.02-0.08,0.04-0.12,0.06c-0.13,0.06-0.25,0.13-0.38,0.2
		l16.34,9.51c0-0.13,0-0.28-0.01-0.43c0-0.04-0.01-0.08-0.01-0.12c-0.05-0.97-0.13-1.96-0.24-2.99l-0.74-0.43l-11.33-6.6
		L627.23,223.15z"/>
	<path style="fill:#000300" d="M620.79,226.52c-0.8,0.5-1.53,1.02-2.24,1.56c-0.13,0.1-0.29,0.19-0.41,0.29l21.91,12.76
		c0.02-0.16,0.03-0.34,0.05-0.5c0.11-0.88,0.21-1.77,0.25-2.71l-0.08-0.05l-19.4-11.3L620.79,226.52z"/>
	<path style="fill:#000300" d="M615.37,230.78c-0.56,0.54-1.07,1.09-1.57,1.66c-0.1,0.12-0.23,0.23-0.33,0.35l25.03,14.58
		c0.05-0.15,0.09-0.31,0.14-0.46c0.25-0.71,0.47-1.43,0.67-2.18c0.02-0.08,0.05-0.16,0.07-0.24l-23.84-13.88
		C615.48,230.66,615.43,230.72,615.37,230.78z"/>
	<path style="fill:#000300" d="M635.94,252.52c0.18-0.29,0.37-0.58,0.54-0.87l0.02-0.04c0.18-0.29,0.33-0.6,0.49-0.9
		c0.06-0.12,0.14-0.24,0.2-0.36l-25.68-14.95c-0.08,0.12-0.15,0.24-0.22,0.36c-0.18,0.29-0.37,0.58-0.54,0.87l-0.02,0.04
		c-0.17,0.29-0.33,0.6-0.49,0.9c-0.06,0.12-0.13,0.23-0.2,0.36l25.68,14.95C635.8,252.75,635.87,252.63,635.94,252.52z"/>
	<path style="fill:#000300" d="M607.91,262.35c0.15,0.72,0.29,1.43,0.47,2.18c0.08,0.36,0.17,0.72,0.27,1.1l3.64,2.12
		c0.37-0.1,0.74-0.21,1.1-0.31c0.73-0.22,1.43-0.44,2.12-0.67c0.2-0.06,0.41-0.12,0.6-0.19l-8.33-4.85
		C607.82,261.94,607.87,262.15,607.91,262.35z"/>
	<path style="fill:#000300" d="M620,265.11c0.97-0.4,1.87-0.83,2.74-1.27c0.04-0.02,0.08-0.04,0.12-0.05c0.12-0.06,0.25-0.13,0.37-0.19
		l-16.34-9.51c0,0.14,0.01,0.28,0.02,0.42c0,0.04,0.01,0.08,0.01,0.12c0.05,0.97,0.12,1.97,0.25,3l0.72,0.42l11.36,6.61L620,265.11z
		"/>
	<path style="fill:#000300" d="M626.45,261.74c0.06-0.04,0.11-0.08,0.17-0.11c0.06-0.69,0.26-1.34,0.59-1.94c-0.09-0.06-0.17-0.14-0.25-0.2
		c-1.38-0.96-2.92-1.65-4.57-2.05c-1.08-0.26-1.88-1.13-2.12-2.17c-0.04-0.18-0.04-0.37-0.05-0.56l-13.01-7.58
		c-0.02,0.16-0.03,0.34-0.05,0.5c-0.11,0.88-0.21,1.77-0.25,2.71l0.1,0.06l19.38,11.28L626.45,261.74z"/>
	<path style="fill:#000300" d="M626.96,252.04c0.53,0.1,1.06,0.23,1.58,0.39l-19.79-11.52c-0.05,0.14-0.09,0.3-0.14,0.45
		c-0.25,0.71-0.48,1.43-0.67,2.18c-0.02,0.08-0.05,0.16-0.07,0.24l14.07,8.19c0.2-0.09,0.43-0.12,0.65-0.15
		c0.11-0.02,0.21-0.07,0.33-0.08c0.28-0.01,0.55-0.02,0.82-0.02C624.8,251.72,625.89,251.83,626.96,252.04z"/>
	<path style="fill:#000300" d="M609.15,304.87l-0.56-0.32l-30.04-17.49l-1.56-0.91c-1.15,0.32-2.25,0.69-3.29,1.1l-0.16,0.28l36.41,21.2
		l0.85,0.5c-0.16-1.24-0.4-2.5-0.72-3.81L609.15,304.87z"/>
	<path style="fill:#000300" d="M586.38,284.47c-1.35,0.14-2.68,0.32-4,0.53c-0.14,0.02-0.29,0.03-0.43,0.06c-0.1,0.02-0.2,0.03-0.29,0.05
		l26,15.14l1.05,0.61c-0.04-0.1-0.07-0.19-0.1-0.29c-0.05-0.13-0.11-0.26-0.16-0.39c-0.47-1.26-0.97-2.5-1.52-3.75l-1.15-0.67
		l-1.35-0.78l-15.47-9.01L586.38,284.47z"/>
	<path style="fill:#000300" d="M602.07,286.48l-1.22-0.71l-3.41-1.99c-1.54,0.06-3.04,0.13-4.53,0.21c-0.28,0.01-0.58,0.02-0.86,0.04
		l11.26,6.55l1.22,0.71c-0.12-0.25-0.26-0.51-0.39-0.77C603.46,289.19,602.78,287.85,602.07,286.48z"/>
	<path style="fill:#000300" d="M597.8,270.44c2.72-0.43,6.33-0.93,8.77-1.39c-0.05-0.18-0.1-0.37-0.15-0.55c-0.76-2.57-1.4-5.41-1.84-8.22
		c-0.01-0.08-0.03-0.16-0.04-0.25c-0.22-1.44-0.41-2.86-0.5-4.21c-0.07-1.1-0.09-2.2-0.09-3.29c0-0.22,0.01-0.44,0.01-0.66
		c0.03-2.2,0.21-4.38,0.58-6.51c0.06-0.32,0.13-0.64,0.19-0.97c0.4-1.94,0.97-3.84,1.72-5.66c0.14-0.33,0.26-0.67,0.42-1
		c0.4-0.87,0.84-1.73,1.34-2.56c0.47-0.81,1.04-1.54,1.58-2.29c0.24-0.34,0.46-0.7,0.71-1.03c1.21-1.55,2.56-2.95,4.02-4.24
		c0.26-0.23,0.54-0.44,0.81-0.67c1.67-1.39,3.43-2.66,5.32-3.75c0.13-0.08,0.26-0.17,0.39-0.25c0.04-0.02,0.08-0.04,0.12-0.06
		c2.16-1.23,4.49-2.28,6.87-3.19c0.07-0.03,0.13-0.06,0.2-0.08c2.67-1.01,5.42-1.83,8.14-2.47c0.17-0.04,0.33-0.09,0.5-0.13
		c-0.66-1.93-2.28-6.1-3.12-8.33c-5.27,0.87-10.14,2.3-14.86,4.39c-8.04,3.59-15.03,9.21-19.55,16.93
		c-4.45,7.7-5.94,16.56-5.07,25.35C594.78,260.27,595.87,265.11,597.8,270.44z"/>
	<path style="fill:#000300" d="M611.57,282.83c-1.67,0.27-4.91,0.52-7.15,0.64c-0.08,0.01-0.16,0.01-0.25,0.01
		c-0.11,0.01-0.23,0.01-0.34,0.02c1.46,2.85,2.92,5.67,4.29,8.54c0.18,0.37,0.34,0.74,0.51,1.11c0.98,2.1,1.91,4.21,2.72,6.4
		c0.3,0.81,0.57,1.63,0.83,2.46c0.05,0.16,0.1,0.32,0.14,0.48c0.77,2.56,1.33,5.17,1.55,7.85c0.02,0.28,0.01,0.56,0.03,0.83
		c0.18,3.44-0.2,6.97-1.25,10.46c2.14-3.28,3.56-7.16,4.06-11.2c0.54-4.05,0.22-8.19-0.53-12.18
		C615.18,292.98,613.45,287.84,611.57,282.83z"/>
	<path style="fill:#000300" d="M672.1,203.09c-0.04,0.02-0.08,0.03-0.12,0.04l0.08,0.04L672.1,203.09z"/>
	<path style="fill:#000300" d="M578.88,282.7c3.07-0.67,6.26-1.09,9.47-1.36c0.43-0.03,0.85-0.06,1.28-0.09c3.21-0.23,6.43-0.35,9.53-0.47
		c0.14-0.01,0.3-0.01,0.44-0.02c0.61-0.03,1.24-0.05,1.89-0.08c3.46-0.15,7.43-0.38,11.79-1.09c4.1-0.66,8.54-1.79,13.27-3.7v-10.48
		v-0.29v-0.06c-0.17,0.1-0.35,0.21-0.52,0.31c-0.95,0.54-1.92,1.06-2.92,1.55c-1.33,0.64-2.64,1.18-3.95,1.69
		c-0.05,0.02-0.1,0.04-0.15,0.06c-2.74,1.04-5.45,1.82-8.16,2.45c-4.85,1.12-9.73,1.77-14.93,2.58c-9.13,1.45-19.17,3.56-26.55,9.15
		c-3.28,2.44-5.95,5.59-7.74,9.06c2.61-2.73,5.62-4.87,8.84-6.42c0.13-0.06,0.25-0.14,0.38-0.2c2.39-1.11,4.96-1.9,7.62-2.51
		C578.6,282.76,578.74,282.73,578.88,282.7z"/>
	<path style="fill:#000300" d="M638.37,212.55c0.9,2.33,1.68,4.71,2.39,7.11c0.8,2.74,1.47,5.52,1.91,8.34c0.01,0.08,0.02,0.16,0.03,0.23
		c0.21,1.4,0.41,2.8,0.51,4.22c0.1,1.11,0.13,2.23,0.13,3.35c0,0.17-0.01,0.35-0.01,0.52c-0.02,2.21-0.21,4.43-0.62,6.6
		c-0.06,0.31-0.13,0.62-0.2,0.93c-0.41,1.93-0.99,3.8-1.73,5.61c-0.15,0.36-0.29,0.73-0.45,1.08c-0.4,0.87-0.83,1.72-1.31,2.55
		c-0.49,0.84-1.02,1.64-1.57,2.41c-0.22,0.31-0.46,0.59-0.69,0.89c-0.12,0.15-0.23,0.31-0.35,0.45c0.18,0.15,0.37,0.31,0.55,0.47
		c2.19,1.93,4.16,4.17,6.01,6.43c0.16,0.2,0.31,0.39,0.47,0.58c1.67-1.87,3.17-3.88,4.45-6.07c4.47-7.73,5.95-16.54,5.07-25.36
		c-0.85-8.61-3.41-15.93-7.21-23.58c-3.62-7.28-7.31-13.72-9.84-20.62c-2.73-7.45-3.59-14.48-1.31-22.07
		c-4.57,7.03-5.07,15.1-3.53,23.37C632.53,197.81,635.57,205.12,638.37,212.55z"/>
	<path style="fill:#000300" d="M694.85,220.15c-0.19-0.07-0.4-0.13-0.59-0.2c-0.69-0.24-1.38-0.47-2.12-0.71c-0.36-0.11-0.72-0.23-1.09-0.33
		l-0.99,0.56l-2.69,1.51c-0.1,0.37-0.2,0.73-0.29,1.09c-0.19,0.75-0.35,1.47-0.51,2.18c-0.04,0.2-0.1,0.41-0.14,0.6l7.48-4.19
		L694.85,220.15z"/>
	<path style="fill:#000300" d="M685.45,231.95c0,0.04-0.01,0.08-0.01,0.12c-0.01,0.15-0.02,0.3-0.02,0.43l15.66-8.77l0.83-0.47
		c-0.12-0.07-0.25-0.14-0.37-0.2c-0.04-0.02-0.08-0.04-0.12-0.06c-0.85-0.45-1.75-0.9-2.7-1.31l-0.8,0.45l-0.09,0.05l-11.36,6.36
		l-0.73,0.41C685.61,229.99,685.52,230.98,685.45,231.95z"/>
	<path style="fill:#000300" d="M685.57,238.95c0.02,0.16,0.02,0.34,0.04,0.5l21.37-11.97l0.75-0.42c-0.13-0.1-0.28-0.19-0.41-0.3
		c-0.7-0.54-1.42-1.08-2.21-1.59l-0.08,0.04l-0.73,0.41l-18.88,10.57l-0.07,0.04C685.4,237.18,685.48,238.07,685.57,238.95z"/>
	<path style="fill:#000300" d="M686.92,245.25c0.05,0.15,0.08,0.31,0.13,0.46l24.54-13.74l0.73-0.41c-0.1-0.12-0.22-0.23-0.32-0.35
		c-0.49-0.57-0.99-1.14-1.54-1.68c-0.06-0.06-0.11-0.12-0.17-0.18l-0.7,0.39l-23.38,13.09c0.02,0.08,0.05,0.16,0.07,0.24
		C686.47,243.81,686.68,244.54,686.92,245.25z"/>
	<path style="fill:#000300" d="M688.97,249.99l0.02,0.04c0.17,0.3,0.35,0.59,0.52,0.88c0.07,0.12,0.14,0.24,0.21,0.36l25.25-14.14l0.68-0.38
		c-0.06-0.12-0.13-0.24-0.19-0.36c-0.16-0.31-0.31-0.61-0.48-0.91l-0.02-0.04c-0.17-0.3-0.35-0.59-0.52-0.88
		c-0.07-0.12-0.14-0.25-0.22-0.36l-0.73,0.41l-25.2,14.11c0.06,0.13,0.13,0.24,0.19,0.37C688.65,249.38,688.8,249.69,688.97,249.99z
		"/>
	<path style="fill:#000300" d="M709.12,265.31c0.19,0.07,0.4,0.13,0.6,0.2c0.69,0.24,1.38,0.47,2.11,0.7c0.36,0.11,0.72,0.23,1.09,0.33
		l2.7-1.51l0.97-0.55c0.11-0.38,0.2-0.73,0.29-1.1c0.19-0.74,0.35-1.46,0.5-2.17c0.04-0.2,0.1-0.41,0.14-0.61l-0.91,0.51
		L709.12,265.31z"/>
	<path style="fill:#000300" d="M718.52,253.51c0-0.04,0.01-0.08,0.01-0.12c0.01-0.15,0.02-0.29,0.02-0.42l-0.82,0.46l-15.68,8.78
		c0.11,0.07,0.24,0.13,0.36,0.2c0.04,0.02,0.08,0.04,0.12,0.06c0.86,0.45,1.75,0.89,2.71,1.31l0.77-0.43l11.35-6.35l0.14-0.08
		l0.71-0.4C718.36,255.48,718.46,254.49,718.52,253.51z"/>
	<path style="fill:#000300" d="M718.4,246.52c-0.02-0.16-0.02-0.34-0.04-0.5l-0.76,0.42l-14.07,7.88c0,0.02,0.01,0.03,0.01,0.04
		c0.02,0.17-0.03,0.33-0.04,0.5c-0.1,1.22-0.94,2.29-2.16,2.58c-1.46,0.35-2.78,0.93-4.04,1.73c0.51,0.38,1,0.76,1.55,1.12
		l0.09-0.05l18.86-10.56l0.72-0.4l0.08-0.05C718.58,248.29,718.5,247.39,718.4,246.52z"/>
	<path style="fill:#000300" d="M699.98,251.72c0.2,0,0.4,0.01,0.6,0.01c0.07,0,0.15,0,0.22,0.01c0.18,0.01,0.33,0.08,0.5,0.12l15.73-8.81
		l0.72-0.4c-0.02-0.08-0.05-0.16-0.07-0.24c-0.18-0.76-0.4-1.48-0.64-2.2c-0.05-0.15-0.08-0.31-0.13-0.45l-0.68,0.38l-24.38,13.65
		c1.11-0.57,2.23-1.02,3.36-1.36C696.79,251.96,698.38,251.72,699.98,251.72z"/>
	<path style="fill:#000300" d="M747.89,285.53l-1.57,0.88l-30.35,16.99l-0.54,0.3l-0.96,0.54c-0.34,1.3-0.6,2.56-0.78,3.79l0.86-0.48
		l36.76-20.58l-0.16-0.28C750.12,286.26,749.03,285.87,747.89,285.53z"/>
	<path style="fill:#000300" d="M718.95,294.66l-1.16,0.65c-0.57,1.23-1.09,2.47-1.58,3.72c-0.05,0.13-0.12,0.26-0.17,0.39
		c-0.04,0.1-0.07,0.19-0.11,0.29l1.06-0.6l26.25-14.7c-0.1-0.02-0.2-0.03-0.29-0.06c-0.14-0.03-0.29-0.04-0.43-0.06
		c-1.32-0.23-2.64-0.44-3.99-0.6l-2.6,1.46l-15.64,8.76L718.95,294.66z"/>
	<path style="fill:#000300" d="M727.49,282.82l-3.44,1.93l-1.23,0.69c-0.73,1.35-1.44,2.68-2.13,4.01c-0.13,0.25-0.27,0.51-0.4,0.76
		l1.23-0.69l11.37-6.36c-0.28-0.02-0.57-0.04-0.86-0.05C730.53,283.01,729.03,282.91,727.49,282.82z"/>
	<path style="fill:#000300" d="M689.18,215.39c0.16,0.04,0.33,0.1,0.49,0.14c2.7,0.68,5.44,1.55,8.09,2.6c0.07,0.03,0.13,0.06,0.2,0.09
		c2.37,0.95,4.67,2.04,6.81,3.3c0.04,0.02,0.09,0.04,0.13,0.07c0.13,0.08,0.25,0.16,0.38,0.24c1.91,1.15,3.73,2.45,5.4,3.9
		c0.22,0.19,0.44,0.39,0.65,0.59c1.46,1.33,2.81,2.79,4,4.38c0.23,0.3,0.45,0.61,0.67,0.92c0.54,0.78,1.06,1.58,1.53,2.41
		c0.49,0.84,0.91,1.7,1.3,2.58c0.15,0.33,0.27,0.67,0.4,1.01c0.72,1.83,1.26,3.74,1.63,5.69c0.06,0.32,0.13,0.64,0.18,0.97
		c0.34,2.14,0.47,4.33,0.47,6.52c0,0.22,0,0.44,0,0.66c-0.02,1.1-0.06,2.2-0.14,3.29c-0.12,1.35-0.33,2.77-0.57,4.2
		c-0.01,0.08-0.03,0.16-0.04,0.24c-0.49,2.79-1.17,5.62-1.98,8.18c-0.06,0.18-0.1,0.37-0.16,0.55c2.44,0.5,6.03,1.06,8.75,1.54
		c2.02-5.29,3.19-10.11,3.76-15.02c1.02-8.78-0.32-17.66-4.64-25.43c-4.39-7.8-11.28-13.54-19.26-17.26
		c-4.69-2.17-9.53-3.68-14.79-4.65C691.56,209.34,689.87,213.47,689.18,215.39z"/>
	<path style="fill:#000300" d="M648.38,203.1c4.24,3.32,9.56,5.56,14.73,7.02c3.87,1.12,7.79,1.9,11.66,2.58c0.13-0.3,0.25-0.59,0.38-0.87
		c0.9-2.06,1.96-4.19,3-6.17c-3.42-0.19-8.05-0.44-11.6-0.82c-5.77-0.61-11.47-1.65-16.64-4.16c-3.34-1.62-6.44-3.89-9.1-6.77
		C642.54,197.41,645.15,200.61,648.38,203.1z"/>
	<path style="fill:#000300" d="M716.67,290.9c1.42-2.84,2.92-5.64,4.43-8.47c-0.11-0.01-0.23-0.02-0.34-0.02c-0.08-0.01-0.16-0.01-0.25-0.02
		c-2.24-0.16-5.48-0.47-7.14-0.76c-1.96,4.98-3.78,10.08-4.88,15.34c-0.81,3.97-1.2,8.11-0.73,12.17c0.43,4.05,1.78,7.95,3.87,11.27
		c-0.99-3.5-1.3-7.04-1.07-10.48c0.02-0.28,0.02-0.56,0.04-0.83c0.27-2.67,0.87-5.28,1.68-7.82c0.05-0.16,0.1-0.32,0.15-0.48
		c0.27-0.82,0.56-1.64,0.87-2.44c0.85-2.17,1.82-4.28,2.83-6.35C716.31,291.64,716.48,291.27,716.67,290.9z"/>
	<path style="fill:#000300" d="M654.33,200.91c-0.04-0.01-0.08-0.02-0.12-0.04l0.05,0.08L654.33,200.91z"/>
	<path style="fill:#000300" d="M657.51,198.9l3.07-1.79l-3.09-1.76l-3.38-1.93l-0.29-0.16l-15.45-8.82c0.29,0.98,0.61,1.98,0.99,3
		c0.17,0.48,0.36,0.95,0.55,1.42l14.52,8.28L657.51,198.9z"/>
	<path style="fill:#000300" d="M687.21,185.77c0.05-0.14,0.1-0.27,0.15-0.4l-17.14,10.01l-3.07,1.79l-3.19,1.87l-2.39,1.39
		c1.73,0.31,3.4,0.52,4.93,0.69l0.55-0.32l18.31-10.7C686.02,188.67,686.65,187.23,687.21,185.77z"/>
	<path style="fill:#000300" d="M654.21,189.79l3.09,1.76l3.07-1.79l-3.09-1.76l-20.3-11.58c0.05,1.23,0.18,2.49,0.39,3.77L654.21,189.79z"/>
	<path style="fill:#000300" d="M689.62,176.58l-19.6,11.45l-3.07,1.79l-3.19,1.87l-3.07,1.79l3.09,1.76l3.07-1.79l22.04-12.87
		C689.22,179.21,689.47,177.88,689.62,176.58z"/>
	<path style="fill:#000300" d="M663.56,187.89l3.07-1.79l23.17-13.53c-0.03-1.13-0.14-2.26-0.32-3.38l-25.93,15.15l-25.92-14.79
		c-0.25,1.08-0.42,2.15-0.53,3.24l23.38,13.34L663.56,187.89z"/>
	<path style="fill:#000300" d="M677.87,201.95l2.01-1.17c0.09-0.17,0.18-0.34,0.27-0.51c0.85-1.58,1.68-3.13,2.48-4.67l-10.29,6.01
		c1.82,0.12,3.66,0.23,5.29,0.32L677.87,201.95z"/>
	<path style="fill:#000300" d="M680.47,207.56c-3.94,7.58-6.61,14.86-7.61,23.45c-1.02,8.8,0.31,17.64,4.64,25.44
		c1.23,2.19,2.68,4.21,4.3,6.09c1.59-1.89,3.28-3.75,5.21-5.43c0.51-0.44,1.02-0.85,1.54-1.24c0.2-0.15,0.4-0.28,0.6-0.42
		c-0.18-0.22-0.34-0.45-0.51-0.68c-0.22-0.3-0.46-0.58-0.67-0.89c-0.54-0.78-1.05-1.59-1.53-2.44c-0.47-0.83-0.88-1.69-1.26-2.57
		c-0.16-0.36-0.29-0.73-0.43-1.09c-0.71-1.82-1.26-3.71-1.64-5.64c-0.06-0.31-0.13-0.62-0.18-0.93c-0.37-2.18-0.52-4.4-0.51-6.61
		c0-0.17,0-0.35,0-0.52c0.02-1.12,0.08-2.24,0.19-3.35c0.12-1.41,0.34-2.81,0.58-4.21c0.01-0.08,0.02-0.16,0.03-0.23
		c0.49-2.81,1.2-5.58,2.05-8.31c0.14-0.46,0.28-0.93,0.43-1.39c0.64-1.92,1.32-3.82,2.08-5.68c0.92-2.31,1.85-4.62,2.76-6.93
		c1.99-5.06,3.83-10.15,4.94-15.49c1.68-8.25,1.31-16.33-3.13-23.43c2.15,7.63,1.17,14.65-1.69,22.05
		C688.01,193.96,684.21,200.34,680.47,207.56z"/>
	<path style="fill:#000300" d="M755.58,282.36c-7.28-5.72-17.28-7.99-26.39-9.6c-0.06-0.01-0.12-0.02-0.18-0.03
		c-4.59-0.79-8.94-1.45-13.23-2.43c-0.49-0.11-0.99-0.24-1.48-0.37c-2.7-0.67-5.39-1.5-8.12-2.59c-0.05-0.02-0.11-0.04-0.16-0.06
		c-1.3-0.52-2.6-1.09-3.92-1.75c-0.99-0.51-1.95-1.04-2.89-1.6c-0.19-0.11-0.37-0.23-0.55-0.34c-0.51-0.31-1.01-0.61-1.5-0.94v0.87
		v10.35c5.2,2.35,10.08,3.68,14.55,4.48c4.35,0.78,8.31,1.08,11.77,1.29c0.65,0.04,1.28,0.08,1.89,0.11
		c0.14,0.01,0.3,0.02,0.44,0.03c3.1,0.18,6.31,0.35,9.52,0.63c0.43,0.04,0.85,0.07,1.27,0.11c3.21,0.32,6.39,0.79,9.45,1.52
		c0.14,0.03,0.27,0.06,0.41,0.09c2.65,0.65,5.21,1.48,7.58,2.64c0.13,0.06,0.25,0.14,0.38,0.21c3.19,1.61,6.17,3.79,8.73,6.57
		C761.43,288.05,758.81,284.86,755.58,282.36z"/>
	<path style="fill:#000300" d="M693.86,281.81h0.05c-0.02-0.02-0.04-0.03-0.05-0.05V281.81z"/>
	<polygon style="fill:#000300" points="663.56,179.95 666.63,178.15 682.04,169.15 682.04,165.59 663.54,176.39 645.08,165.86 645.08,169.4 
		660.48,178.18 	"/>
	<polygon style="fill:#000300" points="663.56,172.24 666.63,170.44 673.16,166.63 667.06,166.63 659.95,166.63 653.74,166.63 660.48,170.47 
			"/>
	<polygon style="fill:#FFFFFF" points="688.5,375.12 688.5,279.57 712.16,288.68 712.16,375.12 	"/>
	<polygon style="fill:#FFFFFF" points="658.32,305.7 690.51,278.59 690.51,309.51 676.68,321.15 	"/>
	<polygon style="fill:#FFFFFF" points="644.23,322.14 610.41,293.68 631.15,280.21 661.8,306.01 678.23,319.85 659.87,335.3 	"/>
	<g>
		<g>
			<path style="fill:#00942A" d="M674.27,267.86v3.36v1.8c0.01-0.01,0.01-0.01,0.02-0.02c0.37-0.32,0.74-0.66,1.11-1.01
				c0.15-0.13,0.29-0.27,0.44-0.42v-1.94v-0.32c-0.15-0.14-0.29-0.29-0.44-0.42c-0.38-0.35-0.75-0.69-1.11-1.01
				C674.29,267.88,674.28,267.87,674.27,267.86z"/>
			<path style="fill:#00942A" d="M670.99,265.39c-0.01,0-0.01-0.01-0.02-0.01v8.53v1.59c0.01,0,0.01-0.01,0.02-0.01
				c0.06-0.03,0.12-0.07,0.18-0.11c0.45-0.29,0.91-0.61,1.37-0.96v-1.68v-6.28c-0.46-0.35-0.92-0.67-1.38-0.96
				C671.11,265.46,671.05,265.43,670.99,265.39z"/>
			<path style="fill:#00942A" d="M629.86,275.35v-0.9v-0.02v-7.96v-2.61v-0.91v-0.84v-1.25v-0.68c-0.46-0.45-0.92-0.85-1.4-1.22h-0.17v0.46
				v0.53v0.5v0.1v3.45v0.92v10.28v2.06v4.78c0.53-0.41,1.05-0.86,1.57-1.36V275.35z"/>
			<path style="fill:#00942A" d="M633.17,276.81v-4.13v-2.11v-4.18v-2.31c-0.4-0.54-0.81-1.06-1.22-1.58c-0.04-0.05-0.07-0.1-0.11-0.15
				c-0.04-0.05-0.08-0.11-0.13-0.17c-0.04-0.04-0.07-0.08-0.1-0.12v0.52v0.25v1.35v8.78v0.61v4.48v0.77
				c0.04-0.04,0.07-0.08,0.11-0.13c0.08-0.1,0.16-0.21,0.24-0.31C632.36,277.88,632.77,277.35,633.17,276.81z"/>
			<path style="fill:#00942A" d="M636.46,270.55v-1.54c-0.29-0.45-0.58-0.89-0.86-1.33c-0.23-0.36-0.47-0.74-0.71-1.09v1.6v0.83v2.6v2.7
				c0.53-0.79,1.04-1.6,1.57-2.43v-0.41V270.55z"/>
			<path style="fill:#00942A" d="M695.42,281.81v-4.53v-0.3v-3.95v-10.67v-0.92v-0.86v-1.22v-0.54c-0.35,0.27-0.7,0.59-1.05,0.9
				c-0.17,0.16-0.35,0.28-0.52,0.45v0.02v1.01v0.93v4.3v5.79v2.17v0.99v1.31v3.97c0.42,0.41,0.84,0.78,1.27,1.12H695.42z"/>
			<path style="fill:#00942A" d="M690.56,264.07v2.3v3.87v0.32v6.24c0.19,0.26,0.4,0.51,0.59,0.77c0.21,0.27,0.42,0.55,0.63,0.82
				c0.08,0.1,0.16,0.21,0.24,0.32c0.04,0.04,0.07,0.08,0.1,0.12v-0.77v-1.01v-4.07v-1.76v-6.95v-1.44v-0.77
				c-0.04,0.04-0.07,0.08-0.11,0.13c-0.08,0.1-0.16,0.21-0.24,0.31C691.36,263,690.95,263.53,690.56,264.07z"/>
			<path style="fill:#00942A" d="M687.26,269v2.46v0.41c0.53,0.83,1.05,1.64,1.57,2.43v-5.27v0v-0.85v-1.6c-0.24,0.36-0.47,0.73-0.7,1.09
				c-0.12,0.19-0.24,0.38-0.37,0.57C687.59,268.48,687.43,268.73,687.26,269z"/>
			<path style="fill:#00942A" d="M667.68,275.75v1.48c0.01,0,0.01-0.01,0.02-0.01c0.51-0.21,1.02-0.45,1.55-0.72v-1.52v-1.82v-5.42v-3.35
				c-0.52-0.27-1.04-0.51-1.55-0.72c-0.01,0-0.01-0.01-0.02-0.01V275.75z"/>
			<path style="fill:#00942A" d="M677.59,268.88c0.13,0.13,0.27,0.26,0.39,0.4c0.5-0.58,1.38-1.66,2.14-2.61c0.32-0.4,0.63-0.78,0.87-1.08
				c-0.29-0.35-0.61-0.64-0.91-0.98c-1.58-1.76-3.24-3.35-5.12-4.71c-3.83-2.75-8.31-4.47-13.1-4.48
				c-4.76,0.02-9.26,1.71-13.09,4.48c-1.82,1.31-3.49,2.83-5.14,4.68c-0.3,0.33-0.59,0.65-0.89,1c0.27,0.33,0.57,0.7,0.87,1.07
				c0.74,0.92,1.52,1.9,2.14,2.61c0.12-0.13,0.26-0.26,0.39-0.4c0.18-0.19,0.37-0.38,0.56-0.57c0.85-0.85,1.79-1.69,2.74-2.45
				c0.58-0.47,1.17-0.92,1.75-1.31c0.39-0.26,0.78-0.51,1.18-0.75c0.12-0.07,0.25-0.14,0.37-0.21c1.08-0.62,2.2-1.17,3.35-1.6
				c0.09-0.03,0.17-0.07,0.26-0.1c1.07-0.38,2.17-0.65,3.29-0.81c0.22-0.03,0.44-0.07,0.66-0.09c0.52-0.05,1.04-0.08,1.57-0.07
				c0.52,0,1.03,0.07,1.55,0.12c0.23,0.02,0.46,0.02,0.69,0.05c1.11,0.16,2.19,0.45,3.25,0.82c0.1,0.04,0.2,0.08,0.3,0.11
				c1.14,0.42,2.26,0.92,3.32,1.54c0.01,0,0.01,0.01,0.02,0.01c0.13,0.07,0.25,0.16,0.37,0.24c1.01,0.61,1.99,1.3,2.93,2.06
				c0.96,0.77,1.87,1.6,2.74,2.46C677.22,268.5,677.41,268.69,677.59,268.88z"/>
			<path style="fill:#00942A" d="M661.08,262.49v1.04v13.5v0.32v1.05c0.26,0.02,0.52,0.02,0.77,0.02h0.02c0.25,0,0.51,0,0.77-0.02v-1.01
				v-0.37V263.5v-1.01c-0.26-0.02-0.52-0.02-0.78-0.02h-0.02C661.59,262.47,661.34,262.47,661.08,262.49z"/>
			<path style="fill:#00942A" d="M648.32,268.88c-0.15,0.14-0.29,0.27-0.44,0.42v0.34v1.92c0.14,0.14,0.29,0.29,0.44,0.42
				c0.38,0.35,0.75,0.69,1.11,1.01c0.01,0.01,0.01,0.01,0.02,0.02v-1.82v-3.34c-0.01,0.01-0.01,0.01-0.02,0.02
				C649.06,268.19,648.69,268.53,648.32,268.88z"/>
			<path style="fill:#00942A" d="M652.55,265.5c-0.45,0.29-0.91,0.61-1.38,0.96v6.24v1.72c0.47,0.35,0.93,0.67,1.38,0.96
				c0.06,0.04,0.12,0.07,0.17,0.11c0.01,0,0.01,0.01,0.02,0.01v-1.59v-8.53c-0.01,0-0.01,0.01-0.02,0.01
				C652.67,265.42,652.61,265.46,652.55,265.5z"/>
			<path style="fill:#00942A" d="M654.48,267.72v5.43v1.8v1.55c0.52,0.28,1.04,0.52,1.55,0.72c0,0,0.01,0.01,0.02,0.01v-1.49v-12.09
				c0,0-0.01,0.01-0.02,0.01c-0.51,0.21-1.02,0.45-1.55,0.72V267.72z"/>
			<path style="fill:#00942A" d="M657.78,265.26v10.35v0.81v1.4c0.51,0.15,1.03,0.27,1.55,0.36c0.01,0,0.01,0,0.02,0v-1.36v-14.14
				c-0.01,0-0.01,0-0.02,0c-0.51,0.09-1.03,0.21-1.55,0.36V265.26z"/>
			<path style="fill:#00942A" d="M664.37,276.82v1.37c0.01,0,0.01,0,0.02,0c0.51-0.09,1.03-0.21,1.55-0.36v-1.41v-0.76v-10.41v-2.18
				c-0.52-0.15-1.03-0.27-1.55-0.36c-0.01,0-0.01,0-0.02,0V276.82z"/>
			<path style="fill:#00942A" d="M685.51,268.83c0.35-0.54,0.69-1.07,1.03-1.6c0.05-0.08,0.1-0.15,0.15-0.23c1.18-1.83,2.37-3.58,3.67-5.23
				c0.15-0.19,0.29-0.4,0.45-0.59c0.49-0.59,1-1.1,1.51-1.62c0.11-0.12,0.22-0.25,0.33-0.36c0.01-0.01,0.01-0.01,0.02-0.02
				c0.57-0.56,1.18-1.06,1.8-1.53c1.8-1.39,3.8-2.45,6.2-3.02c-2.47-0.12-4.75,0.43-6.87,1.43c-0.04,0.02-0.09,0.04-0.13,0.06
				c-0.17,0.08-0.34,0.16-0.5,0.24c-0.39,0.2-0.77,0.42-1.14,0.65c-0.32,0.2-0.64,0.4-0.96,0.62c-0.2,0.14-0.41,0.28-0.61,0.43
				c-0.52,0.39-1.04,0.79-1.55,1.23c-1.08,0.94-2.08,1.97-3.04,3.01c-0.72,0.78-1.41,1.57-2.09,2.38c-1,1.2-1.99,2.42-2.97,3.64
				c-0.12,0.14-0.23,0.28-0.34,0.43c-0.9,1.12-1.86,2.2-2.86,3.24c-1.04,1.08-2.13,2.1-3.3,3.03c-0.57,0.46-1.15,0.91-1.75,1.32
				c-0.38,0.27-0.8,0.48-1.2,0.73c-0.12,0.07-0.23,0.15-0.35,0.22c-1.07,0.63-2.18,1.19-3.35,1.61c-0.1,0.04-0.19,0.08-0.29,0.11
				c-1.06,0.36-2.15,0.6-3.25,0.76c-0.24,0.03-0.48,0.04-0.72,0.07c-0.51,0.05-1.02,0.14-1.53,0.14c-0.53,0-1.02-0.09-1.53-0.14
				c-0.24-0.02-0.48-0.03-0.72-0.06c-1.11-0.16-2.2-0.4-3.25-0.77c-0.1-0.03-0.19-0.07-0.28-0.11c-1.15-0.43-2.26-1-3.35-1.63
				c-0.12-0.07-0.23-0.14-0.35-0.21c-0.4-0.24-0.81-0.46-1.21-0.72c-0.62-0.42-1.19-0.85-1.75-1.29c-1.21-0.97-2.29-1.99-3.3-3.05
				c-1.12-1.18-2.16-2.4-3.2-3.68c-0.5-0.62-1.01-1.24-1.52-1.88c-0.23-0.29-0.46-0.57-0.69-0.86c-0.91-1.12-1.88-2.25-2.9-3.35
				c-0.88-0.95-1.81-1.87-2.78-2.73c-0.19-0.16-0.37-0.33-0.56-0.49c-0.77-0.64-1.56-1.23-2.39-1.76c-0.12-0.08-0.24-0.15-0.36-0.22
				c-0.72-0.44-1.46-0.85-2.23-1.18c-0.06-0.02-0.11-0.06-0.17-0.08c-0.67-0.28-1.35-0.5-2.05-0.68c-1.4-0.36-2.83-0.53-4.23-0.46
				c2.05,0.49,3.92,1.35,5.55,2.49c0.23,0.16,0.45,0.35,0.68,0.53c1.19,0.92,2.28,1.99,3.3,3.17c0.02,0.02,0.04,0.04,0.06,0.07
				c0.08,0.09,0.15,0.18,0.22,0.26c0.17,0.21,0.34,0.43,0.51,0.64c1.32,1.66,2.53,3.45,3.67,5.23c0.4,0.62,0.79,1.23,1.17,1.83
				c0.03,0.05,0.07,0.1,0.1,0.15c0.02,0.03,0.04,0.07,0.06,0.1c0.82,1.28,1.75,2.75,2.88,4.3c1.05,1.44,2.28,2.95,3.8,4.45
				c1.08,1.07,2.3,2.12,3.71,3.14c3.92,2.81,8.41,4.48,13.1,4.48c4.78-0.02,9.25-1.7,13.1-4.48c1.38-1,2.59-2.08,3.73-3.21
				c1.37-1.36,2.62-2.81,3.77-4.39c0.5-0.68,0.99-1.36,1.47-2.08C684.47,270.46,684.99,269.64,685.51,268.83z"/>
			<path style="fill:#00942A" d="M638.49,272.16c-0.06-0.09-0.12-0.18-0.17-0.26c-0.03,0.05-0.07,0.1-0.1,0.16c-0.23,0.35-0.46,0.7-0.68,1.05
				c-1.32,2.06-2.66,4.08-4.18,6c-0.15,0.19-0.28,0.4-0.44,0.6c-1.09,1.31-2.31,2.49-3.66,3.53c-0.22,0.17-0.42,0.38-0.66,0.54
				c-1.63,1.13-3.5,1.99-5.55,2.48c2.09,0.11,4.27-0.28,6.28-1.14c0.83-0.35,1.62-0.78,2.39-1.25c1.1-0.67,2.14-1.44,3.11-2.28
				c1.06-0.92,2.06-1.92,3.01-2.96c0.69-0.75,1.35-1.54,2-2.32c0.29-0.34,0.59-0.67,0.87-1.02c-0.07-0.09-0.16-0.21-0.24-0.31
				C639.89,274.22,639.07,273.04,638.49,272.16z"/>
			<path style="fill:#00942A" d="M695.12,283.77c-0.24-0.16-0.44-0.36-0.67-0.53c-1.54-1.19-2.89-2.6-4.11-4.13
				c-0.13-0.16-0.25-0.32-0.37-0.48c-0.39-0.5-0.77-1.01-1.14-1.54c-0.84-1.18-1.8-2.66-2.64-3.99c-0.24-0.37-0.46-0.73-0.68-1.06
				c-0.03-0.05-0.07-0.11-0.1-0.15c-0.65,1-1.37,2.05-2.1,3.01c-0.02,0.03-0.04,0.05-0.06,0.08c-0.08,0.11-0.16,0.22-0.25,0.33
				c0.28,0.34,0.58,0.68,0.86,1.02c0.65,0.77,1.32,1.53,2.01,2.28c0.46,0.49,0.9,0.99,1.38,1.47c0.5,0.5,1.03,1,1.58,1.47
				c0.98,0.85,2.05,1.63,3.16,2.31c0.78,0.48,1.57,0.91,2.39,1.26c0.8,0.34,1.64,0.59,2.48,0.78c1.26,0.29,2.55,0.42,3.8,0.36
				c-1.07-0.26-2.09-0.63-3.06-1.08C696.73,284.77,695.9,284.31,695.12,283.77z"/>
		</g>
	</g>
	<g>
		<polygon style="fill:#FFFFFF" points="612.22,292.58 609.45,294.43 609.45,375.12 633.1,375.12 633.1,310.15 		"/>
	</g>
	<g>
		<polygon style="fill:#E30011" points="691.5,283.94 709.16,290.74 709.16,372.12 691.5,372.12 		"/>
		<polygon style="fill:#E30011" points="687.51,285.04 687.51,308.12 676.68,317.23 662.98,305.7 		"/>
		<polygon style="fill:#E30011" points="673.57,319.85 659.87,331.38 646.16,319.85 615.44,293.99 630.92,283.94 659.87,308.31 		"/>
		<polygon style="fill:#E30011" points="630.1,311.55 630.1,372.12 612.45,372.12 612.45,296.69 		"/>
	</g>
	<g>
		<path style="fill:#00942A" d="M516.58,304.51l13.86-3.91l1.38,4.91c0.76,2.71,0.02,4.38-2.23,5.01c-0.84,0.24-1.6,0.27-2.28,0.09
			c-0.8-0.21-1.35-0.7-1.64-1.46c0.09,0.87-0.11,1.62-0.6,2.23c-0.46,0.57-1.13,0.98-2,1.22c-1.39,0.39-2.5,0.32-3.33-0.21
			c-0.78-0.5-1.37-1.46-1.77-2.88L516.58,304.51z M519.54,306.69l0.39,1.38c0.4,1.43,1.26,1.96,2.57,1.59
			c1.31-0.37,1.77-1.24,1.38-2.61l-0.42-1.47L519.54,306.69z M525.61,304.97l0.46,1.64c0.33,1.15,1.1,1.56,2.33,1.21
			c1.09-0.31,1.47-1.04,1.15-2.19l-0.46-1.63L525.61,304.97z"/>
		<path style="fill:#00942A" d="M535.21,315.77c0.56,1.51,0.76,2.63,0.58,3.38c-0.23,0.92-1.04,1.64-2.45,2.17c-0.92,0.34-1.66,0.5-2.23,0.45
			c-0.75-0.07-1.38-0.45-1.86-1.16c0.15,0.96,0.02,1.69-0.41,2.17c-0.32,0.36-0.99,0.74-2.01,1.12c-0.07,0.03-0.19,0.07-0.34,0.11
			c-0.16,0.05-0.27,0.09-0.34,0.12c-1.16,0.43-2.04,0.9-2.66,1.4l-1.1-2.94c0.38-0.29,1.25-0.69,2.59-1.21
			c0.4-0.16,0.75-0.3,1.05-0.42c0.61-0.25,1.02-0.52,1.22-0.81c0.24-0.36,0.25-0.83,0.03-1.41l-0.44-1.18l-5.56,2.08l-1.05-2.82
			l13.49-5.05L535.21,315.77z M528.94,316.76l0.26,0.7c0.28,0.74,0.61,1.21,1.01,1.41c0.39,0.2,0.96,0.17,1.68-0.11
			c0.71-0.27,1.14-0.6,1.28-1c0.12-0.35,0.05-0.9-0.23-1.64l-0.28-0.75L528.94,316.76z"/>
		<path style="fill:#00942A" d="M524.65,328.08l13.15-5.88l1.2,2.68l-13.15,5.88L524.65,328.08z"/>
		<path style="fill:#00942A" d="M540.1,327.39l2.22,4.21c0.97,1.84,1,3.43,0.08,4.76c-0.66,0.95-2.02,1.96-4.09,3.06
			c-2.07,1.09-3.68,1.64-4.83,1.65c-1.62,0.01-2.92-0.91-3.89-2.75l-2.22-4.21L540.1,327.39z M539.6,331.12l-8.81,4.65l0.61,1.15
			c0.56,1.05,1.42,1.46,2.6,1.21c0.54-0.11,1.54-0.55,2.98-1.31c1.44-0.76,2.36-1.33,2.76-1.72c0.87-0.83,1.03-1.78,0.47-2.83
			L539.6,331.12z"/>
		<path style="fill:#00942A" d="M545.17,349.53l-6.14,3.97c-1.25-1.33-2.16-2.44-2.74-3.33c-0.94-1.45-1.33-2.67-1.19-3.65
			c0.14-0.98,0.77-1.97,1.88-2.96c0.57-0.5,1.54-1.2,2.92-2.1c2.18-1.41,3.87-2.1,5.06-2.08c1.33,0.02,2.53,0.85,3.59,2.5
			c1.66,2.58,1.26,4.66-1.2,6.25l-0.18,0.12l-1.61-2.49l0.15-0.09c1.35-0.87,1.71-1.79,1.08-2.76c-0.53-0.82-1.45-0.95-2.77-0.39
			c-0.38,0.16-1.3,0.71-2.74,1.64c-1.54,0.99-2.46,1.65-2.78,1.97c-0.93,0.96-1.06,1.94-0.42,2.94c0.22,0.34,0.56,0.73,0.99,1.14
			l2.71-1.75l-0.9-1.4l1.89-1.22L545.17,349.53z"/>
		<path style="fill:#00942A" d="M540.75,356.27l11.58-8.57l1.75,2.36l-11.58,8.57L540.75,356.27z"/>
		<path style="fill:#00942A" d="M544.55,361.43l10.97-9.34l2.62,3.08l-3.91,6.95c-0.95,1.69-1.9,3.15-2.83,4.39c0.42-0.46,0.89-0.92,1.39-1.4
			c0.15-0.15,0.71-0.64,1.65-1.48l6.21-5.51l1.8,2.12l-10.97,9.34l-2.56-3l4.11-7.33c0.58-1.04,1.5-2.46,2.76-4.26
			c-1.23,1.23-2.23,2.19-3.02,2.88l-6.42,5.7L544.55,361.43z"/>
		<path style="fill:#00942A" d="M566.04,373.41l-5.12,5.22c-1.51-1.03-2.64-1.91-3.4-2.65c-1.23-1.21-1.89-2.31-1.96-3.3
			c-0.08-0.99,0.32-2.09,1.18-3.3c0.44-0.62,1.24-1.51,2.39-2.69c1.82-1.85,3.31-2.9,4.48-3.14c1.3-0.27,2.65,0.28,4.05,1.64
			c2.19,2.15,2.26,4.27,0.2,6.37l-0.15,0.15l-2.11-2.07l0.12-0.12c1.12-1.14,1.27-2.12,0.44-2.93c-0.7-0.69-1.63-0.61-2.78,0.22
			c-0.34,0.24-1.11,0.98-2.31,2.21c-1.28,1.31-2.04,2.15-2.28,2.54c-0.69,1.14-0.61,2.12,0.24,2.96c0.29,0.29,0.7,0.59,1.22,0.9
			l2.26-2.3l-1.19-1.16l1.58-1.61L566.04,373.41z"/>
		<path style="fill:#00942A" d="M579.64,384.43l-4.45,5.81c-1.62-0.83-2.86-1.58-3.7-2.22c-1.37-1.05-2.15-2.06-2.35-3.04
			c-0.2-0.98,0.06-2.12,0.78-3.42c0.36-0.67,1.04-1.65,2.05-2.96c1.58-2.06,2.93-3.28,4.06-3.67c1.26-0.43,2.67-0.05,4.22,1.14
			c2.43,1.87,2.76,3.96,0.97,6.29l-0.13,0.17l-2.35-1.8l0.11-0.14c0.97-1.27,1-2.26,0.09-2.96c-0.78-0.6-1.69-0.41-2.74,0.56
			c-0.31,0.28-0.98,1.11-2.03,2.47c-1.11,1.45-1.76,2.38-1.96,2.8c-0.55,1.21-0.35,2.18,0.6,2.91c0.33,0.25,0.77,0.5,1.32,0.74
			l1.96-2.56l-1.32-1.01l1.37-1.79L579.64,384.43z"/>
		<path style="fill:#00942A" d="M584.3,396.53l1.07-3.12l-3.52-2.25l-2.36,2.29l-2.55-1.63l11.17-9.96l3.24,2.06l-4.36,14.3L584.3,396.53z
			 M583.51,389.6l2.59,1.65l2.09-6.07L583.51,389.6z"/>
		<path style="fill:#00942A" d="M600.21,388.96c1.46,0.77,2.35,1.57,2.64,2.42c0.31,0.88,0.08,2.05-0.67,3.5c-0.72,1.37-1.54,2.2-2.46,2.5
			c-0.55,0.18-1.13,0.19-1.73,0.02c-0.37-0.1-0.9-0.34-1.61-0.71l-1.68-0.88l-2.69,5.12l-2.78-1.46l6.69-12.76L600.21,388.96z
			 M597.61,390.16l-1.87,3.57l0.88,0.46c0.74,0.39,1.31,0.53,1.71,0.42c0.4-0.1,0.79-0.52,1.17-1.23c0.34-0.66,0.46-1.17,0.36-1.56
			c-0.1-0.38-0.48-0.74-1.13-1.08L597.61,390.16z"/>
		<path style="fill:#00942A" d="M601.42,400.72l2.82,1.2l-0.15,0.35c-0.27,0.62-0.37,1.12-0.3,1.48c0.08,0.45,0.41,0.8,1,1.05
			c0.92,0.39,1.59,0.11,2-0.87c0.27-0.63-0.02-1.58-0.87-2.84c-0.03-0.05-0.07-0.11-0.13-0.18c-0.41-0.58-0.94-1.45-1.61-2.61
			c-0.28-0.62-0.43-1.16-0.46-1.61c-0.02-0.49,0.09-1.04,0.35-1.64c0.5-1.17,1.3-1.91,2.41-2.21c1.01-0.27,2.13-0.15,3.34,0.36
			c2.66,1.13,3.47,2.91,2.44,5.34l-0.15,0.35l-2.74-1.17l0.03-0.07c0.53-1.25,0.35-2.07-0.54-2.45c-0.41-0.17-0.79-0.19-1.13-0.04
			s-0.61,0.43-0.78,0.84c-0.3,0.71,0.12,1.84,1.25,3.41c0.2,0.28,0.43,0.6,0.67,0.96c0.56,0.82,0.92,1.52,1.07,2.09
			c0.19,0.76,0.13,1.52-0.2,2.29c-1.11,2.59-3.15,3.25-6.14,1.98c-1.36-0.58-2.24-1.31-2.64-2.19c-0.41-0.91-0.33-2.03,0.24-3.38
			c0.02-0.05,0.06-0.13,0.11-0.23S601.4,400.78,601.42,400.72z"/>
		<path style="fill:#00942A" d="M616.44,411.39l4.03-13.83l4.89,1.43c2.7,0.79,3.72,2.3,3.07,4.55c-0.24,0.84-0.62,1.5-1.13,1.98
			c-0.61,0.56-1.31,0.77-2.11,0.62c0.79,0.39,1.31,0.95,1.57,1.69c0.24,0.69,0.23,1.47-0.02,2.34c-0.41,1.39-1.05,2.29-1.94,2.71
			c-0.84,0.39-1.97,0.38-3.38-0.03L616.44,411.39z M619.85,410.04l1.38,0.4c1.43,0.42,2.33-0.03,2.71-1.34
			c0.38-1.31-0.12-2.16-1.48-2.56l-1.46-0.43L619.85,410.04z M621.62,403.98l1.63,0.47c1.15,0.33,1.9-0.11,2.26-1.33
			c0.32-1.09-0.1-1.8-1.25-2.13l-1.63-0.47L621.62,403.98z"/>
		<path style="fill:#00942A" d="M641.26,402.63l-1.76,8.85c-0.37,1.87-0.97,3.16-1.79,3.88c-0.94,0.82-2.31,1.05-4.11,0.69
			c-1.68-0.33-2.83-1.01-3.44-2.04c-0.58-0.98-0.69-2.32-0.36-4.02l1.84-9.26l2.95,0.59l-1.68,8.5c-0.25,1.26-0.36,2.09-0.32,2.48
			c0.07,0.9,0.57,1.44,1.49,1.62c0.87,0.17,1.51-0.16,1.94-0.99c0.2-0.39,0.41-1.17,0.65-2.37l1.68-8.5L641.26,402.63z"/>
		<path style="fill:#00942A" d="M641.9,417.21l1.87-14.28l2.92,0.38l-1.87,14.28L641.9,417.21z"/>
		<path style="fill:#00942A" d="M648.16,417.98l1.1-14.36l3.03,0.23l-0.9,11.83l4.39,0.34l-0.19,2.53L648.16,417.98z"/>
		<path style="fill:#00942A" d="M658.31,404.26l4.76-0.01c2.08,0,3.5,0.71,4.25,2.15c0.53,1.02,0.79,2.7,0.8,5.05c0,2.34-0.26,4.02-0.78,5.04
			c-0.75,1.44-2.16,2.16-4.24,2.16l-4.76,0.01L658.31,404.26z M661.37,406.45l0.01,9.96l1.3,0c1.19,0,1.95-0.58,2.28-1.74
			c0.15-0.53,0.23-1.62,0.23-3.24c0-1.63-0.08-2.71-0.24-3.24c-0.33-1.16-1.1-1.74-2.29-1.73L661.37,406.45z"/>
		<path style="fill:#00942A" d="M671.36,418.43l-0.96-14.37l2.93-0.2l0.96,14.37L671.36,418.43z"/>
		<path style="fill:#00942A" d="M677.76,418.01l-1.92-14.28l4.01-0.54l3.73,7.05c0.91,1.72,1.63,3.3,2.16,4.75c-0.16-0.6-0.3-1.24-0.43-1.92
			c-0.04-0.21-0.16-0.94-0.35-2.19l-1.28-8.2l2.76-0.37l1.92,14.28l-3.91,0.53l-3.95-7.42c-0.56-1.05-1.26-2.6-2.09-4.62
			c0.37,1.7,0.63,3.06,0.79,4.09l1.32,8.48L677.76,418.01z"/>
		<path style="fill:#00942A" d="M699.47,406.44l1.62,7.13c-1.68,0.71-3.04,1.19-4.07,1.42c-1.68,0.38-2.96,0.34-3.84-0.14
			c-0.87-0.47-1.58-1.4-2.13-2.79c-0.28-0.7-0.6-1.86-0.96-3.47c-0.57-2.53-0.65-4.36-0.22-5.47c0.48-1.24,1.67-2.08,3.58-2.51
			c2.99-0.68,4.81,0.42,5.46,3.28l0.05,0.21l-2.89,0.65l-0.04-0.17c-0.35-1.56-1.09-2.22-2.22-1.96c-0.95,0.22-1.4,1.04-1.32,2.46
			c0.02,0.42,0.22,1.46,0.6,3.14c0.4,1.78,0.7,2.88,0.9,3.29c0.58,1.2,1.45,1.66,2.62,1.4c0.4-0.09,0.87-0.27,1.41-0.54l-0.71-3.14
			l-1.62,0.37l-0.5-2.2L699.47,406.44z"/>
		<path style="fill:#00942A" d="M712.6,410.28l-2.83,1.02l-4.87-13.56l2.83-1.02l1.9,5.28l3.09-1.11l-1.89-5.28l2.83-1.02l4.87,13.56
			l-2.83,1.02l-2.15-6l-3.09,1.11L712.6,410.28z"/>
		<path style="fill:#00942A" d="M721.82,406.78l-5.93-13.13l7.09-3.21l0.92,2.03l-4.32,1.95l1.42,3.13l3.98-1.8l0.91,2.02l-3.98,1.8
			l1.73,3.83l4.48-2.03l0.96,2.12L721.82,406.78z"/>
		<path style="fill:#00942A" d="M738.5,398.45l-2.23-2.43l-3.66,2.02l0.89,3.17l-2.65,1.47l-3.42-14.57l3.36-1.86l10.48,10.66L738.5,398.45z
			 M732.03,395.84l2.69-1.49l-4.33-4.74L732.03,395.84z"/>
		<path style="fill:#00942A" d="M743.33,395.55l-7.93-12.02l2.54-1.67l6.54,9.9l3.68-2.43l1.4,2.12L743.33,395.55z"/>
		<path style="fill:#00942A" d="M752.44,389.3l-7.24-9.62l-2.62,1.97l-1.42-1.89l7.73-5.82l1.42,1.89l-2.64,1.99l7.24,9.62L752.44,389.3z"/>
		<path style="fill:#00942A" d="M761.67,381.92l-2.25,1.99l-9.55-10.78l2.25-1.99l3.72,4.2l2.46-2.18l-3.72-4.2l2.25-1.99l9.55,10.78
			l-2.25,1.99l-4.23-4.77l-2.46,2.18L761.67,381.92z"/>
		<path style="fill:#00942A" d="M768.81,375.31l-10.21-10.16l2.07-2.08l10.21,10.16L768.81,375.31z"/>
		<path style="fill:#00942A" d="M773.26,370.8l-10.77-9.57l5.17-5.82l1.67,1.48l-3.15,3.55l2.57,2.28l2.9-3.26l1.66,1.47l-2.9,3.26l3.14,2.79
			l3.27-3.68l1.74,1.54L773.26,370.8z"/>
		<path style="fill:#00942A" d="M771.58,350.4c0.97-1.28,1.82-2.04,2.55-2.29c0.9-0.3,1.95,0.01,3.14,0.92c0.78,0.6,1.31,1.15,1.57,1.65
			c0.35,0.67,0.35,1.4,0.01,2.19c0.73-0.64,1.42-0.91,2.05-0.81c0.47,0.08,1.15,0.44,2.02,1.11c0.06,0.05,0.16,0.12,0.28,0.23
			s0.22,0.18,0.28,0.23c0.99,0.75,1.85,1.25,2.6,1.5l-1.9,2.5c-0.45-0.17-1.25-0.69-2.41-1.55c-0.35-0.26-0.65-0.48-0.91-0.67
			c-0.54-0.38-0.98-0.58-1.34-0.6c-0.43-0.01-0.84,0.23-1.21,0.73l-0.76,1.01l4.73,3.59l-1.82,2.39L769,353.81L771.58,350.4z
			 M775.77,355.17l0.45-0.59c0.48-0.63,0.7-1.17,0.66-1.61c-0.04-0.44-0.37-0.9-0.99-1.36c-0.61-0.46-1.12-0.64-1.53-0.55
			c-0.37,0.08-0.79,0.44-1.27,1.07l-0.49,0.64L775.77,355.17z"/>
		<path style="fill:#00942A" d="M790.75,348.05l-12.35-7.41l1.56-2.61l10.18,6.1l2.27-3.78l2.18,1.31L790.75,348.05z"/>
		<path style="fill:#00942A" d="M795.67,339.59l-12.73-6.74l1.38-2.6l12.73,6.74L795.67,339.59z"/>
		<path style="fill:#00942A" d="M799.63,331.82L785,329.14l1.3-2.86l7.46,1.77c1.04,0.24,2.59,0.65,4.63,1.23c-1.54-0.92-2.87-1.8-3.99-2.65
			l-6.13-4.68l1.26-2.76l11.57,9.39L799.63,331.82z"/>
		<path style="fill:#00942A" d="M803.45,322.98l-13.53-4.95l2.67-7.31l2.09,0.77l-1.63,4.46l3.23,1.18l1.5-4.1l2.08,0.76l-1.5,4.1l3.94,1.44
			l1.69-4.62l2.18,0.8L803.45,322.98z"/>
		<path style="fill:#00942A" d="M802.73,311.8l0.83-2.95l0.37,0.1c0.65,0.18,1.16,0.22,1.51,0.11c0.44-0.14,0.74-0.51,0.91-1.12
			c0.27-0.96-0.1-1.59-1.11-1.88c-0.66-0.19-1.56,0.22-2.71,1.23c-0.04,0.04-0.1,0.08-0.16,0.15c-0.53,0.48-1.32,1.12-2.38,1.93
			c-0.58,0.36-1.09,0.58-1.54,0.66c-0.48,0.09-1.04,0.04-1.67-0.13c-1.23-0.34-2.06-1.05-2.5-2.1c-0.4-0.97-0.43-2.09-0.07-3.36
			c0.78-2.78,2.44-3.82,4.98-3.1l0.37,0.1l-0.81,2.87l-0.08-0.02c-1.31-0.37-2.1-0.08-2.36,0.85c-0.12,0.43-0.09,0.81,0.1,1.13
			c0.19,0.32,0.5,0.55,0.93,0.67c0.74,0.21,1.81-0.35,3.22-1.68c0.26-0.24,0.54-0.5,0.86-0.79c0.74-0.66,1.39-1.11,1.94-1.33
			c0.72-0.29,1.49-0.32,2.3-0.09c2.71,0.76,3.63,2.71,2.75,5.83c-0.4,1.42-1.01,2.39-1.83,2.9c-0.84,0.53-1.97,0.59-3.38,0.19
			c-0.06-0.02-0.14-0.04-0.24-0.08C802.87,311.85,802.79,311.82,802.73,311.8z"/>
	</g>
	<g>
		<path style="fill:#00942A" d="M514.03,214.15l3.75-9.67l30.8,4.27c0.55,0.06,1.04,0.09,1.49,0.08c0.36-0.03,0.73-0.25,1.12-0.67
			c0.34-0.35,0.62-0.57,0.86-0.66c0.24-0.09,0.51-0.08,0.81,0.04c0.83,0.32,1.01,1.11,0.52,2.36l-4.65,11.98
			c-0.19,0.48-0.45,0.82-0.79,1.02c-0.34,0.2-0.71,0.22-1.09,0.07c-0.32-0.12-0.54-0.28-0.65-0.47c-0.11-0.19-0.2-0.56-0.27-1.1
			c-0.04-0.38-0.12-0.67-0.27-0.88c-0.14-0.2-0.36-0.36-0.65-0.47c-0.27-0.11-0.52-0.17-0.75-0.21l-3.78-0.58l-2.6,6.7l-2.61-1.76
			l2.09-5.38l-21.23-3.16L514.03,214.15z M519.49,218.17l5.44,0.7l13.86,10.27c0.4,0.3,0.79,0.53,1.17,0.68
			c1.01,0.39,1.91,0.2,2.71-0.58l0.71-0.69c0.45-0.44,0.95-0.54,1.51-0.33c0.8,0.31,0.97,1.05,0.52,2.22l-2.37,6.1
			c-0.23,0.59-0.53,1.01-0.92,1.26c-0.38,0.25-0.79,0.29-1.22,0.12c-0.46-0.18-0.71-0.68-0.74-1.5c-0.03-0.77-0.11-1.35-0.22-1.75
			c-0.11-0.4-0.31-0.83-0.6-1.27c-0.48-0.7-1.21-1.41-2.19-2.12L519.49,218.17z"/>
		<path style="fill:#00942A" d="M535.22,173.22l2.37,1.78c-0.41,1.03-0.53,1.95-0.38,2.76c0.15,0.81,0.59,1.49,1.3,2.02
			c0.69,0.52,1.43,0.78,2.22,0.79c0.79,0.02,1.74-0.22,2.83-0.71c0.75-0.34,2.33-1.19,4.75-2.56c1.46-0.84,2.66-1.43,3.61-1.79
			c0.94-0.36,1.96-0.59,3.06-0.71c2.92-0.34,5.55,0.36,7.9,2.12c1.77,1.33,3.06,2.98,3.88,4.96c0.81,1.98,1.06,4.06,0.74,6.22
			c-0.18,1.15-0.51,2.32-0.99,3.49c-0.48,1.17-1.04,2.18-1.68,3.04l-2.35-1.76c0.61-1.41,0.85-2.57,0.73-3.49
			c-0.12-0.91-0.62-1.7-1.5-2.36c-0.92-0.69-2.04-0.89-3.36-0.59c-0.87,0.21-2.21,0.83-4.04,1.87c-2.01,1.13-3.4,1.9-4.19,2.28
			c-0.78,0.39-1.61,0.71-2.46,0.97c-3.78,1.2-7.2,0.66-10.26-1.64c-1.57-1.17-2.77-2.58-3.61-4.22c-0.84-1.64-1.24-3.34-1.18-5.1
			C532.7,178.15,533.57,175.69,535.22,173.22z M538.81,173.37l-2.27-1.7c0.67-0.78,1.31-1.42,1.93-1.9
			c0.61-0.49,1.57-1.11,2.87-1.87c0.32-0.19,0.54-0.38,0.67-0.55c0.2-0.26,0.25-0.52,0.17-0.78l-0.26-0.9
			c-0.14-0.45-0.09-0.83,0.15-1.14c0.28-0.37,0.61-0.54,1.01-0.51c0.4,0.03,0.88,0.26,1.46,0.69l6.8,5.1
			c0.4,0.3,0.64,0.66,0.72,1.07c0.08,0.42-0.01,0.8-0.28,1.16c-0.21,0.27-0.49,0.46-0.84,0.56c-0.2,0.04-0.41,0.04-0.63,0
			s-0.53-0.17-0.96-0.38c-0.79-0.35-1.67-0.61-2.67-0.78c-0.99-0.16-1.96-0.21-2.89-0.14C541.96,171.45,540.29,172.14,538.81,173.37
			z M561.31,194.44l2.35,1.76c-0.84,1.13-2.1,2.13-3.76,3c-0.61,0.33-1.03,0.57-1.24,0.71c-0.21,0.14-0.39,0.3-0.52,0.48
			c-0.21,0.27-0.31,0.51-0.33,0.72s0.04,0.59,0.17,1.16c0.12,0.47,0.07,0.86-0.15,1.14c-0.58,0.77-1.46,0.71-2.64-0.17l-7.5-5.62
			c-0.38-0.29-0.63-0.64-0.73-1.06c-0.1-0.42-0.04-0.8,0.2-1.14c0.21-0.31,0.48-0.48,0.79-0.52c0.31-0.03,0.75,0.06,1.31,0.29
			c1.42,0.57,2.87,0.94,4.34,1.12c1.48,0.17,2.87,0.13,4.18-0.13C559.14,195.93,560.31,195.35,561.31,194.44z"/>
		<path style="fill:#00942A" d="M587.91,170.24l-9.29,6.75l-0.54,0.39c-0.5,0.36-0.95,0.55-1.36,0.56c-0.41,0.01-0.74-0.16-0.99-0.51
			c-0.41-0.57-0.41-1.15,0.02-1.73c0.35-0.49,0.55-0.77,0.6-0.86c0.05-0.09,0.07-0.23,0.06-0.41c0.01-0.34-0.17-0.76-0.52-1.24
			l-15.16-20.85c-0.35-0.49-0.69-0.78-1.02-0.88c-0.17-0.07-0.31-0.09-0.41-0.07c-0.1,0.02-0.44,0.12-1.01,0.3
			c-0.69,0.22-1.24,0.05-1.65-0.52c-0.25-0.35-0.31-0.71-0.18-1.1c0.13-0.38,0.45-0.76,0.95-1.12l0.54-0.39l9.29-6.75l0.54-0.39
			c0.99-0.72,1.74-0.71,2.27,0.01c0.42,0.58,0.43,1.15,0.03,1.7l-0.49,0.68c-0.3,0.43-0.17,1.04,0.4,1.81l15.16,20.85
			c0.57,0.78,1.1,1.09,1.6,0.93l0.8-0.26c0.65-0.22,1.18-0.03,1.61,0.55c0.52,0.72,0.29,1.44-0.69,2.16L587.91,170.24z
			 M578.35,153.41l3.39-2.47l-6.6-9.08c-0.57-0.78-1.1-1.09-1.6-0.94l-0.82,0.28c-0.65,0.22-1.19,0.03-1.61-0.55
			c-0.52-0.72-0.29-1.45,0.71-2.17l0.54-0.39l9.27-6.74l0.56-0.41c1.04-0.76,1.82-0.77,2.35-0.05c0.41,0.57,0.41,1.15-0.02,1.73
			c-0.35,0.49-0.55,0.78-0.6,0.87c-0.05,0.09-0.07,0.23-0.07,0.41c-0.01,0.34,0.17,0.76,0.52,1.24l15.1,20.76
			c0.55,0.76,1.1,1.08,1.64,0.94l0.83-0.25c0.69-0.22,1.24-0.04,1.67,0.54c0.54,0.74,0.28,1.48-0.76,2.24l-0.56,0.41l-9.27,6.74
			l-0.58,0.42c-0.97,0.71-1.72,0.69-2.26-0.04c-0.42-0.58-0.44-1.16-0.04-1.72l0.5-0.71c0.31-0.42,0.17-1.03-0.41-1.83l-7-9.62
			l-3.39,2.47L578.35,153.41z"/>
		<path style="fill:#00942A" d="M610.01,125.6l2.92,4.65l0.9,17.22c0.02,0.5,0.1,0.95,0.23,1.34c0.34,1.03,1.06,1.6,2.17,1.72l0.98,0.11
			c0.62,0.07,1.02,0.38,1.21,0.96c0.27,0.81-0.19,1.42-1.38,1.81l-6.21,2.06c-0.6,0.2-1.12,0.23-1.56,0.09s-0.72-0.43-0.87-0.87
			c-0.16-0.47,0.07-0.98,0.69-1.53c0.57-0.52,0.98-0.94,1.22-1.28c0.24-0.34,0.44-0.76,0.6-1.27c0.24-0.82,0.32-1.83,0.24-3.04
			L610.01,125.6z M609.64,118.83l9.85-3.26l16.3,26.47c0.3,0.46,0.59,0.86,0.88,1.2c0.25,0.26,0.66,0.41,1.23,0.43
			c0.48,0.04,0.84,0.12,1.06,0.25c0.22,0.13,0.38,0.34,0.49,0.65c0.28,0.85-0.21,1.48-1.49,1.9l-12.2,4.04
			c-0.49,0.16-0.92,0.17-1.29,0.04c-0.37-0.14-0.62-0.41-0.75-0.8c-0.11-0.33-0.12-0.59-0.05-0.8c0.08-0.21,0.3-0.51,0.68-0.9
			c0.27-0.27,0.44-0.53,0.5-0.76c0.07-0.24,0.05-0.5-0.05-0.8c-0.09-0.28-0.2-0.51-0.32-0.71l-1.96-3.29l-6.82,2.26l-0.3-3.13
			l5.48-1.81l-11.08-18.39L609.64,118.83z"/>
		<path style="fill:#00942A" d="M667.58,120.76l1.66,8.07l-1.04,7.68c-0.11,0.78-0.15,1.35-0.14,1.7c0.01,0.35,0.09,0.74,0.24,1.18
			c0.26,0.8,0.67,1.42,1.25,1.88l0.86,0.74c0.59,0.48,0.86,0.96,0.79,1.43c-0.12,0.87-0.81,1.21-2.09,1.04l-6.4-0.87
			c-1.28-0.17-1.86-0.68-1.74-1.54c0.04-0.27,0.12-0.47,0.25-0.6c0.13-0.13,0.37-0.27,0.72-0.41c2.03-0.77,3.21-2.41,3.55-4.92
			L667.58,120.76z M679.07,110.36l3.09,15l3.26-7.43l-1.14,8.47l-8.57,18.98l-1.35-0.18l-5.93-30.71c-0.21-1.03-0.47-1.74-0.8-2.13
			c-0.19-0.25-0.55-0.46-1.08-0.64c-1.07-0.39-1.56-0.99-1.44-1.81c0.06-0.44,0.26-0.77,0.61-0.97c0.35-0.2,0.82-0.27,1.42-0.18
			L679.07,110.36z M688.46,111.63l11.33,1.53l0.69,0.09c1.28,0.17,1.85,0.7,1.73,1.59c-0.09,0.7-0.5,1.11-1.21,1.24
			c-0.59,0.11-0.93,0.18-1.03,0.21c-0.1,0.03-0.21,0.12-0.33,0.25c-0.24,0.24-0.4,0.67-0.48,1.26l-3.45,25.54
			c-0.08,0.6-0.04,1.04,0.13,1.34c0.08,0.17,0.17,0.28,0.25,0.33c0.09,0.05,0.4,0.21,0.94,0.48c0.65,0.31,0.93,0.82,0.83,1.52
			c-0.12,0.88-0.82,1.24-2.09,1.07l-0.69-0.09l-11.36-1.54l-0.84-0.11c-0.75-0.1-1.3-0.29-1.65-0.57c-0.35-0.28-0.5-0.65-0.43-1.11
			c0.1-0.75,0.57-1.16,1.41-1.24c0.69-0.08,1.09-0.13,1.22-0.16c0.12-0.03,0.26-0.11,0.4-0.25c0.3-0.27,0.49-0.74,0.58-1.4
			L688.46,111.63z"/>
		<path style="fill:#00942A" d="M731.43,125.19l-15.03,31.77l-10.36-4.9l-0.61-0.29c-0.56-0.26-0.94-0.57-1.14-0.93s-0.21-0.72-0.03-1.11
			c0.3-0.64,0.81-0.91,1.53-0.82c0.59,0.07,0.94,0.11,1.04,0.11c0.1,0,0.24-0.05,0.39-0.14c0.3-0.16,0.58-0.51,0.84-1.05l11.02-23.3
			c0.26-0.54,0.35-0.98,0.28-1.32c-0.03-0.18-0.07-0.32-0.14-0.39c-0.07-0.08-0.32-0.33-0.75-0.74c-0.53-0.5-0.64-1.06-0.34-1.7
			c0.18-0.39,0.48-0.62,0.88-0.68c0.4-0.07,0.88,0.03,1.44,0.3l0.61,0.29L731.43,125.19z M718.49,157.95l1.19-2.51
			c1.08,0.32,2.02,0.5,2.81,0.53c0.79,0.03,1.66-0.08,2.6-0.34c0.94-0.26,1.75-0.6,2.44-1.03c0.69-0.43,1.45-1.06,2.28-1.9
			c0.4-0.42,0.74-0.67,1.01-0.76c0.27-0.09,0.57-0.06,0.9,0.1c0.43,0.21,0.67,0.48,0.73,0.81c0.05,0.34-0.08,0.82-0.38,1.46
			l-3.89,8.22L718.49,157.95z M725.37,143.06l1.28-2.7c1.11-0.01,2-0.17,2.67-0.47s1.32-0.84,1.92-1.6c0.4-0.53,0.76-0.86,1.07-0.99
			c0.31-0.13,0.65-0.11,1.02,0.07c0.5,0.23,0.75,0.59,0.75,1.07c0.01,0.25-0.15,0.74-0.49,1.45l-4.2,8.87
			c-0.34,0.73-0.67,1.2-0.96,1.4c-0.3,0.2-0.66,0.2-1.09,0c-0.36-0.17-0.58-0.41-0.68-0.72c-0.1-0.31-0.09-0.75,0.03-1.33
			c0.24-1.2,0.25-2.2,0.04-3C726.51,144.29,726.06,143.61,725.37,143.06z M733.5,126.17l9.38,4.44l-3.9,8.24
			c-0.23,0.48-0.49,0.79-0.77,0.92c-0.29,0.13-0.64,0.1-1.04-0.09c-0.34-0.16-0.56-0.35-0.65-0.56c-0.09-0.21-0.1-0.57-0.03-1.07
			c0.26-2.08,0.05-3.86-0.65-5.35c-0.69-1.49-1.9-2.75-3.63-3.8L733.5,126.17z"/>
		<path style="fill:#00942A" d="M767.38,148.92l-23.35,26.27l-8.57-7.61l-0.5-0.44c-0.46-0.41-0.74-0.81-0.84-1.21c-0.1-0.4,0-0.75,0.28-1.07
			c0.47-0.53,1.03-0.64,1.69-0.35c0.55,0.23,0.87,0.37,0.97,0.4c0.1,0.03,0.24,0.02,0.42-0.03c0.33-0.07,0.7-0.33,1.1-0.78
			l17.12-19.27c0.4-0.45,0.61-0.84,0.64-1.19c0.03-0.18,0.02-0.32-0.03-0.42c-0.04-0.09-0.21-0.4-0.51-0.92
			c-0.37-0.62-0.31-1.2,0.15-1.72c0.29-0.32,0.63-0.46,1.03-0.41c0.4,0.05,0.84,0.28,1.3,0.69l0.5,0.45L767.38,148.92z
			 M752.81,173.14l13.5-15.18c0.83-0.94,1.36-1.8,1.58-2.59c0.15-0.51,0.18-0.95,0.09-1.34c-0.1-0.38-0.35-0.87-0.78-1.45l1.9-2.14
			c0.68,0.6,1.23,1.14,1.66,1.62c1.47,1.63,2.43,3.72,2.89,6.29c0.48,2.51,0.25,5.03-0.69,7.56c-0.93,2.57-2.42,5.01-4.48,7.32
			c-2.33,2.62-4.88,4.52-7.65,5.69c-2.77,1.18-5.57,1.55-8.4,1.12c-1.38-0.21-2.53-0.55-3.46-1.01c-0.93-0.46-2.01-1.23-3.23-2.32
			l1.85-2.08c0.66,0.34,1.15,0.54,1.47,0.62c0.31,0.07,0.66,0.05,1.03-0.05c0.44-0.11,0.86-0.31,1.24-0.6
			C751.71,174.31,752.2,173.82,752.81,173.14z"/>
		<path style="fill:#00942A" d="M767.83,203.12l-6.48-9.48l-0.38-0.55c-0.35-0.51-0.52-0.97-0.52-1.38c0-0.41,0.18-0.73,0.54-0.97
			c0.58-0.4,1.16-0.38,1.73,0.07c0.47,0.36,0.76,0.57,0.85,0.62c0.09,0.05,0.23,0.08,0.41,0.08c0.34,0.02,0.76-0.15,1.26-0.49
			l21.28-14.54c0.5-0.34,0.8-0.67,0.91-1c0.07-0.17,0.09-0.31,0.08-0.41c-0.02-0.1-0.11-0.44-0.27-1.01
			c-0.2-0.69-0.01-1.24,0.57-1.64c0.35-0.24,0.72-0.29,1.1-0.14c0.38,0.15,0.74,0.47,1.09,0.98l0.38,0.55l6.48,9.48l0.38,0.55
			c0.35,0.51,0.52,0.97,0.52,1.38s-0.18,0.73-0.54,0.97c-0.58,0.4-1.16,0.38-1.73-0.07c-0.48-0.36-0.76-0.57-0.85-0.62
			c-0.09-0.05-0.23-0.08-0.41-0.08c-0.34-0.01-0.76,0.15-1.26,0.49l-21.28,14.54c-0.5,0.34-0.8,0.67-0.91,1
			c-0.07,0.17-0.1,0.31-0.08,0.41c0.02,0.1,0.11,0.44,0.27,1.01c0.2,0.69,0.01,1.24-0.57,1.63c-0.35,0.24-0.72,0.29-1.1,0.15
			c-0.38-0.15-0.75-0.47-1.09-0.98L767.83,203.12z"/>
		<path style="fill:#00942A" d="M787.58,213.84l-2.24,2.37l-3-0.57c-1.11-0.2-1.92-0.2-2.45,0c-0.77,0.29-1.17,0.94-1.19,1.94
			c-0.01,0.55-0.08,0.96-0.2,1.21c-0.13,0.25-0.36,0.44-0.69,0.57c-0.45,0.17-0.89,0.12-1.33-0.16c-0.17-0.1-0.3-0.23-0.4-0.4
			c-0.1-0.17-0.24-0.5-0.43-0.99l-2.37-6.21c-0.2-0.51-0.24-0.96-0.14-1.34c0.1-0.38,0.35-0.64,0.73-0.79
			c0.3-0.12,0.59-0.12,0.86-0.01c0.27,0.11,0.58,0.36,0.94,0.76c0.92,1.03,2.04,1.67,3.35,1.92L787.58,213.84z M806.74,213.35
			l-20,21.48c-0.45,0.5-0.71,1.05-0.78,1.65c-0.06,0.52-0.16,0.89-0.29,1.12s-0.37,0.4-0.71,0.53c-0.43,0.17-0.84,0.14-1.22-0.09
			c-0.33-0.19-0.66-0.72-1-1.6l-4.3-11.29c-0.33-0.87-0.49-1.45-0.47-1.75c0.03-0.65,0.33-1.09,0.91-1.31
			c0.21-0.08,0.41-0.09,0.61-0.04c0.19,0.05,0.46,0.19,0.8,0.41c0.61,0.39,1.08,0.52,1.41,0.37c0.27-0.12,0.62-0.42,1.06-0.9
			l19.3-20.88c0.33-0.34,0.57-0.67,0.71-0.99c0.15-0.31,0.25-0.69,0.3-1.13c0.04-0.38,0.13-0.67,0.28-0.86
			c0.15-0.19,0.39-0.35,0.72-0.48c0.48-0.18,0.88-0.14,1.21,0.13c0.32,0.27,0.65,0.85,0.99,1.73l4.27,11.21
			c0.31,0.82,0.43,1.45,0.36,1.89c-0.07,0.44-0.34,0.75-0.8,0.93c-0.47,0.18-0.98,0.07-1.53-0.33c-0.27-0.17-0.48-0.28-0.63-0.32
			c-0.15-0.04-0.33-0.02-0.54,0.06C807.16,212.97,806.95,213.12,806.74,213.35z M802.14,221.3l2.16-2.37l2.8,0.48
			c0.64,0.1,1.16,0.08,1.54-0.06c0.35-0.13,0.66-0.38,0.91-0.72c0.25-0.34,0.39-0.72,0.42-1.14l0.06-0.99
			c0.02-0.19,0.12-0.39,0.3-0.59s0.38-0.35,0.61-0.44c0.38-0.15,0.74-0.13,1.07,0.06c0.33,0.19,0.58,0.5,0.75,0.95l2.65,6.95
			c0.17,0.45,0.21,0.86,0.12,1.23c-0.09,0.37-0.29,0.62-0.61,0.74c-0.39,0.15-0.78,0.13-1.18-0.05c-0.14-0.08-0.47-0.34-0.99-0.78
			c-1.06-0.9-2.33-1.5-3.8-1.8L802.14,221.3z"/>
	</g>
	<g>
		<path style="fill:#E30011" d="M809.83,252.99h-5.24h-5.24c0,0,0.29,5.99-7.27,5.99v13.82c0,0,0.58,7.41,12.51,12.26
			c11.93-4.85,12.51-12.26,12.51-12.26v-13.82C809.54,258.98,809.83,252.99,809.83,252.99z"/>
		<polygon style="fill:#FFFFFF" points="807.05,266.57 807.05,261.67 802.15,261.67 802.15,266.57 797.24,266.57 797.24,271.47 
			802.15,271.47 802.15,276.38 807.05,276.38 807.05,271.47 811.95,271.47 811.95,266.57 		"/>
	</g>
	<g>
		<path style="fill:#E30011" d="M528.45,252.99h-5.24h-5.24c0,0,0.29,5.99-7.27,5.99v13.82c0,0,0.58,7.41,12.51,12.26
			c11.93-4.85,12.51-12.26,12.51-12.26v-13.82C528.16,258.98,528.45,252.99,528.45,252.99z"/>
		<polygon style="fill:#FFFFFF" points="525.66,266.57 525.66,261.67 520.76,261.67 520.76,266.57 515.86,266.57 515.86,271.47 
			520.76,271.47 520.76,276.38 525.66,276.38 525.66,271.47 530.56,271.47 530.56,266.57 		"/>
	</g>
</g>
</svg>

